<svg width="45" height="45" viewBox="0 0 45 45" fill="none" xmlns="http://www.w3.org/2000/svg">
<path d="M35.625 1.875L26.25 11.25V31.875L35.625 23.4375V1.875ZM39.375 9.375V34.6875C37.3125 34.0312 35.0625 33.75 32.8125 33.75C29.625 33.75 25.0312 34.9688 22.5 36.5625V11.25C19.7812 9.1875 15.8438 8.4375 12.1875 8.4375C8.53125 8.4375 4.59375 9.1875 1.875 11.25V38.7188C1.875 39.1875 2.34375 39.6562 2.8125 39.6562C3 39.6562 3.09375 39.5625 3.28125 39.5625C5.8125 38.3438 9.46875 37.5 12.1875 37.5C15.8438 37.5 19.7812 38.25 22.5 40.3125C25.0312 38.7188 29.625 37.5 32.8125 37.5C35.9062 37.5 39.0938 38.0625 41.7188 39.4688C41.9062 39.5625 42 39.5625 42.1875 39.5625C42.6562 39.5625 43.125 39.0938 43.125 38.625V11.25C42 10.4062 40.7812 9.84375 39.375 9.375ZM18.75 34.5187C16.4062 33.9188 14.0625 33.75 12.1875 33.75C10.2 33.75 7.8375 34.1063 5.625 34.6875V13.3688C7.33125 12.6188 9.6375 12.1875 12.1875 12.1875C14.7375 12.1875 17.0437 12.6188 18.75 13.3688V34.5187Z" fill="white"/>
</svg>
