<svg width="45" height="45" viewBox="0 0 45 45" fill="none" xmlns="http://www.w3.org/2000/svg">
<path d="M35.1562 14.0625L37.3964 18.2812L42.1875 18.8634L38.6719 22.0317L39.375 26.7188L35.1562 24.082L30.9375 26.7188L31.6406 22.0317L28.125 18.8634L33.0469 18.2812L35.1562 14.0625ZM30.9375 42.1875H28.125V35.1562C28.1228 33.2921 27.3813 31.505 26.0631 30.1869C24.745 28.8687 22.9579 28.1272 21.0938 28.125H12.6562C10.7921 28.1272 9.005 28.8687 7.68687 30.1869C6.36874 31.505 5.62723 33.2921 5.625 35.1562V42.1875H2.8125V35.1562C2.81548 32.5464 3.85354 30.0444 5.69896 28.199C7.54437 26.3535 10.0464 25.3155 12.6562 25.3125H21.0938C23.7036 25.3155 26.2056 26.3535 28.051 28.199C29.8965 30.0444 30.9345 32.5464 30.9375 35.1562V42.1875ZM16.875 5.625C18.2656 5.625 19.6251 6.03738 20.7814 6.80998C21.9376 7.58258 22.8388 8.68071 23.371 9.96551C23.9032 11.2503 24.0424 12.664 23.7711 14.028C23.4998 15.3919 22.8302 16.6448 21.8468 17.6281C20.8635 18.6114 19.6107 19.2811 18.2467 19.5524C16.8828 19.8237 15.4691 19.6845 14.1843 19.1523C12.8995 18.6201 11.8013 17.7189 11.0287 16.5626C10.2561 15.4063 9.84375 14.0469 9.84375 12.6562C9.84375 10.7914 10.5845 9.00302 11.9032 7.68441C13.2218 6.36579 15.0102 5.625 16.875 5.625M16.875 2.8125C14.9281 2.8125 13.0249 3.38983 11.4061 4.47147C9.78731 5.55312 8.52561 7.0905 7.78056 8.88921C7.03551 10.6879 6.84057 12.6672 7.22039 14.5767C7.60022 16.4862 8.53774 18.2402 9.91442 19.6168C11.2911 20.9935 13.0451 21.931 14.9546 22.3109C16.8641 22.6907 18.8433 22.4957 20.642 21.7507C22.4408 21.0056 23.9781 19.7439 25.0598 18.1251C26.1414 16.5063 26.7188 14.6032 26.7188 12.6562C26.7188 10.0455 25.6816 7.54173 23.8356 5.69567C21.9895 3.84961 19.4857 2.8125 16.875 2.8125V2.8125Z" fill="white"/>
</svg>
