<svg width="45" height="45" viewBox="0 0 45 45" fill="none" xmlns="http://www.w3.org/2000/svg">
<path d="M16.875 5.625C18.2656 5.625 19.6251 6.03738 20.7814 6.80998C21.9376 7.58258 22.8389 8.68071 23.371 9.96551C23.9032 11.2503 24.0424 12.6641 23.7711 14.028C23.4998 15.3919 22.8302 16.6448 21.8468 17.6281C20.8635 18.6114 19.6107 19.2811 18.2467 19.5524C16.8828 19.8237 15.4691 19.6845 14.1843 19.1523C12.8995 18.6201 11.8013 17.7189 11.0287 16.5626C10.2561 15.4063 9.84375 14.0469 9.84375 12.6562C9.84375 10.7914 10.5845 9.00302 11.9032 7.68441C13.2218 6.36579 15.0102 5.625 16.875 5.625ZM16.875 2.8125C14.9281 2.8125 13.0249 3.38983 11.4061 4.47147C9.78731 5.55312 8.52561 7.0905 7.78056 8.88921C7.03551 10.6879 6.84057 12.6672 7.22039 14.5767C7.60022 16.4862 8.53774 18.2402 9.91442 19.6168C11.2911 20.9935 13.0451 21.931 14.9546 22.3109C16.8641 22.6907 18.8433 22.4957 20.642 21.7507C22.4408 21.0056 23.9781 19.7439 25.0598 18.1251C26.1414 16.5063 26.7188 14.6032 26.7188 12.6562C26.7188 10.0455 25.6816 7.54173 23.8356 5.69567C21.9895 3.84961 19.4857 2.8125 16.875 2.8125ZM30.9375 42.1875H28.125V35.1562C28.125 33.2914 27.3842 31.503 26.0656 30.1844C24.747 28.8658 22.9586 28.125 21.0938 28.125H12.6562C10.7914 28.125 9.00302 28.8658 7.68441 30.1844C6.36579 31.503 5.625 33.2914 5.625 35.1562V42.1875H2.8125V35.1562C2.8125 32.5455 3.84961 30.0417 5.69567 28.1957C7.54173 26.3496 10.0455 25.3125 12.6562 25.3125H21.0938C23.7045 25.3125 26.2083 26.3496 28.0543 28.1957C29.9004 30.0417 30.9375 32.5455 30.9375 35.1562V42.1875ZM30.9375 5.625H45V8.4375H30.9375V5.625ZM30.9375 12.6562H45V15.4688H30.9375V12.6562ZM30.9375 19.6875H40.7812V22.5H30.9375V19.6875Z" fill="white"/>
</svg>
