<svg width="50" height="50" viewBox="0 0 50 50" fill="none" xmlns="http://www.w3.org/2000/svg">
<path d="M10.4167 43.7499C9.27083 43.7499 8.28958 43.3423 7.47292 42.527C6.65764 41.7103 6.25 40.7291 6.25 39.5833V10.4166C6.25 9.27075 6.65764 8.2895 7.47292 7.47283C8.28958 6.65756 9.27083 6.24992 10.4167 6.24992H19.1667C19.6181 4.99992 20.3736 3.99297 21.4333 3.22909C22.4917 2.4652 23.6806 2.08325 25 2.08325C26.3194 2.08325 27.509 2.4652 28.5688 3.22909C29.6271 3.99297 30.3819 4.99992 30.8333 6.24992H39.5833C40.7292 6.24992 41.7104 6.65756 42.5271 7.47283C43.3424 8.2895 43.75 9.27075 43.75 10.4166V24.3749C43.0903 24.0624 42.4132 23.793 41.7188 23.5666C41.0243 23.3416 40.3125 23.177 39.5833 23.0728V10.4166H10.4167V39.5833H23.0208C23.125 40.3471 23.2903 41.0763 23.5167 41.7707C23.7417 42.4652 24.0104 43.1249 24.3229 43.7499H10.4167ZM10.4167 37.4999V39.5833V10.4166V23.0728V22.9166V37.4999ZM14.5833 35.4166H23.0729C23.1771 34.6874 23.3417 33.9756 23.5667 33.2812C23.7931 32.5867 24.0451 31.9096 24.3229 31.2499H14.5833V35.4166ZM14.5833 27.0833H27.2917C28.4028 26.0416 29.6438 25.1735 31.0146 24.4791C32.3868 23.7846 33.8542 23.3159 35.4167 23.0728V22.9166H14.5833V27.0833ZM14.5833 18.7499H35.4167V14.5833H14.5833V18.7499ZM25 8.85409C25.4514 8.85409 25.825 8.70617 26.1208 8.41034C26.4153 8.11589 26.5625 7.74297 26.5625 7.29159C26.5625 6.8402 26.4153 6.46658 26.1208 6.17075C25.825 5.87631 25.4514 5.72909 25 5.72909C24.5486 5.72909 24.1757 5.87631 23.8813 6.17075C23.5854 6.46658 23.4375 6.8402 23.4375 7.29159C23.4375 7.74297 23.5854 8.11589 23.8813 8.41034C24.1757 8.70617 24.5486 8.85409 25 8.85409ZM37.5 47.9166C34.6181 47.9166 32.1618 46.9013 30.1313 44.8708C28.0993 42.8388 27.0833 40.3819 27.0833 37.4999C27.0833 34.618 28.0993 32.161 30.1313 30.1291C32.1618 28.0985 34.6181 27.0833 37.5 27.0833C40.3819 27.0833 42.8389 28.0985 44.8708 30.1291C46.9014 32.161 47.9167 34.618 47.9167 37.4999C47.9167 40.3819 46.9014 42.8388 44.8708 44.8708C42.8389 46.9013 40.3819 47.9166 37.5 47.9166ZM36.4583 43.7499H38.5417V38.5416H43.75V36.4583H38.5417V31.2499H36.4583V36.4583H31.25V38.5416H36.4583V43.7499Z" fill="white"/>
</svg>
