<svg xmlns="http://www.w3.org/2000/svg" xmlns:xlink="http://www.w3.org/1999/xlink" width="1080" zoomAndPan="magnify" viewBox="0 0 810 809.999993" height="1080" preserveAspectRatio="xMidYMid meet" version="1.0"><defs><clipPath id="e7e64f73f1"><path d="M 14.789062 106 L 795.539062 106 L 795.539062 703.75 L 14.789062 703.75 Z M 14.789062 106 " clip-rule="nonzero"/></clipPath></defs><path fill="#0e4770" d="M 205.703125 137.933594 L 198.996094 159.875 L 211.804688 159.875 Z M 205.703125 137.933594 " fill-opacity="1" fill-rule="nonzero"/><path fill="#0e4770" d="M 414.921875 170.84375 C 417.363281 170.84375 419.191406 170.84375 421.019531 170.234375 C 422.851562 169.625 424.679688 169.015625 425.902344 167.1875 C 427.121094 165.96875 428.339844 164.140625 429.5625 161.703125 C 430.171875 159.265625 430.78125 156.21875 430.78125 152.5625 C 430.78125 148.902344 430.171875 145.855469 429.5625 144.027344 C 428.949219 141.589844 427.730469 139.761719 425.902344 138.542969 C 424.679688 137.324219 422.851562 136.105469 421.019531 135.496094 C 419.191406 134.886719 417.363281 134.886719 414.921875 134.886719 C 414.3125 134.886719 413.703125 134.886719 412.480469 134.886719 C 411.871094 134.886719 410.652344 134.886719 410.042969 134.886719 L 410.042969 170.234375 C 410.652344 170.234375 411.261719 170.234375 411.871094 170.234375 C 412.480469 170.234375 414.3125 170.84375 414.921875 170.84375 Z M 414.921875 170.84375 " fill-opacity="1" fill-rule="nonzero"/><g clip-path="url(#e7e64f73f1)"><path fill="#0e4770" d="M 765.039062 106.242188 L 45.285156 106.242188 C 28.207031 106.242188 14.789062 119.648438 14.789062 136.714844 L 14.789062 673.035156 C 14.789062 690.097656 28.207031 703.507812 45.285156 703.507812 L 765.039062 703.507812 C 782.117188 703.507812 795.539062 690.097656 795.539062 673.035156 L 795.539062 136.714844 C 795.539062 119.648438 782.117188 106.242188 765.039062 106.242188 Z M 583.878906 126.964844 L 613.769531 126.964844 C 613.769531 128.183594 614.378906 130.011719 614.378906 131.230469 C 614.378906 133.058594 614.378906 134.277344 613.769531 136.105469 L 594.859375 136.105469 L 594.859375 147.683594 L 610.109375 147.683594 C 610.109375 149.511719 610.71875 150.730469 610.71875 151.953125 C 610.71875 153.78125 610.71875 155 610.109375 156.828125 L 594.859375 156.828125 L 594.859375 170.84375 L 614.378906 170.84375 C 614.378906 172.0625 614.988281 173.890625 614.988281 175.109375 C 614.988281 176.9375 614.988281 178.15625 614.378906 179.984375 L 583.878906 179.984375 Z M 539.355469 142.199219 C 540.574219 139.152344 541.792969 136.105469 544.234375 133.667969 C 546.0625 131.230469 549.113281 129.402344 552.164062 128.183594 C 555.210938 126.964844 558.871094 126.355469 562.53125 126.355469 C 564.972656 126.355469 566.800781 126.355469 569.242188 126.964844 C 571.070312 126.964844 573.511719 127.574219 575.339844 128.792969 C 575.339844 130.011719 574.730469 131.839844 574.730469 133.058594 C 574.121094 134.277344 573.511719 136.105469 572.902344 137.324219 C 571.070312 136.714844 569.851562 136.105469 568.632812 136.105469 C 567.410156 136.105469 565.582031 135.496094 563.753906 135.496094 C 558.871094 135.496094 555.210938 137.324219 552.773438 140.371094 C 550.332031 143.417969 549.113281 147.683594 549.113281 153.78125 C 549.113281 165.96875 553.992188 171.453125 564.363281 171.453125 C 566.191406 171.453125 568.023438 171.453125 569.242188 170.84375 C 570.460938 170.84375 572.292969 170.234375 574.121094 169.625 C 574.730469 170.84375 575.339844 172.671875 575.953125 173.890625 C 576.5625 175.109375 576.5625 176.9375 577.171875 178.15625 C 574.730469 179.375 572.292969 179.984375 570.460938 179.984375 C 568.632812 179.984375 566.191406 180.59375 563.753906 180.59375 C 559.484375 180.59375 555.824219 179.984375 552.773438 178.765625 C 549.722656 177.546875 547.28125 175.71875 544.84375 173.28125 C 543.011719 170.84375 541.183594 167.796875 539.964844 164.75 C 538.742188 161.703125 538.132812 158.046875 538.132812 153.78125 C 538.132812 149.511719 538.132812 145.855469 539.355469 142.199219 Z M 489.945312 126.964844 C 491.167969 126.964844 492.996094 126.355469 494.214844 126.355469 C 495.4375 126.355469 497.265625 126.355469 498.484375 126.964844 L 518.613281 160.484375 L 518.613281 126.964844 C 520.445312 126.964844 522.273438 126.355469 523.496094 126.355469 C 524.714844 126.355469 526.542969 126.355469 527.765625 126.964844 L 527.765625 179.375 C 525.933594 179.375 524.714844 179.984375 523.496094 179.984375 C 522.273438 179.984375 520.445312 179.984375 519.226562 179.375 L 498.484375 145.855469 L 498.484375 179.375 C 496.65625 179.375 495.4375 179.984375 493.605469 179.984375 C 491.777344 179.984375 490.558594 179.984375 488.726562 179.375 L 488.726562 126.964844 Z M 450.910156 126.964844 L 480.796875 126.964844 C 480.796875 128.183594 481.40625 130.011719 481.40625 131.230469 C 481.40625 133.058594 481.40625 134.277344 480.796875 136.105469 L 461.886719 136.105469 L 461.886719 147.683594 L 477.136719 147.683594 C 477.136719 149.511719 477.746094 150.730469 477.746094 151.953125 C 477.746094 153.78125 477.746094 155 477.136719 156.828125 L 461.886719 156.828125 L 461.886719 170.84375 L 481.40625 170.84375 C 481.40625 172.0625 482.015625 173.890625 482.015625 175.109375 C 482.015625 176.9375 482.015625 178.15625 481.40625 179.984375 L 450.910156 179.984375 Z M 400.28125 126.964844 C 402.113281 126.964844 404.550781 126.355469 406.992188 126.355469 C 409.433594 126.355469 411.871094 126.355469 414.3125 126.355469 C 423.460938 126.355469 430.78125 128.792969 435.660156 133.058594 C 440.539062 137.933594 442.980469 144.636719 442.980469 153.78125 C 442.980469 162.921875 440.539062 169.625 435.660156 173.890625 C 430.78125 178.15625 423.460938 180.59375 413.703125 180.59375 C 411.261719 180.59375 408.820312 180.59375 406.992188 180.59375 C 405.164062 180.59375 402.722656 179.984375 400.890625 179.984375 L 400.890625 126.964844 Z M 350.875 126.964844 C 352.09375 126.964844 353.925781 126.355469 355.144531 126.355469 C 356.367188 126.355469 358.195312 126.355469 359.414062 126.964844 L 379.542969 160.484375 L 379.542969 126.964844 C 381.375 126.964844 383.203125 126.355469 384.421875 126.355469 C 385.644531 126.355469 387.472656 126.355469 388.691406 126.964844 L 388.691406 179.375 C 386.863281 179.375 385.644531 179.984375 384.421875 179.984375 C 383.203125 179.984375 381.375 179.984375 380.152344 179.375 L 359.414062 145.855469 L 359.414062 179.375 C 357.585938 179.375 356.367188 179.984375 354.535156 179.984375 C 352.707031 179.984375 351.484375 179.984375 349.65625 179.375 L 349.65625 126.964844 Z M 311.839844 126.964844 L 341.726562 126.964844 C 341.726562 128.183594 342.335938 130.011719 342.335938 131.230469 C 342.335938 133.058594 342.335938 134.277344 341.726562 136.105469 L 322.816406 136.105469 L 322.816406 147.683594 L 338.066406 147.683594 C 338.066406 149.511719 338.675781 150.730469 338.675781 151.953125 C 338.675781 153.78125 338.675781 155 338.066406 156.828125 L 322.816406 156.828125 L 322.816406 170.84375 L 342.335938 170.84375 C 342.335938 172.0625 342.945312 173.890625 342.945312 175.109375 C 342.945312 176.9375 342.945312 178.15625 342.335938 179.984375 L 311.839844 179.984375 Z M 267.921875 126.964844 L 305.128906 126.964844 C 305.128906 128.183594 305.738281 130.011719 305.738281 131.230469 C 305.738281 133.058594 305.738281 134.277344 305.128906 136.105469 L 292.320312 136.105469 L 292.320312 179.375 C 291.710938 179.375 290.488281 179.375 289.878906 179.375 C 289.269531 179.375 288.050781 179.375 287.441406 179.375 C 286.828125 179.375 285.609375 179.375 285 179.375 C 284.390625 179.375 283.171875 179.375 281.949219 179.375 L 281.949219 136.105469 L 269.140625 136.105469 C 269.140625 134.886719 268.53125 133.058594 268.53125 131.230469 C 267.3125 130.011719 267.3125 128.183594 267.921875 126.964844 Z M 226.445312 126.964844 L 263.652344 126.964844 C 263.652344 128.183594 264.261719 130.011719 264.261719 131.230469 C 264.261719 133.058594 264.261719 134.277344 263.652344 136.105469 L 250.84375 136.105469 L 250.84375 179.375 C 250.230469 179.375 249.011719 179.375 248.402344 179.375 C 247.792969 179.375 246.574219 179.375 245.960938 179.375 C 245.351562 179.375 244.132812 179.375 243.523438 179.375 C 242.914062 179.375 241.691406 179.375 240.472656 179.375 L 240.472656 136.105469 L 227.664062 136.105469 C 227.664062 134.886719 227.054688 133.058594 227.054688 131.230469 C 225.832031 130.011719 225.832031 128.183594 226.445312 126.964844 Z M 199.605469 126.964844 C 200.824219 126.964844 201.433594 126.964844 202.65625 126.355469 C 203.875 126.355469 204.484375 126.355469 205.703125 126.355469 C 206.925781 126.355469 207.535156 126.355469 208.753906 126.355469 C 209.976562 126.355469 210.585938 126.355469 211.804688 126.964844 L 228.273438 179.375 C 226.445312 179.375 224.613281 179.984375 222.175781 179.984375 C 220.34375 179.984375 218.515625 179.984375 216.683594 179.375 L 213.632812 169.015625 L 195.945312 169.015625 L 193.503906 179.375 C 191.675781 179.375 189.847656 179.984375 188.625 179.984375 C 186.796875 179.984375 184.964844 179.984375 183.136719 179.375 Z M 783.339844 673.035156 C 783.339844 683.394531 775.410156 691.316406 765.039062 691.316406 L 45.285156 691.316406 C 34.914062 691.316406 26.988281 683.394531 26.988281 673.035156 L 26.988281 203.753906 L 783.339844 203.753906 Z M 783.339844 673.035156 " fill-opacity="1" fill-rule="nonzero"/></g><path fill="#0e4770" d="M 191.675781 380.496094 C 191.675781 382.09375 191.597656 383.6875 191.441406 385.273438 C 191.285156 386.863281 191.050781 388.441406 190.738281 390.007812 C 190.425781 391.574219 190.039062 393.121094 189.574219 394.648438 C 189.109375 396.175781 188.574219 397.679688 187.960938 399.15625 C 187.351562 400.628906 186.667969 402.070312 185.914062 403.480469 C 185.160156 404.886719 184.339844 406.257812 183.453125 407.582031 C 182.5625 408.910156 181.613281 410.191406 180.597656 411.425781 C 179.585938 412.660156 178.515625 413.84375 177.382812 414.972656 C 176.253906 416.101562 175.070312 417.171875 173.835938 418.183594 C 172.601562 419.199219 171.316406 420.148438 169.988281 421.035156 C 168.660156 421.921875 167.292969 422.742188 165.882812 423.496094 C 164.472656 424.25 163.03125 424.929688 161.554688 425.542969 C 160.078125 426.152344 158.574219 426.691406 157.042969 427.152344 C 155.515625 427.617188 153.964844 428.003906 152.398438 428.316406 C 150.832031 428.628906 149.253906 428.863281 147.660156 429.019531 C 146.070312 429.175781 144.476562 429.253906 142.878906 429.253906 C 141.28125 429.253906 139.6875 429.175781 138.097656 429.019531 C 136.503906 428.863281 134.925781 428.628906 133.359375 428.316406 C 131.792969 428.003906 130.242188 427.617188 128.714844 427.152344 C 127.183594 426.691406 125.683594 426.152344 124.207031 425.542969 C 122.730469 424.929688 121.285156 424.25 119.875 423.496094 C 118.46875 422.742188 117.097656 421.921875 115.769531 421.035156 C 114.441406 420.148438 113.15625 419.199219 111.921875 418.183594 C 110.6875 417.171875 109.503906 416.101562 108.375 414.972656 C 107.246094 413.84375 106.171875 412.660156 105.160156 411.425781 C 104.144531 410.191406 103.195312 408.910156 102.304688 407.582031 C 101.417969 406.257812 100.597656 404.886719 99.84375 403.480469 C 99.089844 402.070312 98.410156 400.628906 97.796875 399.15625 C 97.183594 397.679688 96.648438 396.175781 96.183594 394.648438 C 95.71875 393.121094 95.332031 391.574219 95.019531 390.007812 C 94.707031 388.441406 94.472656 386.863281 94.316406 385.273438 C 94.160156 383.6875 94.082031 382.09375 94.082031 380.496094 C 94.082031 378.898438 94.160156 377.304688 94.316406 375.71875 C 94.472656 374.128906 94.707031 372.550781 95.019531 370.984375 C 95.332031 369.417969 95.71875 367.871094 96.183594 366.34375 C 96.648438 364.816406 97.183594 363.3125 97.796875 361.839844 C 98.410156 360.363281 99.089844 358.921875 99.84375 357.511719 C 100.597656 356.105469 101.417969 354.738281 102.304688 353.410156 C 103.195312 352.082031 104.144531 350.800781 105.160156 349.566406 C 106.171875 348.332031 107.246094 347.148438 108.375 346.019531 C 109.503906 344.890625 110.6875 343.820312 111.921875 342.808594 C 113.15625 341.792969 114.441406 340.84375 115.769531 339.957031 C 117.097656 339.070312 118.46875 338.25 119.875 337.496094 C 121.285156 336.746094 122.730469 336.0625 124.207031 335.453125 C 125.683594 334.839844 127.183594 334.304688 128.714844 333.839844 C 130.242188 333.375 131.792969 332.988281 133.359375 332.675781 C 134.925781 332.367188 136.503906 332.132812 138.097656 331.976562 C 139.6875 331.820312 141.28125 331.738281 142.878906 331.738281 C 144.476562 331.738281 146.070312 331.820312 147.660156 331.976562 C 149.253906 332.132812 150.832031 332.367188 152.398438 332.675781 C 153.964844 332.988281 155.515625 333.375 157.042969 333.839844 C 158.574219 334.304688 160.078125 334.839844 161.554688 335.453125 C 163.03125 336.0625 164.472656 336.746094 165.882812 337.496094 C 167.292969 338.25 168.660156 339.070312 169.988281 339.957031 C 171.316406 340.84375 172.601562 341.792969 173.835938 342.808594 C 175.070312 343.820312 176.253906 344.890625 177.382812 346.019531 C 178.515625 347.148438 179.585938 348.332031 180.597656 349.566406 C 181.613281 350.800781 182.5625 352.082031 183.453125 353.410156 C 184.339844 354.738281 185.160156 356.105469 185.914062 357.511719 C 186.667969 358.921875 187.351562 360.363281 187.960938 361.839844 C 188.574219 363.3125 189.109375 364.816406 189.574219 366.34375 C 190.039062 367.871094 190.425781 369.417969 190.738281 370.984375 C 191.050781 372.550781 191.285156 374.128906 191.441406 375.71875 C 191.597656 377.304688 191.675781 378.898438 191.675781 380.496094 Z M 191.675781 380.496094 " fill-opacity="1" fill-rule="nonzero"/><path fill="#0e4770" d="M 69.683594 563.332031 C 73.34375 563.332031 75.785156 560.894531 75.785156 557.238281 L 75.785156 493.246094 C 75.785156 471.304688 93.472656 453.628906 115.429688 453.628906 L 170.328125 453.628906 C 192.285156 453.628906 209.976562 471.304688 209.976562 493.246094 L 209.976562 557.238281 C 209.976562 560.894531 212.414062 563.332031 216.074219 563.332031 C 219.734375 563.332031 222.175781 560.894531 222.175781 557.238281 L 222.175781 493.246094 C 222.175781 464.601562 198.996094 441.441406 170.328125 441.441406 L 115.429688 441.441406 C 86.761719 441.441406 63.585938 464.601562 63.585938 493.246094 L 63.585938 557.238281 C 63.585938 560.894531 66.023438 563.332031 69.683594 563.332031 Z M 69.683594 563.332031 " fill-opacity="1" fill-rule="nonzero"/><path fill="#0e4770" d="M 100.183594 502.386719 C 96.523438 502.386719 94.082031 504.824219 94.082031 508.480469 L 94.082031 557.238281 C 94.082031 560.894531 96.523438 563.332031 100.183594 563.332031 C 103.839844 563.332031 106.28125 560.894531 106.28125 557.238281 L 106.28125 508.480469 C 106.28125 504.824219 103.230469 502.386719 100.183594 502.386719 Z M 100.183594 502.386719 " fill-opacity="1" fill-rule="nonzero"/><path fill="#0e4770" d="M 185.578125 502.386719 C 181.917969 502.386719 179.476562 504.824219 179.476562 508.480469 L 179.476562 557.238281 C 179.476562 560.894531 181.917969 563.332031 185.578125 563.332031 C 189.234375 563.332031 191.675781 560.894531 191.675781 557.238281 L 191.675781 508.480469 C 191.675781 504.824219 188.625 502.386719 185.578125 502.386719 Z M 185.578125 502.386719 " fill-opacity="1" fill-rule="nonzero"/><path fill="#0e4770" d="M 289.269531 356.117188 L 386.863281 356.117188 C 397.234375 356.117188 405.164062 348.195312 405.164062 337.835938 L 405.164062 264.699219 C 405.164062 254.339844 397.234375 246.417969 386.863281 246.417969 L 289.269531 246.417969 C 278.898438 246.417969 270.972656 254.339844 270.972656 264.699219 L 270.972656 337.835938 C 270.972656 348.195312 278.898438 356.117188 289.269531 356.117188 Z M 303.296875 275.0625 C 300.859375 272.625 300.859375 268.964844 303.296875 266.527344 C 305.738281 264.089844 309.398438 264.089844 311.839844 266.527344 L 338.066406 292.734375 L 364.292969 266.527344 C 366.734375 264.089844 370.394531 264.089844 372.835938 266.527344 C 375.273438 268.964844 375.273438 272.625 372.835938 275.0625 L 346.605469 301.265625 L 372.835938 327.472656 C 375.273438 329.910156 375.273438 333.570312 372.835938 336.007812 C 371.613281 337.226562 370.394531 337.835938 368.566406 337.835938 C 366.734375 337.835938 365.515625 337.226562 364.292969 336.007812 L 338.066406 309.800781 L 311.839844 336.007812 C 310.617188 337.226562 309.398438 337.835938 307.570312 337.835938 C 305.738281 337.835938 304.519531 337.226562 303.296875 336.007812 C 300.859375 333.570312 300.859375 329.910156 303.296875 327.472656 L 329.527344 301.265625 Z M 303.296875 275.0625 " fill-opacity="1" fill-rule="nonzero"/><path fill="#0e4770" d="M 460.058594 502.386719 L 557.652344 502.386719 C 568.023438 502.386719 575.953125 494.464844 575.953125 484.101562 L 575.953125 410.96875 C 575.953125 400.609375 568.023438 392.683594 557.652344 392.683594 L 460.058594 392.683594 C 449.6875 392.683594 441.761719 400.609375 441.761719 410.96875 L 441.761719 484.101562 C 441.761719 494.464844 449.6875 502.386719 460.058594 502.386719 Z M 474.085938 421.328125 C 471.648438 418.890625 471.648438 415.234375 474.085938 412.796875 C 476.527344 410.359375 480.1875 410.359375 482.628906 412.796875 L 508.855469 439.003906 L 535.085938 412.796875 C 537.523438 410.359375 541.183594 410.359375 543.625 412.796875 C 546.0625 415.234375 546.0625 418.890625 543.625 421.328125 L 517.394531 447.535156 L 543.625 473.742188 C 546.0625 476.179688 546.0625 479.835938 543.625 482.273438 C 542.402344 483.492188 541.183594 484.101562 539.355469 484.101562 C 537.523438 484.101562 536.304688 483.492188 535.082031 482.273438 L 508.855469 456.070312 L 482.628906 482.273438 C 481.40625 483.492188 480.1875 484.101562 478.359375 484.101562 C 476.527344 484.101562 475.308594 483.492188 474.085938 482.273438 C 471.648438 479.835938 471.648438 476.179688 474.085938 473.742188 L 500.316406 447.535156 Z M 474.085938 421.328125 " fill-opacity="1" fill-rule="nonzero"/><path fill="#0e4770" d="M 460.058594 648.65625 L 557.652344 648.65625 C 568.023438 648.65625 575.953125 640.734375 575.953125 630.371094 L 575.953125 557.238281 C 575.953125 546.878906 568.023438 538.953125 557.652344 538.953125 L 460.058594 538.953125 C 449.6875 538.953125 441.761719 546.878906 441.761719 557.238281 L 441.761719 630.371094 C 441.761719 640.734375 449.6875 648.65625 460.058594 648.65625 Z M 474.085938 567.597656 C 471.648438 565.160156 471.648438 561.503906 474.085938 559.066406 C 476.527344 556.628906 480.1875 556.628906 482.628906 559.066406 L 508.855469 585.273438 L 535.085938 559.066406 C 537.523438 556.628906 541.183594 556.628906 543.625 559.066406 C 546.0625 561.503906 546.0625 565.160156 543.625 567.597656 L 517.394531 593.804688 L 543.625 620.011719 C 546.0625 622.449219 546.0625 626.105469 543.625 628.542969 C 542.402344 629.761719 540.574219 630.371094 539.355469 630.371094 C 538.132812 630.371094 536.304688 629.761719 535.085938 628.542969 L 508.855469 602.335938 L 482.628906 628.542969 C 481.40625 629.761719 479.578125 630.371094 478.359375 630.371094 C 477.136719 630.371094 475.308594 629.761719 474.085938 628.542969 C 471.648438 626.105469 471.648438 622.449219 474.085938 620.011719 L 500.316406 593.804688 Z M 474.085938 567.597656 " fill-opacity="1" fill-rule="nonzero"/><path fill="#0e4770" d="M 460.058594 356.117188 L 557.652344 356.117188 C 568.023438 356.117188 575.953125 348.195312 575.953125 337.835938 L 575.953125 264.699219 C 575.953125 254.339844 568.023438 246.417969 557.652344 246.417969 L 460.058594 246.417969 C 449.6875 246.417969 441.761719 254.339844 441.761719 264.699219 L 441.761719 337.835938 C 441.761719 348.195312 449.6875 356.117188 460.058594 356.117188 Z M 460.667969 296.390625 C 463.109375 293.953125 466.769531 293.953125 469.207031 296.390625 L 494.828125 321.988281 L 549.113281 267.746094 C 551.554688 265.308594 555.210938 265.308594 557.652344 267.746094 C 560.09375 270.183594 560.09375 273.84375 557.652344 276.28125 L 499.707031 334.179688 C 499.707031 334.789062 499.097656 334.789062 498.484375 335.398438 C 497.265625 336.007812 496.046875 336.617188 494.828125 336.617188 C 492.996094 336.617188 491.777344 336.007812 490.558594 334.789062 L 460.667969 304.925781 C 458.230469 302.484375 458.230469 298.828125 460.667969 296.390625 Z M 460.667969 296.390625 " fill-opacity="1" fill-rule="nonzero"/><path fill="#0e4770" d="M 289.269531 502.386719 L 386.863281 502.386719 C 397.234375 502.386719 405.164062 494.464844 405.164062 484.101562 L 405.164062 410.96875 C 405.164062 400.609375 397.234375 392.683594 386.863281 392.683594 L 289.269531 392.683594 C 278.898438 392.683594 270.972656 400.609375 270.972656 410.96875 L 270.972656 484.101562 C 270.972656 494.464844 278.898438 502.386719 289.269531 502.386719 Z M 289.878906 442.660156 C 292.320312 440.222656 295.980469 440.222656 298.417969 442.660156 L 324.039062 468.257812 L 378.324219 414.015625 C 380.765625 411.578125 384.421875 411.578125 386.863281 414.015625 C 389.304688 416.453125 389.304688 420.109375 386.863281 422.546875 L 328.917969 480.445312 C 328.917969 480.445312 328.308594 481.054688 328.308594 481.054688 C 327.085938 482.273438 325.867188 482.273438 324.039062 482.273438 C 322.207031 482.273438 320.988281 481.664062 319.769531 480.445312 L 289.878906 450.582031 C 287.441406 448.753906 287.441406 445.097656 289.878906 442.660156 Z M 289.878906 442.660156 " fill-opacity="1" fill-rule="nonzero"/><path fill="#0e4770" d="M 630.847656 356.117188 L 728.441406 356.117188 C 738.8125 356.117188 746.742188 348.195312 746.742188 337.835938 L 746.742188 264.699219 C 746.742188 254.339844 738.8125 246.417969 728.441406 246.417969 L 630.847656 246.417969 C 620.476562 246.417969 612.550781 254.339844 612.550781 264.699219 L 612.550781 337.835938 C 612.550781 348.195312 620.476562 356.117188 630.847656 356.117188 Z M 631.457031 296.390625 C 633.898438 293.953125 637.558594 293.953125 639.996094 296.390625 L 665.617188 321.988281 L 719.902344 267.746094 C 722.34375 265.308594 726 265.308594 728.441406 267.746094 C 730.882812 270.183594 730.882812 273.84375 728.441406 276.28125 L 670.496094 334.179688 C 670.496094 334.179688 669.886719 334.789062 669.886719 334.789062 C 668.664062 336.007812 667.445312 336.007812 665.617188 336.007812 C 663.785156 336.007812 662.566406 335.398438 661.347656 334.179688 L 631.457031 304.316406 C 629.019531 302.484375 629.019531 298.828125 631.457031 296.390625 Z M 631.457031 296.390625 " fill-opacity="1" fill-rule="nonzero"/><path fill="#0e4770" d="M 630.847656 502.386719 L 728.441406 502.386719 C 738.8125 502.386719 746.742188 494.464844 746.742188 484.101562 L 746.742188 410.96875 C 746.742188 400.609375 738.8125 392.683594 728.441406 392.683594 L 630.847656 392.683594 C 620.476562 392.683594 612.550781 400.609375 612.550781 410.96875 L 612.550781 484.101562 C 612.550781 494.464844 620.476562 502.386719 630.847656 502.386719 Z M 631.457031 442.660156 C 633.898438 440.222656 637.558594 440.222656 639.996094 442.660156 L 665.617188 468.257812 L 719.902344 414.015625 C 722.34375 411.578125 726 411.578125 728.441406 414.015625 C 730.882812 416.453125 730.882812 420.109375 728.441406 422.546875 L 670.496094 480.445312 C 670.496094 480.445312 669.886719 481.054688 669.886719 481.054688 C 668.664062 482.273438 667.445312 482.273438 665.617188 482.273438 C 663.785156 482.273438 662.566406 481.664062 661.347656 480.445312 L 631.457031 450.582031 C 629.019531 448.753906 629.019531 445.097656 631.457031 442.660156 Z M 631.457031 442.660156 " fill-opacity="1" fill-rule="nonzero"/><path fill="#0e4770" d="M 289.269531 648.65625 L 386.863281 648.65625 C 397.234375 648.65625 405.164062 640.734375 405.164062 630.371094 L 405.164062 557.238281 C 405.164062 546.878906 397.234375 538.953125 386.863281 538.953125 L 289.269531 538.953125 C 278.898438 538.953125 270.972656 546.878906 270.972656 557.238281 L 270.972656 630.371094 C 270.972656 640.734375 278.898438 648.65625 289.269531 648.65625 Z M 289.878906 588.929688 C 292.320312 586.492188 295.980469 586.492188 298.417969 588.929688 L 324.039062 614.527344 L 378.324219 560.285156 C 380.765625 557.847656 384.421875 557.847656 386.863281 560.285156 C 389.304688 562.722656 389.304688 566.378906 386.863281 568.816406 L 328.917969 626.714844 C 328.917969 626.714844 328.308594 627.324219 328.308594 627.324219 C 327.085938 628.542969 325.867188 628.542969 324.039062 628.542969 C 322.207031 628.542969 320.988281 627.933594 319.769531 626.714844 L 289.878906 596.851562 C 287.441406 595.023438 287.441406 591.367188 289.878906 588.929688 Z M 289.878906 588.929688 " fill-opacity="1" fill-rule="nonzero"/><path fill="#0e4770" d="M 630.847656 648.65625 L 728.441406 648.65625 C 738.8125 648.65625 746.742188 640.734375 746.742188 630.371094 L 746.742188 557.238281 C 746.742188 546.878906 738.8125 538.953125 728.441406 538.953125 L 630.847656 538.953125 C 620.476562 538.953125 612.550781 546.878906 612.550781 557.238281 L 612.550781 630.371094 C 612.550781 640.734375 620.476562 648.65625 630.847656 648.65625 Z M 631.457031 588.929688 C 633.898438 586.492188 637.558594 586.492188 639.996094 588.929688 L 665.617188 614.527344 L 719.902344 560.285156 C 722.34375 557.847656 726 557.847656 728.441406 560.285156 C 730.882812 562.722656 730.882812 566.378906 728.441406 568.816406 L 670.496094 626.714844 C 670.496094 626.714844 669.886719 627.324219 669.886719 627.324219 C 668.664062 628.542969 667.445312 628.542969 665.617188 628.542969 C 663.785156 628.542969 662.566406 627.933594 661.347656 626.714844 L 631.457031 596.851562 C 629.019531 595.023438 629.019531 591.367188 631.457031 588.929688 Z M 631.457031 588.929688 " fill-opacity="1" fill-rule="nonzero"/></svg>