<svg width="400" height="484" viewBox="0 0 400 484" fill="none" xmlns="http://www.w3.org/2000/svg">
<g clip-path="url(#clip0_606_1425)">
<path d="M379.825 0.613281H54.034C43.2307 0.613281 34.4729 9.37111 34.4729 20.1744V276.552C34.4729 287.356 43.2307 296.114 54.034 296.114H379.825C390.628 296.114 399.386 287.356 399.386 276.552V20.1744C399.386 9.37111 390.628 0.613281 379.825 0.613281Z" fill="white"/>
<path d="M379.825 296.728H54.0341C48.6849 296.722 43.5564 294.595 39.7739 290.813C35.9915 287.03 33.8639 281.902 33.8582 276.552V20.176C33.8639 14.8267 35.9915 9.69826 39.7739 5.91579C43.5564 2.13332 48.6849 0.00578559 54.0341 0L379.825 0C385.174 0.00593364 390.302 2.13351 394.085 5.91595C397.867 9.69839 399.995 14.8268 400.001 20.176V276.553C399.995 281.902 397.867 287.03 394.084 290.813C390.302 294.595 385.174 296.722 379.825 296.728ZM54.0341 1.22793C49.0106 1.23372 44.1945 3.2319 40.6424 6.7841C37.0903 10.3363 35.0923 15.1525 35.0866 20.176V276.553C35.0924 281.576 37.0905 286.392 40.6426 289.944C44.1947 293.496 49.0107 295.495 54.0341 295.5H379.825C384.848 295.495 389.664 293.497 393.216 289.945C396.768 286.392 398.767 281.576 398.772 276.553V20.176C398.767 15.1524 396.769 10.3362 393.217 6.78394C389.664 3.2317 384.848 1.23357 379.825 1.22793H54.0341Z" fill="#292A2E"/>
<path opacity="0.2" d="M370.786 53.7363H350.782C346.566 53.7363 343.148 57.1543 343.148 61.3707V81.3746C343.148 85.5909 346.566 89.0089 350.782 89.0089H370.786C375.002 89.0089 378.42 85.5909 378.42 81.3746V61.3707C378.42 57.1543 375.002 53.7363 370.786 53.7363Z" fill="#12A2BD"/>
<path opacity="0.2" d="M371.407 98.2891H351.557C347.298 98.2891 343.845 101.741 343.845 106V125.851C343.845 130.109 347.298 133.562 351.557 133.562H371.407C375.666 133.562 379.118 130.109 379.118 125.851V106C379.118 101.741 375.666 98.2891 371.407 98.2891Z" fill="#12A2BD"/>
<path opacity="0.2" d="M371.407 147.912H351.557C347.298 147.912 343.845 151.365 343.845 155.623V175.474C343.845 179.732 347.298 183.185 351.557 183.185H371.407C375.666 183.185 379.118 179.732 379.118 175.474V155.623C379.118 151.365 375.666 147.912 371.407 147.912Z" fill="#12A2BD"/>
<path opacity="0.2" d="M370.709 194.994H350.859C346.6 194.994 343.148 198.447 343.148 202.705V222.556C343.148 226.814 346.6 230.267 350.859 230.267H370.709C374.968 230.267 378.42 226.814 378.42 222.556V202.705C378.42 198.447 374.968 194.994 370.709 194.994Z" fill="#12A2BD"/>
<g opacity="0.15">
<path d="M226.954 53.7363H206.95C202.734 53.7363 199.316 57.1543 199.316 61.3707V81.3746C199.316 85.5909 202.734 89.0089 206.95 89.0089H226.954C231.17 89.0089 234.588 85.5909 234.588 81.3746V61.3707C234.588 57.1543 231.17 53.7363 226.954 53.7363Z" fill="#12A2BD"/>
<path d="M179.01 53.7363H159.006C154.789 53.7363 151.371 57.1543 151.371 61.3707V81.3746C151.371 85.5909 154.789 89.0089 159.006 89.0089H179.01C183.226 89.0089 186.644 85.5909 186.644 81.3746V61.3707C186.644 57.1543 183.226 53.7363 179.01 53.7363Z" fill="#12A2BD"/>
<path d="M131.763 53.7363H111.759C107.543 53.7363 104.125 57.1543 104.125 61.3707V81.3746C104.125 85.5909 107.543 89.0089 111.759 89.0089H131.763C135.98 89.0089 139.398 85.5909 139.398 81.3746V61.3707C139.398 57.1543 135.98 53.7363 131.763 53.7363Z" fill="#12A2BD"/>
<path d="M83.8189 53.7363H63.815C59.5987 53.7363 56.1807 57.1543 56.1807 61.3707V81.3746C56.1807 85.5909 59.5987 89.0089 63.815 89.0089H83.8189C88.0353 89.0089 91.4533 85.5909 91.4533 81.3746V61.3707C91.4533 57.1543 88.0353 53.7363 83.8189 53.7363Z" fill="#12A2BD"/>
<path d="M274.898 53.7363H254.894C250.677 53.7363 247.259 57.1543 247.259 61.3707V81.3746C247.259 85.5909 250.677 89.0089 254.894 89.0089H274.898C279.114 89.0089 282.532 85.5909 282.532 81.3746V61.3707C282.532 57.1543 279.114 53.7363 274.898 53.7363Z" fill="#12A2BD"/>
<path d="M322.842 53.7363H302.838C298.622 53.7363 295.204 57.1543 295.204 61.3707V81.3746C295.204 85.5909 298.622 89.0089 302.838 89.0089H322.842C327.058 89.0089 330.476 85.5909 330.476 81.3746V61.3707C330.476 57.1543 327.058 53.7363 322.842 53.7363Z" fill="#12A2BD"/>
<path d="M227.574 98.2891H207.724C203.465 98.2891 200.013 101.741 200.013 106V125.851C200.013 130.109 203.465 133.562 207.724 133.562H227.574C231.833 133.562 235.285 130.109 235.285 125.851V106C235.285 101.741 231.833 98.2891 227.574 98.2891Z" fill="#12A2BD"/>
<path d="M275.519 98.2891H255.668C251.409 98.2891 247.957 101.741 247.957 106V125.851C247.957 130.109 251.409 133.562 255.668 133.562H275.519C279.777 133.562 283.23 130.109 283.23 125.851V106C283.23 101.741 279.777 98.2891 275.519 98.2891Z" fill="#12A2BD"/>
<path d="M323.463 98.2891H303.612C299.354 98.2891 295.901 101.741 295.901 106V125.851C295.901 130.109 299.354 133.562 303.612 133.562H323.463C327.721 133.562 331.174 130.109 331.174 125.851V106C331.174 101.741 327.721 98.2891 323.463 98.2891Z" fill="#12A2BD"/>
<path d="M83.7421 98.2891H63.8918C59.6331 98.2891 56.1807 101.741 56.1807 106V125.851C56.1807 130.109 59.6331 133.562 63.8918 133.562H83.7421C88.0009 133.562 91.4533 130.109 91.4533 125.851V106C91.4533 101.741 88.0009 98.2891 83.7421 98.2891Z" fill="#12A2BD"/>
<path d="M131.686 98.2891H111.836C107.577 98.2891 104.125 101.741 104.125 106V125.851C104.125 130.109 107.577 133.562 111.836 133.562H131.686C135.945 133.562 139.398 130.109 139.398 125.851V106C139.398 101.741 135.945 98.2891 131.686 98.2891Z" fill="#12A2BD"/>
<path d="M179.63 98.2891H159.78C155.521 98.2891 152.069 101.741 152.069 106V125.851C152.069 130.109 155.521 133.562 159.78 133.562H179.63C183.889 133.562 187.341 130.109 187.341 125.851V106C187.341 101.741 183.889 98.2891 179.63 98.2891Z" fill="#12A2BD"/>
<path d="M227.574 147.912H207.724C203.465 147.912 200.013 151.365 200.013 155.623V175.474C200.013 179.732 203.465 183.185 207.724 183.185H227.574C231.833 183.185 235.285 179.732 235.285 175.474V155.623C235.285 151.365 231.833 147.912 227.574 147.912Z" fill="#12A2BD"/>
<path d="M275.519 147.912H255.668C251.409 147.912 247.957 151.365 247.957 155.623V175.474C247.957 179.732 251.409 183.185 255.668 183.185H275.519C279.777 183.185 283.23 179.732 283.23 175.474V155.623C283.23 151.365 279.777 147.912 275.519 147.912Z" fill="#12A2BD"/>
<path d="M323.463 147.912H303.612C299.354 147.912 295.901 151.365 295.901 155.623V175.474C295.901 179.732 299.354 183.185 303.612 183.185H323.463C327.721 183.185 331.174 179.732 331.174 175.474V155.623C331.174 151.365 327.721 147.912 323.463 147.912Z" fill="#12A2BD"/>
<path d="M83.7421 147.912H63.8918C59.6331 147.912 56.1807 151.365 56.1807 155.623V175.474C56.1807 179.732 59.6331 183.185 63.8918 183.185H83.7421C88.0009 183.185 91.4533 179.732 91.4533 175.474V155.623C91.4533 151.365 88.0009 147.912 83.7421 147.912Z" fill="#12A2BD"/>
<path d="M131.686 147.912H111.836C107.577 147.912 104.125 151.365 104.125 155.623V175.474C104.125 179.732 107.577 183.185 111.836 183.185H131.686C135.945 183.185 139.398 179.732 139.398 175.474V155.623C139.398 151.365 135.945 147.912 131.686 147.912Z" fill="#12A2BD"/>
<path d="M179.63 147.912H159.78C155.521 147.912 152.069 151.365 152.069 155.623V175.474C152.069 179.732 155.521 183.185 159.78 183.185H179.63C183.889 183.185 187.341 179.732 187.341 175.474V155.623C187.341 151.365 183.889 147.912 179.63 147.912Z" fill="#12A2BD"/>
<path d="M227.574 195.691H207.724C203.465 195.691 200.013 199.144 200.013 203.403V223.253C200.013 227.512 203.465 230.964 207.724 230.964H227.574C231.833 230.964 235.285 227.512 235.285 223.253V203.403C235.285 199.144 231.833 195.691 227.574 195.691Z" fill="#12A2BD"/>
<path d="M274.821 194.994H254.97C250.712 194.994 247.259 198.447 247.259 202.705V222.556C247.259 226.814 250.712 230.267 254.97 230.267H274.821C279.079 230.267 282.532 226.814 282.532 222.556V202.705C282.532 198.447 279.079 194.994 274.821 194.994Z" fill="#12A2BD"/>
<path d="M322.765 194.994H302.915C298.656 194.994 295.204 198.447 295.204 202.705V222.556C295.204 226.814 298.656 230.267 302.915 230.267H322.765C327.024 230.267 330.476 226.814 330.476 222.556V202.705C330.476 198.447 327.024 194.994 322.765 194.994Z" fill="#12A2BD"/>
<path d="M83.7421 195.691H63.8918C59.6331 195.691 56.1807 199.144 56.1807 203.403V223.253C56.1807 227.512 59.6331 230.964 63.8918 230.964H83.7421C88.0009 230.964 91.4533 227.512 91.4533 223.253V203.403C91.4533 199.144 88.0009 195.691 83.7421 195.691Z" fill="#12A2BD"/>
<path d="M131.686 195.691H111.836C107.577 195.691 104.125 199.144 104.125 203.403V223.253C104.125 227.512 107.577 230.964 111.836 230.964H131.686C135.945 230.964 139.398 227.512 139.398 223.253V203.403C139.398 199.144 135.945 195.691 131.686 195.691Z" fill="#12A2BD"/>
<path d="M179.63 195.691H159.78C155.521 195.691 152.069 199.144 152.069 203.403V223.253C152.069 227.512 155.521 230.964 159.78 230.964H179.63C183.889 230.964 187.341 227.512 187.341 223.253V203.403C187.341 199.144 183.889 195.691 179.63 195.691Z" fill="#12A2BD"/>
<path d="M226.877 238.969H207.027C202.768 238.969 199.316 242.421 199.316 246.68V266.53C199.316 270.789 202.768 274.241 207.027 274.241H226.877C231.136 274.241 234.588 270.789 234.588 266.53V246.68C234.588 242.421 231.136 238.969 226.877 238.969Z" fill="#12A2BD"/>
<path d="M83.0444 238.969H63.194C58.9353 238.969 55.4829 242.421 55.4829 246.68V266.53C55.4829 270.789 58.9353 274.241 63.194 274.241H83.0444C87.3031 274.241 90.7555 270.789 90.7555 266.53V246.68C90.7555 242.421 87.3031 238.969 83.0444 238.969Z" fill="#12A2BD"/>
<path d="M130.989 238.969H111.138C106.88 238.969 103.427 242.421 103.427 246.68V266.53C103.427 270.789 106.88 274.241 111.138 274.241H130.989C135.247 274.241 138.7 270.789 138.7 266.53V246.68C138.7 242.421 135.247 238.969 130.989 238.969Z" fill="#12A2BD"/>
<path d="M178.933 238.969H159.082C154.824 238.969 151.371 242.421 151.371 246.68V266.53C151.371 270.789 154.824 274.241 159.082 274.241H178.933C183.192 274.241 186.644 270.789 186.644 266.53V246.68C186.644 242.421 183.192 238.969 178.933 238.969Z" fill="#12A2BD"/>
</g>
<path d="M399.386 20.1764V32.7174H34.4746V20.1764C34.4739 17.6073 34.9793 15.0633 35.9619 12.6896C36.9445 10.3159 38.3851 8.159 40.2015 6.34214C42.0178 4.52529 44.1743 3.08405 46.5477 2.10074C48.9211 1.11743 51.465 0.611328 54.0341 0.611328H379.825C382.394 0.611623 384.938 1.11792 387.311 2.10132C389.685 3.08471 391.841 4.52595 393.658 6.34273C395.474 8.15952 396.915 10.3163 397.898 12.6899C398.88 15.0634 399.386 17.6074 399.386 20.1764V20.1764Z" fill="#292A2E"/>
<path d="M178.488 242.871H159.528C157.178 242.871 155.273 244.776 155.273 247.125V266.086C155.273 268.435 157.178 270.34 159.528 270.34H178.488C180.837 270.34 182.742 268.435 182.742 266.086V247.125C182.742 244.776 180.837 242.871 178.488 242.871Z" fill="white"/>
<path d="M81.6644 184.914L58.2559 180.679C57.5924 180.558 57.0038 180.18 56.6195 179.626C56.2353 179.072 56.0869 178.388 56.2069 177.724L59.8268 157.721L67.0318 152.924L86.806 156.503C87.4694 156.623 88.058 157.002 88.4422 157.556C88.8265 158.11 88.975 158.793 88.8549 159.457L84.6185 182.866C84.5592 183.194 84.4357 183.508 84.2551 183.788C84.0745 184.069 83.8403 184.312 83.566 184.502C83.2916 184.692 82.9825 184.827 82.6562 184.897C82.33 184.968 81.993 184.974 81.6644 184.914Z" fill="#12A2BD"/>
<path opacity="0.29" d="M67.0317 152.924L59.8267 157.721L65.9798 158.941L67.0317 152.924Z" fill="#FFFFFA"/>
<g opacity="0.88">
<path d="M83.4943 171.266C83.4706 171.267 83.447 171.265 83.4237 171.26L61.5193 167.21C61.4268 167.192 61.3449 167.139 61.2915 167.062C61.2382 166.984 61.2178 166.889 61.2349 166.796C61.252 166.704 61.3052 166.622 61.3827 166.568C61.4602 166.515 61.5557 166.495 61.6482 166.512L83.5526 170.563C83.6387 170.579 83.7159 170.626 83.7691 170.696C83.8224 170.765 83.848 170.852 83.841 170.94C83.8341 171.027 83.795 171.109 83.7314 171.169C83.6678 171.229 83.5841 171.264 83.4965 171.266H83.4943Z" fill="white"/>
<path d="M82.7093 175.861C82.6854 175.861 82.6616 175.86 82.6381 175.856L60.7343 171.805C60.687 171.798 60.6415 171.781 60.6007 171.757C60.5598 171.732 60.5244 171.699 60.4965 171.66C60.4687 171.621 60.4489 171.577 60.4385 171.53C60.4281 171.484 60.4272 171.436 60.4358 171.388C60.4445 171.341 60.4626 171.297 60.489 171.257C60.5154 171.217 60.5496 171.183 60.5895 171.156C60.6294 171.13 60.6742 171.112 60.7212 171.103C60.7683 171.095 60.8166 171.096 60.8632 171.106L82.767 175.157C82.8537 175.173 82.9316 175.22 82.9854 175.29C83.0392 175.359 83.0652 175.447 83.0582 175.535C83.0512 175.622 83.0118 175.704 82.9476 175.765C82.8834 175.825 82.7991 175.86 82.711 175.861H82.7093Z" fill="white"/>
<path d="M69.8577 177.73C69.834 177.731 69.8104 177.729 69.7871 177.724L60.0712 175.928C60.0239 175.921 59.9785 175.904 59.9376 175.88C59.8967 175.855 59.8613 175.822 59.8334 175.783C59.8056 175.744 59.7858 175.7 59.7754 175.654C59.765 175.607 59.7641 175.559 59.7727 175.512C59.7814 175.464 59.7995 175.42 59.8259 175.38C59.8523 175.34 59.8865 175.306 59.9264 175.279C59.9663 175.253 60.0111 175.235 60.0582 175.227C60.1052 175.218 60.1535 175.219 60.2001 175.229L69.916 177.027C70.0021 177.043 70.0792 177.09 70.1325 177.16C70.1857 177.229 70.2114 177.316 70.2044 177.404C70.1974 177.491 70.1584 177.573 70.0948 177.633C70.0312 177.693 69.9475 177.728 69.8599 177.73H69.8577Z" fill="white"/>
</g>
<path d="M83.5985 167.533C83.5119 167.533 83.4254 167.525 83.3402 167.51L78.6005 166.646C78.4135 166.612 78.2351 166.541 78.0756 166.438C77.916 166.334 77.7784 166.201 77.6707 166.044C77.563 165.888 77.4873 165.711 77.448 165.525C77.4086 165.34 77.4064 165.148 77.4415 164.961L78.2379 159.928C78.3069 159.555 78.5198 159.224 78.8308 159.006C79.1417 158.788 79.5258 158.701 79.9002 158.764L84.6544 159.577C84.843 159.609 85.0234 159.678 85.185 159.78C85.3466 159.882 85.4863 160.016 85.5958 160.173C85.7053 160.329 85.7826 160.506 85.823 160.693C85.8634 160.88 85.8663 161.073 85.8313 161.261L85.0204 166.35C84.9583 166.682 84.7824 166.982 84.5228 167.198C84.2632 167.414 83.9363 167.533 83.5985 167.533ZM79.6586 159.304C79.4528 159.304 79.2536 159.376 79.0952 159.508C78.9367 159.639 78.8288 159.821 78.7899 160.023L77.9935 165.056C77.9711 165.171 77.9716 165.289 77.9951 165.403C78.0186 165.518 78.0646 165.627 78.1305 165.723C78.1963 165.82 78.2807 165.902 78.3787 165.966C78.4767 166.03 78.5864 166.074 78.7014 166.095L83.441 166.959C83.6702 166.999 83.906 166.948 84.0977 166.816C84.2894 166.684 84.4217 166.482 84.4661 166.254L85.2782 161.162C85.2998 161.047 85.2983 160.928 85.2737 160.814C85.2492 160.699 85.2021 160.591 85.1353 160.495C85.0684 160.399 84.9831 160.317 84.8842 160.254C84.7854 160.191 84.6751 160.149 84.5597 160.129L79.8054 159.316C79.7569 159.308 79.7078 159.304 79.6586 159.304V159.304Z" fill="white"/>
<path d="M163.369 265.671C163.32 265.671 163.27 265.671 163.22 265.664C162.992 265.643 162.771 265.575 162.57 265.464C162.37 265.354 162.195 265.202 162.056 265.02L157.077 258.47C156.812 258.122 156.696 257.683 156.755 257.249C156.814 256.816 157.043 256.424 157.392 256.159C157.74 255.894 158.179 255.779 158.612 255.838C159.046 255.897 159.438 256.126 159.703 256.474L163.59 261.587L178.509 247.968C178.669 247.822 178.856 247.709 179.06 247.635C179.264 247.562 179.48 247.529 179.696 247.539C179.913 247.549 180.125 247.601 180.321 247.693C180.517 247.785 180.693 247.915 180.839 248.075C180.985 248.235 181.098 248.422 181.172 248.626C181.246 248.829 181.279 249.046 181.269 249.262C181.259 249.478 181.206 249.691 181.114 249.887C181.023 250.083 180.893 250.259 180.733 250.405L164.48 265.238C164.177 265.516 163.781 265.671 163.369 265.671Z" fill="#12A2BD"/>
<path d="M380.257 76.704L360.525 89.9916C360.248 90.1785 359.937 90.309 359.61 90.3756C359.282 90.4422 358.945 90.4435 358.617 90.3795C358.289 90.3155 357.977 90.1875 357.698 90.0027C357.42 89.818 357.181 89.5801 356.994 89.3028L345.64 72.4424L347.459 63.9797L364.129 52.7546C364.406 52.5679 364.717 52.4376 365.044 52.3711C365.372 52.3047 365.709 52.3034 366.037 52.3674C366.365 52.4313 366.677 52.5593 366.955 52.7439C367.234 52.9285 367.473 53.1662 367.66 53.4434L380.947 73.1749C381.134 73.4519 381.264 73.763 381.33 74.0902C381.396 74.4175 381.397 74.7547 381.333 75.0824C381.269 75.4101 381.141 75.722 380.957 76.0003C380.772 76.2785 380.534 76.5177 380.257 76.704V76.704Z" fill="#0CBC8B"/>
<path opacity="0.29" d="M347.461 63.9785L345.642 72.4418L350.903 69.0253L347.461 63.9785Z" fill="#FFFFFA"/>
<g opacity="0.88">
<path d="M372.051 65.6462C372.034 65.6632 372.016 65.6784 371.995 65.6916L353.472 78.0628C353.393 78.1094 353.3 78.1241 353.211 78.104C353.123 78.0838 353.045 78.0302 352.995 77.9544C352.944 77.8786 352.925 77.7863 352.941 77.6967C352.956 77.607 353.006 77.5268 353.079 77.4727L371.604 65.1015C371.677 65.0533 371.765 65.0339 371.852 65.0469C371.938 65.06 372.017 65.1047 372.073 65.1723C372.128 65.2399 372.157 65.3257 372.153 65.4132C372.149 65.5007 372.113 65.5837 372.052 65.6462H372.051Z" fill="white"/>
<path d="M374.692 69.4861C374.675 69.5031 374.656 69.5183 374.636 69.5315L356.112 81.9027C356.033 81.9493 355.94 81.964 355.852 81.9438C355.763 81.9236 355.685 81.8701 355.635 81.7943C355.584 81.7185 355.565 81.6262 355.581 81.5365C355.597 81.4468 355.646 81.3666 355.719 81.3125L374.244 68.9413C374.317 68.8931 374.405 68.8737 374.492 68.8868C374.578 68.8999 374.657 68.9445 374.713 69.0121C374.768 69.0798 374.797 69.1656 374.793 69.2531C374.789 69.3406 374.753 69.4236 374.692 69.4861V69.4861Z" fill="white"/>
<path d="M366.785 79.7888C366.768 79.8058 366.749 79.821 366.729 79.8342L358.516 85.3215C358.477 85.3501 358.433 85.3705 358.386 85.3815C358.339 85.3925 358.291 85.3939 358.243 85.3856C358.196 85.3773 358.151 85.3594 358.111 85.3331C358.07 85.3068 358.036 85.2726 358.009 85.2326C357.983 85.1925 357.964 85.1475 357.956 85.1002C357.947 85.053 357.948 85.0044 357.959 84.9575C357.969 84.9107 357.989 84.8664 358.018 84.8276C358.046 84.7887 358.082 84.756 358.123 84.7314L366.34 79.2441C366.413 79.1959 366.501 79.1764 366.588 79.1895C366.675 79.2026 366.753 79.2472 366.809 79.3149C366.865 79.3825 366.893 79.4683 366.889 79.5558C366.886 79.6433 366.85 79.7263 366.788 79.7888H366.785Z" fill="white"/>
</g>
<path d="M384.777 483.222H20.2539C20.1498 483.222 20.05 483.181 19.9765 483.107C19.9029 483.034 19.8616 482.934 19.8616 482.83C19.8616 482.726 19.9029 482.626 19.9765 482.552C20.05 482.479 20.1498 482.438 20.2539 482.438H384.777C384.881 482.437 384.981 482.479 385.054 482.552C385.128 482.626 385.169 482.726 385.169 482.83C385.169 482.934 385.128 483.034 385.054 483.107C384.981 483.181 384.881 483.222 384.777 483.222Z" fill="#292A2E"/>
<path d="M318.364 458.469C318.364 458.469 315.834 471.583 303.552 472.316C291.271 473.049 293.934 482.831 293.934 482.831H340.865V459.383L318.364 458.469Z" fill="#12A2BD"/>
<path d="M332.84 219.197C332.84 219.197 332.692 215.254 332.723 224.198C332.84 257.561 334.54 295.669 335.954 317.969C338.227 353.817 342.935 466.838 342.935 466.838L309.855 466.579L282.208 217.842L332.84 219.197Z" fill="#262626"/>
<path d="M297.356 258.979C297.356 258.979 296.078 283.19 295.843 288.874C295.295 302.019 294.804 315.714 294.804 331.145L290.243 290.607C290.243 290.607 293.799 277.929 297.356 258.979Z" fill="#0A0A0A"/>
<path d="M257.86 458.469C257.86 458.469 255.329 471.583 243.048 472.316C230.768 473.049 233.431 482.831 233.431 482.831H280.362V459.383L257.86 458.469Z" fill="#12A2BD"/>
<path d="M248.53 221.789C248.53 221.789 245.238 336.935 245.639 342.508L250.382 465.974L284.074 466.534L286.723 336.884C286.723 336.884 287.126 301.119 295.768 267.908C300.189 250.863 302.849 233.41 303.708 215.822V215.822L248.53 221.789Z" fill="#262626"/>
<path d="M333.175 219.194L333.275 219.2C333.275 219.2 333.203 217.255 333.175 219.194Z" fill="#333333"/>
<path d="M269.148 121.107C269.249 121.094 270.358 139.503 291.744 137.898C306.549 136.788 311.831 121.08 312.167 121.08C310.571 120.744 307.883 120.248 307.174 119.87C304.842 118.617 301.522 117.314 300.77 112.786C300.338 110.177 301.072 96.8277 300.846 94.1875L278.556 99.2601C278.874 104.836 281.096 117.762 273.306 120.053C272.011 120.428 270.614 120.777 269.148 121.107Z" fill="#E98862"/>
<path d="M279.183 107.957C288.158 108.649 299.68 104.841 301.849 92.8645L303.806 82.058C305.975 70.0819 301.443 59.234 290.167 57.1917C278.891 55.1489 268.702 63.3314 266.535 75.3075L265.668 80.0914C265.399 81.7393 265.243 83.4035 265.2 85.0726C265.055 89.4833 264.852 96.1918 267.034 101.119C269.094 105.771 273.449 107.514 279.183 107.957Z" fill="#E98862"/>
<path d="M299.31 56.5776C295.748 55.4664 292.052 54.8375 288.322 54.708C288.2 54.0565 287.922 53.4442 287.512 52.9232C287.102 52.4021 286.573 51.9877 285.968 51.7152C283.997 50.9452 281.588 52.1854 279.986 54.5763C279.15 53.1466 277.842 52.0526 276.287 51.4821C271.872 50.1078 271.653 56.4493 271.653 56.4493C271.653 56.4493 264.654 49.5424 264.435 58.3514C264.171 69.0099 266.129 72.1383 267.557 72.9229C270.38 74.4815 272.481 74.2175 273.598 76.5098C276.98 83.4525 273.665 103.009 277.577 105.457C283.574 109.208 295.852 109.338 299.84 109.053C301.374 108.941 302.81 107.165 303.455 105.77C305.541 101.265 310.194 91.051 311.488 86.827C313.882 79.0351 313.703 61.2769 299.31 56.5776Z" fill="#0C0C0C"/>
<path d="M274.902 98.4736C278.364 98.0981 280.769 94.0892 280.394 90.6274C280.019 87.1655 277.005 85.5604 273.542 85.9365L272.01 88.45L271.927 98.7975L274.902 98.4736Z" fill="#E98862"/>
<path d="M244.189 158.494C244.825 165.966 247.919 212.582 248.53 221.785H332.806C333.282 213.485 335.419 177.188 337.225 160.955C338.948 145.466 342.329 137.711 339.851 133.132C335.801 125.648 324.735 121.323 317.189 120.301C312.581 119.678 305.651 119.23 305.651 119.23H273.201C270.119 119.23 252.148 120.681 248.176 123.74C241.231 129.091 242.84 142.661 244.189 158.494Z" fill="#12A2BD"/>
<path d="M243.025 149.134C242.954 149.134 242.885 149.107 242.833 149.058C242.781 149.009 242.749 148.941 242.745 148.87L242.065 137.005C242.061 136.931 242.086 136.858 242.136 136.803C242.185 136.747 242.255 136.714 242.329 136.709C242.403 136.706 242.475 136.732 242.53 136.781C242.586 136.83 242.62 136.899 242.625 136.973L243.305 148.838C243.307 148.875 243.302 148.911 243.289 148.946C243.277 148.981 243.258 149.013 243.234 149.041C243.209 149.068 243.18 149.09 243.147 149.106C243.113 149.122 243.077 149.132 243.041 149.134L243.025 149.134Z" fill="#0C0C0C"/>
<path d="M351.025 221.3C353.504 221.299 355.946 220.7 358.143 219.553C360.34 218.406 362.228 216.745 363.645 214.711C365.063 212.678 365.968 210.332 366.284 207.874C366.6 205.415 366.317 202.917 365.459 200.591C364.589 198.23 344.178 144.179 340.292 134.164L311.52 145.821C313.705 151.452 321.62 172.796 327.98 189.99L317.414 188.842L314.089 219.434L349.361 221.209C349.913 221.269 350.469 221.299 351.025 221.3V221.3Z" fill="#12A2BD"/>
<path d="M334.605 161.271L332.534 221.779L333.094 221.798L335.165 161.29L334.605 161.271Z" fill="#0C0C0C"/>
<path d="M182.598 96.734L157.083 107.988C156.531 108.231 155.904 108.245 155.341 108.027C154.778 107.809 154.325 107.376 154.081 106.823L144.631 85.3968L148.319 76.3984L169.507 67.053C169.78 66.9323 170.075 66.8667 170.374 66.86C170.673 66.8532 170.97 66.9054 171.249 67.0135C171.528 67.1217 171.782 67.2837 171.998 67.4902C172.214 67.6968 172.388 67.944 172.508 68.2176L183.762 93.7323C184.006 94.2848 184.02 94.9114 183.801 95.4743C183.583 96.0372 183.15 96.4903 182.598 96.734V96.734Z" fill="#0CBC8B"/>
<path opacity="0.29" d="M148.319 76.4004L144.631 85.3989L151.126 82.6633L148.319 76.4004Z" fill="#FFFFFA"/>
<g opacity="0.88">
<path d="M173.244 78.7763C173.222 78.7917 173.199 78.8049 173.174 78.8155L150.237 88.8273C150.143 88.8601 150.039 88.856 149.947 88.8158C149.855 88.7757 149.782 88.7023 149.741 88.6104C149.701 88.5185 149.697 88.4149 149.73 88.32C149.762 88.2252 149.83 88.1462 149.918 88.0987L172.855 78.0869C172.946 78.0482 173.047 78.0442 173.14 78.0758C173.234 78.1074 173.312 78.1723 173.36 78.2581C173.408 78.3439 173.423 78.4445 173.402 78.5405C173.38 78.6366 173.324 78.7213 173.244 78.7785V78.7763Z" fill="white"/>
<path d="M175.183 83.1144C175.162 83.1298 175.138 83.143 175.114 83.1536L152.177 93.1654C152.081 93.1999 151.977 93.197 151.884 93.1571C151.791 93.1172 151.716 93.0434 151.676 92.9506C151.635 92.8578 151.631 92.7531 151.665 92.6577C151.699 92.5622 151.768 92.4833 151.858 92.4368L174.794 82.425C174.885 82.3847 174.988 82.3796 175.082 82.4108C175.176 82.442 175.255 82.5073 175.304 82.5938C175.352 82.6803 175.367 82.7818 175.345 82.8785C175.322 82.9752 175.265 83.0601 175.183 83.1166V83.1144Z" fill="white"/>
<path d="M177.343 87.8839C177.321 87.8994 177.298 87.9125 177.273 87.9231L154.336 97.9349C154.241 97.9695 154.136 97.9665 154.043 97.9266C153.95 97.8867 153.876 97.8129 153.835 97.7201C153.794 97.6274 153.791 97.5226 153.824 97.4272C153.858 97.3318 153.927 97.2528 154.017 97.2063L176.954 87.1946C177.044 87.1542 177.147 87.1492 177.241 87.1804C177.335 87.2116 177.414 87.2768 177.463 87.3633C177.512 87.4498 177.526 87.5513 177.504 87.648C177.482 87.7447 177.424 87.8296 177.343 87.8862V87.8839Z" fill="white"/>
<path d="M166.558 97.7099C166.536 97.7251 166.512 97.7383 166.488 97.7491L156.314 102.189C156.219 102.222 156.115 102.218 156.023 102.178C155.931 102.138 155.858 102.065 155.818 101.973C155.777 101.881 155.773 101.777 155.806 101.682C155.839 101.587 155.906 101.508 155.994 101.461L166.169 97.0205C166.259 96.9818 166.361 96.9778 166.454 97.0094C166.547 97.041 166.625 97.1059 166.674 97.1917C166.722 97.2775 166.737 97.3781 166.715 97.4741C166.694 97.5702 166.638 97.6549 166.558 97.7121V97.7099Z" fill="white"/>
</g>
<path d="M161.51 94.7783C161.393 94.4695 161.215 94.1877 160.986 93.95C160.757 93.7123 160.483 93.5237 160.178 93.3958C159.874 93.2679 159.547 93.2033 159.217 93.206C158.887 93.2087 158.561 93.2785 158.259 93.4114C157.684 93.6888 157.235 94.1742 157.004 94.7695C156.773 95.3648 156.776 96.0257 157.013 96.6188L157.82 99.9646C157.991 100.672 157.897 101.418 157.556 102.061C157.215 102.704 156.65 103.2 155.968 103.456V103.456C155.3 103.706 154.564 103.708 153.894 103.462C153.224 103.216 152.665 102.737 152.318 102.113C152.318 102.113 147.286 91.4834 147.19 91.0508C146.365 91.8561 144.925 93.8373 144.63 95.3309C144.619 95.3387 146.087 107.268 146.907 108.109L155.421 121.24C158.901 124.806 170.584 118.873 170.584 118.873L161.51 94.7783Z" fill="#E98862"/>
<path d="M196.491 192.827C193.64 192.827 190.838 192.089 188.356 190.686C185.874 189.283 183.797 187.262 182.327 184.82L145.678 123.939L174.008 106.887L201.867 153.171L248.178 123.748L267.798 150.055L205.439 190.199C202.771 191.916 199.664 192.828 196.491 192.827V192.827Z" fill="#12A2BD"/>
<path d="M244.659 165.213C244.596 165.213 244.535 165.192 244.486 165.153C244.436 165.114 244.401 165.06 244.386 164.999C244.372 164.938 244.378 164.874 244.404 164.817C244.43 164.76 244.474 164.713 244.53 164.684L252.532 160.555C252.598 160.521 252.675 160.514 252.746 160.537C252.816 160.559 252.875 160.609 252.91 160.675C252.944 160.741 252.95 160.818 252.928 160.889C252.905 160.96 252.855 161.019 252.789 161.053L244.787 165.182C244.747 165.202 244.703 165.213 244.659 165.213V165.213Z" fill="#0C0C0C"/>
<path d="M268.732 120.979L272.705 114.769C272.879 114.496 273.119 114.272 273.402 114.117C273.685 113.962 274.003 113.881 274.326 113.881H304.272C304.542 113.881 304.808 113.938 305.055 114.047C305.301 114.157 305.522 114.318 305.702 114.518L311.519 120.979H268.732Z" fill="#12A2BD"/>
<path d="M37.4274 369.714L36.4597 369.82L48.4075 479.003L49.3752 478.897L37.4274 369.714Z" fill="#292A2E"/>
<path d="M68.3722 417.379L62.4944 475.527L63.4629 475.625L69.3407 417.477L68.3722 417.379Z" fill="#292A2E"/>
<path d="M78.4799 468.498H34.8662V482.652H78.4799V468.498Z" fill="#292A2E"/>
<path opacity="0.2" d="M78.4799 468.498H34.8662V482.652H78.4799V468.498Z" fill="white"/>
<path d="M104.773 442.437C113.035 431.456 109.096 414.552 95.9757 404.68C82.8552 394.808 65.5212 395.707 57.2591 406.688C48.997 417.669 52.9356 434.573 66.0562 444.445C79.1767 454.317 96.5107 453.418 104.773 442.437Z" fill="#0CBC8B"/>
<path opacity="0.2" d="M104.773 442.437C113.035 431.456 109.096 414.552 95.9757 404.68C82.8552 394.808 65.5212 395.707 57.2591 406.688C48.997 417.669 52.9356 434.573 66.0562 444.445C79.1767 454.317 96.5107 453.418 104.773 442.437Z" fill="white"/>
<path opacity="0.5" d="M104.771 442.439C104.216 443.18 103.611 443.881 102.959 444.539C93.8641 450.349 80.4398 449.435 69.7903 441.42C56.6709 431.55 52.7332 414.646 60.9964 403.665C61.5519 402.926 62.1557 402.225 62.8038 401.566C71.9032 395.751 85.323 396.67 95.977 404.68C109.096 414.554 113.034 431.459 104.771 442.439Z" fill="white"/>
<path d="M43.9051 400.777C56.9028 390.744 60.4355 373.537 51.7955 362.344C43.1556 351.151 25.6147 350.21 12.617 360.244C-0.380734 370.277 -3.9134 387.484 4.72656 398.677C13.3665 409.87 30.9073 410.81 43.9051 400.777Z" fill="#0CBC8B"/>
<path opacity="0.2" d="M39.7916 397.897C29.7255 405.672 16.9328 406.857 7.6597 401.796C6.58646 400.85 5.60625 399.805 4.7325 398.673C-3.91177 387.483 -0.379299 370.273 12.6179 360.243C22.6841 352.472 35.4767 351.283 44.7453 356.34C45.8207 357.285 46.8023 358.333 47.6765 359.467C56.3185 370.657 52.786 387.866 39.7916 397.897Z" fill="white"/>
</g>
<defs>
<clipPath id="clip0_606_1425">
<rect width="400" height="483.222" fill="white"/>
</clipPath>
</defs>
</svg>
