<svg width="650" height="381" viewBox="0 0 650 381" fill="none" xmlns="http://www.w3.org/2000/svg">
<g clip-path="url(#clip0_115_1823)">
<path d="M365.645 20.6183C246.248 -28.6224 103.045 56.0368 69.8993 125.87C-9.69019 293.554 129.397 370.945 190.584 342.637C216.127 330.819 236.993 310.639 257.158 291.005C286.982 261.968 328.01 244.743 369.623 243.786C402.021 243.041 434.265 251.736 466.573 249.182C498.881 246.629 527.417 202.074 526.541 169.679C525.203 120.234 493.678 73.4233 365.645 20.6183Z" fill="#F4F4F4"/>
<path d="M46.8348 238.492L45.624 238.624L60.5746 375.247L61.7853 375.114L46.8348 238.492Z" fill="#292A2E"/>
<path d="M85.5562 298.135L78.2012 370.898L79.413 371.02L86.768 298.258L85.5562 298.135Z" fill="#292A2E"/>
<path d="M98.2037 362.103H43.6289V379.814H98.2037V362.103Z" fill="#292A2E"/>
<path opacity="0.2" d="M98.2037 362.103H43.6289V379.814H98.2037V362.103Z" fill="white"/>
<path d="M131.104 329.493C141.443 315.752 136.514 294.599 120.096 282.246C103.677 269.893 81.9868 271.017 71.6485 284.758C61.3101 298.498 66.2389 319.651 82.6572 332.004C99.0755 344.358 120.766 343.233 131.104 329.493Z" fill="#0CBC8B"/>
<path opacity="0.2" d="M131.104 329.493C141.443 315.752 136.514 294.599 120.096 282.246C103.677 269.893 81.9868 271.017 71.6485 284.758C61.3101 298.498 66.2389 319.651 82.6572 332.004C99.0755 344.358 120.766 343.233 131.104 329.493Z" fill="white"/>
<path opacity="0.5" d="M131.102 329.494C130.408 330.421 129.651 331.299 128.835 332.121C117.454 339.391 100.657 338.247 87.3303 328.218C70.9139 315.868 65.9866 294.715 76.326 280.975C77.0216 280.05 77.7774 279.173 78.5884 278.347C89.9764 271.071 106.767 272.221 120.098 282.245C136.514 294.601 141.442 315.753 131.102 329.494Z" fill="white"/>
<path d="M54.9409 277.359C71.2055 264.804 75.6262 243.272 64.8147 229.266C54.0032 215.26 32.0537 214.083 15.789 226.638C-0.47557 239.193 -4.8962 260.725 5.91529 274.731C16.7268 288.737 38.6763 289.913 54.9409 277.359Z" fill="#0CBC8B"/>
<path opacity="0.2" d="M49.7881 273.758C37.1924 283.487 21.1847 284.97 9.58107 278.637C8.23835 277.454 7.01176 276.145 5.91802 274.728C-4.89511 260.727 -0.475102 239.192 15.7884 226.64C28.3847 216.917 44.3925 215.428 55.9906 221.756C57.3366 222.939 58.565 224.25 59.6585 225.67C70.4722 239.672 66.0522 261.206 49.7881 273.758Z" fill="white"/>
<path d="M433.904 16.2249H110.69C99.9718 16.2249 91.2832 24.9134 91.2832 35.6314V289.982C91.2832 300.7 99.9718 309.389 110.69 309.389H433.904C444.622 309.389 453.311 300.7 453.311 289.982V35.6314C453.311 24.9134 444.622 16.2249 433.904 16.2249Z" fill="white"/>
<path d="M433.905 309.998H110.69C105.384 309.992 100.296 307.881 96.5435 304.129C92.791 300.376 90.6803 295.289 90.6743 289.982V35.6315C90.6796 30.3246 92.7902 25.2365 96.5428 21.484C100.295 17.7315 105.384 15.6211 110.69 15.616H433.905C439.212 15.6213 444.3 17.7318 448.052 21.4842C451.805 25.2367 453.915 30.3247 453.92 35.6315V289.982C453.915 295.289 451.805 300.377 448.052 304.129C444.3 307.882 439.212 309.993 433.905 309.998ZM110.69 16.8339C105.707 16.8391 100.928 18.8212 97.404 22.3453C93.8798 25.8694 91.8976 30.6476 91.8923 35.6315V289.982C91.8974 294.966 93.8796 299.744 97.4038 303.268C100.928 306.793 105.706 308.775 110.69 308.78H433.905C438.889 308.775 443.667 306.792 447.191 303.268C450.715 299.744 452.697 294.966 452.702 289.982V35.6315C452.697 30.6477 450.715 25.8695 447.191 22.3455C443.667 18.8214 438.889 16.8393 433.905 16.8339H110.69Z" fill="#292A2E"/>
<path opacity="0.7" d="M424.938 68.9277H405.092C400.909 68.9277 397.518 72.3187 397.518 76.5017V96.3479C397.518 100.531 400.909 103.922 405.092 103.922H424.938C429.121 103.922 432.512 100.531 432.512 96.3479V76.5017C432.512 72.3187 429.121 68.9277 424.938 68.9277Z" fill="#0E4770"/>
<path opacity="0.7" d="M424.862 112.436H405.168C400.943 112.436 397.518 115.861 397.518 120.086V139.78C397.518 144.005 400.943 147.43 405.168 147.43H424.862C429.087 147.43 432.512 144.005 432.512 139.78V120.086C432.512 115.861 429.087 112.436 424.862 112.436Z" fill="#0E4770"/>
<path opacity="0.7" d="M424.862 161.666H405.168C400.943 161.666 397.518 165.091 397.518 169.316V189.01C397.518 193.235 400.943 196.66 405.168 196.66H424.862C429.087 196.66 432.512 193.235 432.512 189.01V169.316C432.512 165.091 429.087 161.666 424.862 161.666Z" fill="#0E4770"/>
<path opacity="0.7" d="M424.862 209.068H405.168C400.943 209.068 397.518 212.493 397.518 216.718V236.412C397.518 240.637 400.943 244.062 405.168 244.062H424.862C429.087 244.062 432.512 240.637 432.512 236.412V216.718C432.512 212.493 429.087 209.068 424.862 209.068Z" fill="#0E4770"/>
<g opacity="0.2">
<path d="M282.242 68.9277H262.396C258.213 68.9277 254.822 72.3187 254.822 76.5017V96.3479C254.822 100.531 258.213 103.922 262.396 103.922H282.242C286.425 103.922 289.816 100.531 289.816 96.3479V76.5017C289.816 72.3187 286.425 68.9277 282.242 68.9277Z" fill="#0E4770"/>
<path d="M234.677 68.9277H214.831C210.648 68.9277 207.257 72.3187 207.257 76.5017V96.3479C207.257 100.531 210.648 103.922 214.831 103.922H234.677C238.86 103.922 242.251 100.531 242.251 96.3479V76.5017C242.251 72.3187 238.86 68.9277 234.677 68.9277Z" fill="#0E4770"/>
<path d="M329.807 68.9277H309.961C305.778 68.9277 302.387 72.3187 302.387 76.5017V96.3479C302.387 100.531 305.778 103.922 309.961 103.922H329.807C333.99 103.922 337.381 100.531 337.381 96.3479V76.5017C337.381 72.3187 333.99 68.9277 329.807 68.9277Z" fill="#0E4770"/>
<path d="M377.373 68.9277H357.527C353.344 68.9277 349.953 72.3187 349.953 76.5017V96.3479C349.953 100.531 353.344 103.922 357.527 103.922H377.373C381.556 103.922 384.947 100.531 384.947 96.3479V76.5017C384.947 72.3187 381.556 68.9277 377.373 68.9277Z" fill="#0E4770"/>
<path d="M282.166 112.436H262.472C258.247 112.436 254.822 115.861 254.822 120.086V139.78C254.822 144.005 258.247 147.43 262.472 147.43H282.166C286.391 147.43 289.816 144.005 289.816 139.78V120.086C289.816 115.861 286.391 112.436 282.166 112.436Z" fill="#0E4770"/>
<path d="M329.731 112.436H310.037C305.812 112.436 302.387 115.861 302.387 120.086V139.78C302.387 144.005 305.812 147.43 310.037 147.43H329.731C333.956 147.43 337.381 144.005 337.381 139.78V120.086C337.381 115.861 333.956 112.436 329.731 112.436Z" fill="#0E4770"/>
<path d="M377.297 112.436H357.603C353.378 112.436 349.953 115.861 349.953 120.086V139.78C349.953 144.005 353.378 147.43 357.603 147.43H377.297C381.522 147.43 384.947 144.005 384.947 139.78V120.086C384.947 115.861 381.522 112.436 377.297 112.436Z" fill="#0E4770"/>
<path d="M139.471 112.436H119.777C115.552 112.436 112.127 115.861 112.127 120.086V139.78C112.127 144.005 115.552 147.43 119.777 147.43H139.471C143.696 147.43 147.121 144.005 147.121 139.78V120.086C147.121 115.861 143.696 112.436 139.471 112.436Z" fill="#0E4770"/>
<path d="M187.036 112.436H167.342C163.117 112.436 159.692 115.861 159.692 120.086V139.78C159.692 144.005 163.117 147.43 167.342 147.43H187.036C191.261 147.43 194.686 144.005 194.686 139.78V120.086C194.686 115.861 191.261 112.436 187.036 112.436Z" fill="#0E4770"/>
<path d="M234.601 112.436H214.907C210.682 112.436 207.257 115.861 207.257 120.086V139.78C207.257 144.005 210.682 147.43 214.907 147.43H234.601C238.826 147.43 242.251 144.005 242.251 139.78V120.086C242.251 115.861 238.826 112.436 234.601 112.436Z" fill="#0E4770"/>
<path d="M282.166 161.666H262.472C258.247 161.666 254.822 165.091 254.822 169.316V189.01C254.822 193.235 258.247 196.66 262.472 196.66H282.166C286.391 196.66 289.816 193.235 289.816 189.01V169.316C289.816 165.091 286.391 161.666 282.166 161.666Z" fill="#0E4770"/>
<path d="M329.731 161.666H310.037C305.812 161.666 302.387 165.091 302.387 169.316V189.01C302.387 193.235 305.812 196.66 310.037 196.66H329.731C333.956 196.66 337.381 193.235 337.381 189.01V169.316C337.381 165.091 333.956 161.666 329.731 161.666Z" fill="#0E4770"/>
<path d="M377.297 161.666H357.603C353.378 161.666 349.953 165.091 349.953 169.316V189.01C349.953 193.235 353.378 196.66 357.603 196.66H377.297C381.522 196.66 384.947 193.235 384.947 189.01V169.316C384.947 165.091 381.522 161.666 377.297 161.666Z" fill="#0E4770"/>
<path d="M139.471 161.666H119.777C115.552 161.666 112.127 165.091 112.127 169.316V189.01C112.127 193.235 115.552 196.66 119.777 196.66H139.471C143.696 196.66 147.121 193.235 147.121 189.01V169.316C147.121 165.091 143.696 161.666 139.471 161.666Z" fill="#0E4770"/>
<path d="M187.036 161.666H167.342C163.117 161.666 159.692 165.091 159.692 169.316V189.01C159.692 193.235 163.117 196.66 167.342 196.66H187.036C191.261 196.66 194.686 193.235 194.686 189.01V169.316C194.686 165.091 191.261 161.666 187.036 161.666Z" fill="#0E4770"/>
<path d="M234.601 161.666H214.907C210.682 161.666 207.257 165.091 207.257 169.316V189.01C207.257 193.235 210.682 196.66 214.907 196.66H234.601C238.826 196.66 242.251 193.235 242.251 189.01V169.316C242.251 165.091 238.826 161.666 234.601 161.666Z" fill="#0E4770"/>
<path d="M282.166 209.068H262.472C258.247 209.068 254.822 212.493 254.822 216.718V236.412C254.822 240.637 258.247 244.062 262.472 244.062H282.166C286.391 244.062 289.816 240.637 289.816 236.412V216.718C289.816 212.493 286.391 209.068 282.166 209.068Z" fill="#0E4770"/>
<path d="M329.731 209.068H310.037C305.812 209.068 302.387 212.493 302.387 216.718V236.412C302.387 240.637 305.812 244.062 310.037 244.062H329.731C333.956 244.062 337.381 240.637 337.381 236.412V216.718C337.381 212.493 333.956 209.068 329.731 209.068Z" fill="#0E4770"/>
<path d="M377.297 209.068H357.603C353.378 209.068 349.953 212.493 349.953 216.718V236.412C349.953 240.637 353.378 244.062 357.603 244.062H377.297C381.522 244.062 384.947 240.637 384.947 236.412V216.718C384.947 212.493 381.522 209.068 377.297 209.068Z" fill="#0E4770"/>
<path d="M139.471 209.068H119.777C115.552 209.068 112.127 212.493 112.127 216.718V236.412C112.127 240.637 115.552 244.062 119.777 244.062H139.471C143.696 244.062 147.121 240.637 147.121 236.412V216.718C147.121 212.493 143.696 209.068 139.471 209.068Z" fill="#0E4770"/>
<path d="M187.036 209.068H167.342C163.117 209.068 159.692 212.493 159.692 216.718V236.412C159.692 240.637 163.117 244.062 167.342 244.062H187.036C191.261 244.062 194.686 240.637 194.686 236.412V216.718C194.686 212.493 191.261 209.068 187.036 209.068Z" fill="#0E4770"/>
<path d="M234.601 209.068H214.907C210.682 209.068 207.257 212.493 207.257 216.718V236.412C207.257 240.637 210.682 244.062 214.907 244.062H234.601C238.826 244.062 242.251 240.637 242.251 236.412V216.718C242.251 212.493 238.826 209.068 234.601 209.068Z" fill="#0E4770"/>
<path d="M282.166 252.696H262.472C258.247 252.696 254.822 256.121 254.822 260.346V280.04C254.822 284.265 258.247 287.69 262.472 287.69H282.166C286.391 287.69 289.816 284.265 289.816 280.04V260.346C289.816 256.121 286.391 252.696 282.166 252.696Z" fill="#0E4770"/>
<path d="M139.471 252.696H119.777C115.552 252.696 112.127 256.121 112.127 260.346V280.04C112.127 284.265 115.552 287.69 119.777 287.69H139.471C143.696 287.69 147.121 284.265 147.121 280.04V260.346C147.121 256.121 143.696 252.696 139.471 252.696Z" fill="#0E4770"/>
<path d="M187.036 252.696H167.342C163.117 252.696 159.692 256.121 159.692 260.346V280.04C159.692 284.265 163.117 287.69 167.342 287.69H187.036C191.261 287.69 194.686 284.265 194.686 280.04V260.346C194.686 256.121 191.261 252.696 187.036 252.696Z" fill="#0E4770"/>
<path d="M234.601 252.696H214.907C210.682 252.696 207.257 256.121 207.257 260.346V280.04C207.257 284.265 210.682 287.69 214.907 287.69H234.601C238.826 287.69 242.251 284.265 242.251 280.04V260.346C242.251 256.121 238.826 252.696 234.601 252.696Z" fill="#0E4770"/>
</g>
<path d="M453.311 35.6334V48.0744H91.2871V35.6334C91.2864 33.0846 91.7878 30.5607 92.7627 28.2057C93.7376 25.8507 95.1668 23.7108 96.9689 21.9083C98.7709 20.1057 100.91 18.6759 103.265 17.7003C105.62 16.7248 108.144 16.2227 110.692 16.2227H433.906C439.053 16.2236 443.99 18.2692 447.629 21.9094C451.268 25.5496 453.312 30.4862 453.311 35.6334Z" fill="#292A2E"/>
<path d="M157.03 15.6161C157.03 12.5275 157.946 9.50827 159.662 6.94015C161.377 4.37202 163.816 2.37036 166.67 1.18828C169.523 0.00619599 172.663 -0.303215 175.692 0.299172C178.721 0.901559 181.504 2.38869 183.688 4.57251C185.872 6.75633 187.36 9.53875 187.962 12.5679C188.565 15.5971 188.256 18.737 187.074 21.5905C185.893 24.4441 183.891 26.8831 181.323 28.5992C178.755 30.3153 175.736 31.2314 172.648 31.2317C172.298 31.2317 171.962 31.0927 171.715 30.8453C171.468 30.598 171.329 30.2624 171.329 29.9126C171.329 29.5628 171.468 29.2273 171.715 28.9799C171.962 28.7325 172.298 28.5935 172.648 28.5935C175.215 28.5935 177.724 27.8324 179.858 26.4063C181.992 24.9802 183.656 22.9533 184.638 20.5818C185.62 18.2104 185.877 15.6009 185.376 13.0834C184.876 10.5658 183.639 8.25336 181.824 6.43837C180.009 4.62338 177.697 3.38739 175.179 2.88669C172.662 2.386 170.052 2.6431 167.681 3.62547C165.309 4.60784 163.282 6.27137 161.857 8.40568C160.431 10.54 159.669 13.0492 159.67 15.6161" fill="#E5E5E5"/>
<path d="M236.751 15.6161C236.751 12.5275 237.667 9.50817 239.382 6.94002C241.098 4.37187 243.537 2.37021 246.391 1.18816C249.244 0.00611526 252.384 -0.303224 255.413 0.299261C258.443 0.901747 261.225 2.389 263.409 4.57294C265.593 6.75688 267.081 9.53942 267.683 12.5687C268.286 15.5979 267.977 18.7379 266.795 21.5914C265.613 24.4449 263.611 26.8839 261.043 28.5998C258.475 30.3158 255.456 31.2317 252.367 31.2317C252.017 31.2317 251.682 31.0927 251.434 30.8453C251.187 30.598 251.048 30.2624 251.048 29.9126C251.048 29.5628 251.187 29.2273 251.434 28.9799C251.682 28.7325 252.017 28.5935 252.367 28.5935C254.934 28.5942 257.444 27.8335 259.578 26.4078C261.713 24.9821 263.377 22.9554 264.36 20.5839C265.342 18.2125 265.6 15.6029 265.099 13.0852C264.599 10.5675 263.363 8.25475 261.548 6.43945C259.733 4.62415 257.42 3.38786 254.903 2.88692C252.385 2.38598 249.776 2.64289 247.404 3.62518C245.032 4.60746 243.005 6.27099 241.579 8.40537C240.153 10.5397 239.392 13.0491 239.392 15.6161" fill="#E5E5E5"/>
<path d="M316.473 15.6161C316.473 12.5275 317.388 9.50817 319.104 6.94002C320.82 4.37187 323.259 2.37021 326.112 1.18816C328.966 0.00611526 332.106 -0.303224 335.135 0.299261C338.164 0.901747 340.947 2.389 343.131 4.57294C345.315 6.75688 346.802 9.53942 347.405 12.5687C348.008 15.5979 347.698 18.7379 346.516 21.5914C345.334 24.4449 343.333 26.8839 340.765 28.5998C338.197 30.3158 335.177 31.2317 332.089 31.2317C331.739 31.2317 331.403 31.0927 331.156 30.8453C330.909 30.598 330.77 30.2624 330.77 29.9126C330.77 29.5628 330.909 29.2273 331.156 28.9799C331.403 28.7325 331.739 28.5935 332.089 28.5935C334.656 28.5931 337.165 27.8315 339.298 26.4051C341.432 24.9788 343.095 22.9517 344.077 20.5801C345.059 18.2086 345.316 15.5992 344.815 13.0819C344.314 10.5645 343.077 8.25226 341.262 6.43751C339.447 4.62276 337.135 3.38701 334.617 2.88651C332.1 2.38602 329.49 2.64326 327.119 3.6257C324.748 4.60815 322.721 6.27168 321.295 8.40594C319.869 10.5402 319.108 13.0493 319.108 15.6161" fill="#E5E5E5"/>
<path d="M356.333 15.6161C356.333 12.5275 357.249 9.50817 358.965 6.94002C360.68 4.37187 363.119 2.37021 365.973 1.18816C368.826 0.00611526 371.966 -0.303224 374.995 0.299261C378.025 0.901747 380.807 2.389 382.991 4.57294C385.175 6.75688 386.663 9.53942 387.265 12.5687C387.868 15.5979 387.559 18.7379 386.377 21.5914C385.195 24.4449 383.193 26.8839 380.625 28.5998C378.057 30.3158 375.038 31.2317 371.949 31.2317C371.599 31.2317 371.264 31.0927 371.017 30.8453C370.769 30.598 370.63 30.2624 370.63 29.9126C370.63 29.5628 370.769 29.2273 371.017 28.9799C371.264 28.7325 371.599 28.5935 371.949 28.5935C374.516 28.5935 377.025 27.8324 379.16 26.4063C381.294 24.9802 382.957 22.9533 383.939 20.5818C384.922 18.2104 385.179 15.6009 384.678 13.0834C384.177 10.5658 382.941 8.25336 381.126 6.43837C379.311 4.62338 376.998 3.38739 374.481 2.88669C371.963 2.386 369.354 2.6431 366.982 3.62547C364.611 4.60784 362.584 6.27137 361.158 8.40568C359.732 10.54 358.971 13.0492 358.971 15.6161" fill="#E5E5E5"/>
<path d="M117.169 15.6161C117.169 12.5275 118.085 9.50817 119.8 6.94002C121.516 4.37187 123.955 2.37021 126.809 1.18816C129.662 0.00611526 132.802 -0.303224 135.831 0.299261C138.861 0.901747 141.643 2.389 143.827 4.57294C146.011 6.75688 147.499 9.53942 148.101 12.5687C148.704 15.5979 148.395 18.7379 147.213 21.5914C146.031 24.4449 144.029 26.8839 141.461 28.5998C138.893 30.3158 135.874 31.2317 132.785 31.2317C132.435 31.2317 132.1 31.0927 131.852 30.8453C131.605 30.598 131.466 30.2624 131.466 29.9126C131.466 29.5628 131.605 29.2273 131.852 28.9799C132.1 28.7325 132.435 28.5935 132.785 28.5935C135.352 28.5935 137.861 27.8324 139.995 26.4063C142.13 24.9802 143.793 22.9533 144.775 20.5818C145.758 18.2104 146.015 15.6009 145.514 13.0834C145.013 10.5658 143.777 8.25336 141.962 6.43837C140.147 4.62338 137.834 3.38739 135.317 2.88669C132.799 2.386 130.19 2.6431 127.818 3.62547C125.447 4.60784 123.42 6.27137 121.994 8.40568C120.568 10.54 119.807 13.0492 119.807 15.6161" fill="#E5E5E5"/>
<path d="M196.891 15.6161C196.891 12.5275 197.806 9.50817 199.522 6.94002C201.238 4.37187 203.677 2.37021 206.53 1.18816C209.384 0.00611526 212.524 -0.303224 215.553 0.299261C218.582 0.901747 221.365 2.389 223.549 4.57294C225.733 6.75688 227.22 9.53942 227.823 12.5687C228.426 15.5979 228.116 18.7379 226.934 21.5914C225.752 24.4449 223.751 26.8839 221.183 28.5998C218.615 30.3158 215.595 31.2317 212.507 31.2317C212.157 31.2317 211.821 31.0927 211.574 30.8453C211.327 30.598 211.188 30.2624 211.188 29.9126C211.188 29.5628 211.327 29.2273 211.574 28.9799C211.821 28.7325 212.157 28.5935 212.507 28.5935C215.074 28.5935 217.583 27.8324 219.717 26.4063C221.851 24.9802 223.515 22.9533 224.497 20.5818C225.479 18.2104 225.736 15.6009 225.236 13.0834C224.735 10.5658 223.499 8.25336 221.684 6.43837C219.868 4.62338 217.556 3.38739 215.038 2.88669C212.521 2.386 209.911 2.6431 207.54 3.62547C205.168 4.60784 203.142 6.27137 201.716 8.40568C200.29 10.54 199.529 13.0492 199.529 15.6161" fill="#E5E5E5"/>
<path d="M276.612 15.6161C276.612 12.5274 277.528 9.50812 279.244 6.93996C280.96 4.37179 283.399 2.37013 286.252 1.1881C289.106 0.00607482 292.246 -0.303229 295.275 0.299306C298.304 0.901841 301.087 2.38915 303.271 4.57315C305.455 6.75715 306.942 9.53975 307.545 12.5691C308.147 15.5984 307.838 18.7383 306.656 21.5918C305.474 24.4453 303.472 26.8842 300.904 28.6001C298.336 30.316 295.317 31.2318 292.228 31.2317C291.878 31.2317 291.543 31.0927 291.295 30.8453C291.048 30.598 290.909 30.2624 290.909 29.9126C290.909 29.5628 291.048 29.2273 291.295 28.9799C291.543 28.7325 291.878 28.5935 292.228 28.5935C294.795 28.5935 297.304 27.8324 299.438 26.4063C301.572 24.9802 303.236 22.9533 304.218 20.5818C305.2 18.2104 305.457 15.6009 304.957 13.0834C304.456 10.5658 303.22 8.25336 301.405 6.43837C299.59 4.62338 297.277 3.38739 294.759 2.88669C292.242 2.386 289.632 2.6431 287.261 3.62547C284.89 4.60784 282.863 6.27137 281.437 8.40568C280.011 10.54 279.25 13.0492 279.25 15.6161" fill="#E5E5E5"/>
<path d="M396.194 15.6161C396.194 12.5274 397.11 9.50812 398.826 6.93996C400.542 4.37179 402.981 2.37013 405.834 1.1881C408.688 0.00607482 411.828 -0.303229 414.857 0.299306C417.886 0.901841 420.669 2.38915 422.853 4.57315C425.037 6.75715 426.524 9.53975 427.127 12.5691C427.729 15.5984 427.42 18.7383 426.238 21.5918C425.056 24.4453 423.054 26.8842 420.486 28.6001C417.918 30.316 414.899 31.2318 411.81 31.2317C411.46 31.2317 411.125 31.0927 410.877 30.8453C410.63 30.598 410.491 30.2624 410.491 29.9126C410.491 29.5628 410.63 29.2273 410.877 28.9799C411.125 28.7325 411.46 28.5935 411.81 28.5935C414.377 28.5937 416.886 27.8326 419.02 26.4066C421.155 24.9806 422.818 22.9537 423.801 20.5823C424.783 18.2108 425.04 15.6013 424.539 13.0837C424.039 10.5662 422.802 8.25364 420.987 6.43859C419.172 4.62353 416.86 3.38748 414.342 2.88674C411.825 2.38599 409.215 2.64306 406.844 3.62541C404.472 4.60777 402.445 6.27129 401.019 8.40562C399.593 10.5399 398.832 13.0492 398.832 15.6161" fill="#E5E5E5"/>
<path d="M170.353 236.187C170.297 236.187 170.242 236.187 170.186 236.179C169.931 236.156 169.683 236.08 169.458 235.956C169.234 235.831 169.038 235.662 168.883 235.458L163.309 228.126C163.162 227.933 163.055 227.713 162.993 227.478C162.931 227.244 162.916 226.999 162.949 226.759C162.982 226.519 163.062 226.287 163.184 226.078C163.306 225.868 163.468 225.685 163.661 225.538C163.854 225.391 164.074 225.284 164.309 225.222C164.543 225.161 164.788 225.146 165.028 225.179C165.268 225.211 165.5 225.291 165.709 225.413C165.919 225.535 166.102 225.698 166.249 225.891L170.6 231.615L187.3 216.372C187.662 216.042 188.14 215.869 188.629 215.892C189.118 215.914 189.579 216.13 189.909 216.491C190.239 216.853 190.412 217.331 190.39 217.82C190.367 218.309 190.151 218.77 189.79 219.1L171.598 235.705C171.257 236.015 170.813 236.187 170.353 236.187Z" fill="#0E4770"/>
<path d="M234.16 256.567H215.349C213.018 256.567 211.128 258.457 211.128 260.788V279.598C211.128 281.929 213.018 283.819 215.349 283.819H234.16C236.491 283.819 238.38 281.929 238.38 279.598V260.788C238.38 258.457 236.491 256.567 234.16 256.567Z" fill="#0E4770"/>
<path d="M356.652 99.1377C356.29 99.1374 355.936 99.0308 355.634 98.8311C355.332 98.6313 355.096 98.3473 354.954 98.0143C354.812 97.6813 354.771 97.314 354.836 96.958C354.902 96.6019 355.07 96.2729 355.321 96.0118L376.779 73.6785C376.946 73.4992 377.147 73.3549 377.37 73.254C377.593 73.1531 377.834 73.0977 378.079 73.0908C378.324 73.084 378.568 73.1259 378.796 73.2141C379.025 73.3024 379.233 73.4352 379.41 73.6048C379.586 73.7745 379.728 73.9776 379.825 74.2023C379.922 74.427 379.974 74.6688 379.977 74.9137C379.98 75.1586 379.934 75.4016 379.843 75.6287C379.751 75.8557 379.615 76.0622 379.442 76.2362L357.984 98.5701C357.812 98.7499 357.605 98.8929 357.376 98.9904C357.147 99.088 356.901 99.1381 356.652 99.1377Z" fill="#0A0A0A"/>
<path d="M378.548 98.7012C378.071 98.7017 377.613 98.517 377.269 98.1861L354.936 76.726C354.757 76.5592 354.612 76.3583 354.512 76.1351C354.411 75.912 354.355 75.671 354.348 75.4262C354.342 75.1814 354.383 74.9376 354.472 74.7092C354.56 74.4807 354.693 74.2721 354.862 74.0955C355.032 73.9189 355.235 73.7777 355.46 73.6804C355.685 73.583 355.926 73.5312 356.171 73.5282C356.416 73.5252 356.659 73.5709 356.886 73.6627C357.113 73.7545 357.32 73.8906 357.494 74.0629L379.827 95.523C380.092 95.7782 380.275 96.107 380.353 96.4671C380.43 96.8271 380.398 97.2021 380.26 97.5437C380.123 97.8853 379.886 98.1781 379.581 98.3843C379.276 98.5906 378.916 98.7009 378.548 98.7012Z" fill="#0A0A0A"/>
<path d="M578.507 129.686C578.507 129.686 580.162 149.279 584.701 156.317C597.768 176.579 601.858 199.563 589.349 211.829C576.839 224.095 495.692 225.703 489.054 198.115C483.465 174.889 494.527 172.186 496.889 152.903C497.958 144.177 500.998 125.867 500.998 125.867" fill="#0A0A0A"/>
<path d="M509.267 193.389C509.407 193.37 510.961 219.167 540.93 216.918C561.677 215.364 569.074 193.35 569.552 193.35C567.316 192.875 563.549 192.184 562.556 191.654C559.289 189.898 555.248 188.072 554.193 181.727C553.584 178.073 554.616 159.364 554.299 155.663L522.448 162.774C522.893 170.588 526.008 188.702 515.092 191.908C513.277 192.439 511.321 192.926 509.267 193.389Z" fill="#E98862"/>
<path opacity="0.5" d="M522.003 184.505C522.502 182.897 522.823 181.24 522.961 179.562C523.311 175.734 523.241 171.879 522.753 168.067C529.225 167.193 535.323 164.521 540.353 160.355C540.944 162.539 544.197 172.082 543.296 174.157C541.595 178.081 533.597 184.505 522.003 184.505Z" fill="#0C0C0C"/>
<path d="M526.539 176.465C539.114 177.457 555.268 172.148 558.337 155.37L561.105 140.231C564.174 123.454 557.849 108.242 542.052 105.353C526.255 102.463 511.961 113.905 508.892 130.683L507.666 137.381C506.489 143.822 504.102 174.695 526.539 176.465Z" fill="#E98862"/>
<path opacity="0.5" d="M521.405 153.26L521.374 153.256C520.734 153.134 520.102 152.977 519.479 152.785C518.549 152.492 517.331 152.006 517.484 151.167C517.659 150.212 522.164 140.376 522.677 139.257C522.724 139.162 522.805 139.089 522.905 139.053C523.005 139.018 523.115 139.022 523.211 139.067C523.307 139.111 523.382 139.191 523.42 139.29C523.458 139.389 523.456 139.498 523.414 139.596C521.492 143.784 518.399 150.67 518.282 151.313C518.388 151.61 519.932 152.166 521.52 152.458C521.622 152.478 521.713 152.536 521.774 152.621C521.834 152.706 521.86 152.811 521.845 152.914C521.83 153.017 521.776 153.111 521.694 153.175C521.612 153.24 521.509 153.27 521.405 153.26Z" fill="#0C0C0C"/>
<path opacity="0.5" d="M523.788 160.481C521.212 160.162 518.747 159.243 516.591 157.798C516.511 157.736 516.458 157.646 516.441 157.546C516.424 157.446 516.445 157.344 516.499 157.259C516.554 157.173 516.639 157.112 516.736 157.086C516.834 157.06 516.938 157.071 517.028 157.118C521.692 160.116 526.31 160.577 530.384 158.452C530.466 158.407 530.551 158.366 530.638 158.33C530.737 158.298 530.846 158.305 530.94 158.351C531.034 158.397 531.107 158.477 531.144 158.576C531.18 158.674 531.176 158.783 531.134 158.879C531.092 158.975 531.015 159.051 530.918 159.091C530.885 159.104 530.832 159.133 530.759 159.172C528.617 160.292 526.19 160.748 523.788 160.481Z" fill="#0C0C0C"/>
<path d="M573.76 145.426L559.6 142.919C548.861 138.651 545.508 120.127 545.508 120.127C545.508 120.127 532.574 132.888 500.998 125.869C500.998 125.869 507.05 81.8562 553.712 94.3562C568.758 98.3871 579.632 113.457 578.414 133.697C577.561 147.877 573.76 145.426 573.76 145.426Z" fill="#0A0A0A"/>
<path d="M556.421 160.302C561.221 161.18 566.052 156.756 566.93 151.955C567.807 147.155 564.401 143.795 559.6 142.917L556.538 145.682L552.293 159.547L556.421 160.302Z" fill="#E98862"/>
<path d="M519.147 131.541C517.935 130.716 516.526 130.226 515.064 130.123C514.329 130.065 513.59 130.119 512.871 130.283C512.147 130.444 511.445 130.695 510.783 131.031L510.762 131.041C510.688 131.078 510.603 131.083 510.525 131.057C510.447 131.03 510.383 130.974 510.347 130.9C510.31 130.826 510.305 130.741 510.332 130.663C510.358 130.585 510.414 130.521 510.488 130.485C511.189 130.099 511.936 129.802 512.712 129.603C513.492 129.398 514.299 129.312 515.105 129.348C516.738 129.409 518.325 129.908 519.699 130.792C519.802 130.859 519.875 130.965 519.9 131.086C519.925 131.207 519.901 131.333 519.834 131.436C519.766 131.539 519.66 131.612 519.54 131.637C519.419 131.662 519.293 131.638 519.189 131.571L519.179 131.563L519.147 131.541Z" fill="#0C0C0C"/>
<path d="M532.07 133.095C533.667 132.747 535.329 132.835 536.881 133.349C537.648 133.598 538.374 133.961 539.034 134.425C539.691 134.883 540.287 135.422 540.808 136.029C540.863 136.089 540.893 136.168 540.89 136.25C540.887 136.331 540.853 136.408 540.793 136.464C540.734 136.52 540.655 136.551 540.574 136.549C540.493 136.547 540.415 136.514 540.358 136.455L540.341 136.438C539.839 135.892 539.27 135.411 538.647 135.007C538.031 134.602 537.357 134.293 536.649 134.089C535.242 133.675 533.75 133.641 532.325 133.99L532.29 133.999C532.23 134.016 532.168 134.021 532.106 134.014C532.045 134.007 531.985 133.987 531.931 133.956C531.877 133.926 531.83 133.884 531.792 133.835C531.755 133.786 531.727 133.73 531.711 133.67C531.696 133.61 531.692 133.547 531.701 133.486C531.71 133.424 531.731 133.365 531.763 133.312C531.795 133.259 531.837 133.213 531.887 133.176C531.937 133.14 531.994 133.114 532.055 133.099L532.07 133.095Z" fill="#0C0C0C"/>
<path opacity="0.52" d="M523.262 164.289C522.796 164.239 522.334 164.149 521.883 164.02C521.78 163.991 521.692 163.922 521.639 163.829C521.587 163.735 521.573 163.624 521.603 163.521C521.632 163.417 521.701 163.33 521.794 163.277C521.888 163.224 521.999 163.211 522.102 163.24C524.819 164.004 526.355 162.961 526.419 162.916C526.507 162.858 526.614 162.837 526.717 162.856C526.82 162.876 526.911 162.935 526.972 163.02C527.033 163.106 527.058 163.211 527.043 163.315C527.027 163.419 526.972 163.512 526.889 163.576C525.799 164.226 524.517 164.477 523.262 164.289Z" fill="#0C0C0C"/>
<path d="M559.586 142.685C550.038 139.323 546.774 132.827 545.718 127.97C545.033 124.729 545.033 121.382 545.718 118.142L546.013 118.217C545.34 121.415 545.342 124.719 546.019 127.916C547.061 132.694 550.279 139.085 559.689 142.398L559.586 142.685Z" fill="#0C0C0C"/>
<path opacity="0.1" d="M538.159 152.046C538.313 150.528 536.76 149.127 534.689 148.917C532.619 148.707 530.816 149.768 530.662 151.286C530.508 152.805 532.062 154.206 534.132 154.416C536.202 154.626 538.005 153.565 538.159 152.046Z" fill="#0C0C0C"/>
<path opacity="0.1" d="M512.193 148.745C512.035 150.261 510.232 151.321 508.162 151.114C507.804 151.077 507.451 151.004 507.108 150.894C506.98 149.092 506.944 147.356 506.968 145.748C507.539 145.595 508.134 145.549 508.722 145.614C510.792 145.822 512.345 147.222 512.193 148.745Z" fill="#0C0C0C"/>
<path d="M603.406 346.662L608.829 379.722H473.574L478.63 346.462L603.406 346.662Z" fill="#262626"/>
<path d="M541.618 210.507C562.379 209.529 563.253 191.906 563.253 191.906C563.253 191.906 573.54 192.571 580.378 193.496C591.574 195.012 598.979 198.326 604.86 204.204C610.327 209.672 613.637 216.068 610.115 253.836C607.564 281.183 603.409 346.661 603.409 346.661L478.633 346.461C478.633 346.461 473.081 262.493 472.033 250.181C470.035 226.681 466.878 193.558 473.577 191.904C481.382 189.978 506.857 193.145 515.096 191.904C515.232 191.887 513.344 211.84 541.618 210.507Z" fill="#0E4770"/>
<path d="M314.388 118.393C314.206 117.983 313.942 117.615 313.614 117.31C313.285 117.005 312.897 116.771 312.475 116.621C312.052 116.471 311.604 116.408 311.156 116.437C310.709 116.466 310.272 116.586 309.873 116.789C309.113 117.21 308.541 117.903 308.273 118.729C308.005 119.555 308.06 120.451 308.428 121.238L310.234 125.313L298.634 115.069C297.363 113.908 295.063 113.294 293.854 114.805C293.351 115.355 293.05 116.06 292.999 116.804C292.949 117.548 293.152 118.287 293.576 118.901C293.561 118.91 293.547 118.922 293.535 118.935C293.528 118.945 293.521 118.956 293.515 118.968L291.557 117.177C291.197 116.847 290.767 116.602 290.3 116.459C289.834 116.315 289.341 116.277 288.857 116.347C288.374 116.417 287.912 116.593 287.505 116.863C287.098 117.133 286.755 117.489 286.503 117.907C286.114 118.583 285.97 119.372 286.096 120.141C286.223 120.91 286.611 121.612 287.195 122.128L288.029 122.891C288.018 122.926 288.013 122.963 288.014 123C287.339 122.619 286.551 122.488 285.789 122.63C285.026 122.772 284.339 123.179 283.846 123.778C283.319 124.468 283.074 125.332 283.159 126.196C283.245 127.06 283.656 127.86 284.308 128.432L286.357 130.306C286.308 130.299 286.259 130.305 286.214 130.321C286.168 130.338 286.127 130.365 286.094 130.401C286.057 130.445 286.034 130.499 286.027 130.556C285.343 130.387 284.623 130.442 283.973 130.711C283.322 130.981 282.774 131.451 282.41 132.054C282.021 132.73 281.878 133.519 282.004 134.288C282.131 135.057 282.519 135.759 283.103 136.275L300.564 152.246C303.007 154.481 306.062 155.935 309.337 156.421C312.611 156.908 315.957 156.406 318.945 154.979L328.563 150.385L314.388 118.393Z" fill="#E98862"/>
<g opacity="0.2">
<path d="M305.005 129.099C304.951 129.158 304.876 129.193 304.796 129.197C304.716 129.201 304.638 129.174 304.579 129.121L293.56 119.365C293.499 119.311 293.463 119.236 293.458 119.155C293.453 119.075 293.48 118.995 293.534 118.935C293.587 118.874 293.662 118.838 293.743 118.833C293.824 118.828 293.903 118.855 293.963 118.909L304.982 128.664C305.012 128.691 305.037 128.723 305.054 128.759C305.072 128.795 305.082 128.834 305.085 128.874C305.087 128.914 305.082 128.954 305.069 128.992C305.056 129.03 305.035 129.064 305.009 129.094L305.005 129.099Z" fill="#0C0C0C"/>
</g>
<g opacity="0.2">
<path d="M300.839 134.078C300.785 134.137 300.71 134.172 300.63 134.176C300.55 134.18 300.472 134.152 300.413 134.099L288.115 123.212C288.085 123.185 288.061 123.153 288.044 123.117C288.026 123.081 288.016 123.042 288.013 123.002C288.011 122.962 288.016 122.922 288.029 122.884C288.042 122.846 288.063 122.812 288.089 122.782C288.144 122.723 288.219 122.688 288.299 122.683C288.379 122.679 288.458 122.704 288.519 122.755L300.816 133.643C300.846 133.669 300.871 133.701 300.888 133.737C300.906 133.773 300.916 133.812 300.919 133.852C300.921 133.892 300.916 133.932 300.903 133.97C300.89 134.008 300.869 134.043 300.843 134.073L300.839 134.078Z" fill="#0C0C0C"/>
</g>
<g opacity="0.2">
<path d="M296.353 139.496C296.299 139.555 296.223 139.59 296.144 139.594C296.064 139.598 295.986 139.57 295.926 139.517L286.117 130.832C286.056 130.779 286.02 130.704 286.015 130.623C286.01 130.542 286.037 130.463 286.091 130.403C286.144 130.342 286.22 130.305 286.3 130.3C286.381 130.295 286.46 130.323 286.521 130.376L296.333 139.061C296.363 139.088 296.387 139.12 296.404 139.156C296.422 139.192 296.432 139.231 296.434 139.271C296.437 139.311 296.431 139.351 296.418 139.388C296.405 139.426 296.385 139.461 296.358 139.491L296.353 139.496Z" fill="#0C0C0C"/>
</g>
<path d="M325.51 129.686L391.638 183.853L489.265 192.11C495.135 192.602 500.588 195.344 504.484 199.762C508.381 204.179 510.42 209.932 510.175 215.818C509.929 221.703 507.419 227.267 503.169 231.345C498.919 235.424 493.257 237.702 487.366 237.704C486.72 237.704 486.07 237.677 485.417 237.622L380.6 228.759C375.924 228.363 371.483 226.536 367.882 223.527L298.628 162.088L325.51 129.686Z" fill="#0E4770"/>
<path d="M307.474 139.593L258.884 129.929L266.539 91.4421L279.042 83.426L317.139 91.003L307.474 139.593Z" fill="#0CBC8B"/>
<path opacity="0.29" d="M279.042 83.426L266.539 91.4421L277.058 93.7179L279.042 83.426Z" fill="#FFFFFA"/>
<g opacity="0.88">
<path d="M308.12 108.259C308.079 108.259 308.038 108.255 307.998 108.246L270.54 100.647C270.462 100.631 270.387 100.6 270.321 100.555C270.255 100.51 270.198 100.453 270.154 100.386C270.065 100.251 270.033 100.087 270.065 99.9282C270.097 99.7699 270.191 99.631 270.326 99.5419C270.461 99.4528 270.625 99.4209 270.784 99.4532L308.242 107.053C308.39 107.083 308.521 107.167 308.611 107.288C308.7 107.41 308.742 107.56 308.726 107.711C308.711 107.861 308.641 108 308.529 108.101C308.417 108.203 308.271 108.259 308.12 108.259Z" fill="white"/>
<path d="M306.741 115.382C306.7 115.382 306.659 115.378 306.619 115.37L269.161 107.77C269.003 107.738 268.864 107.644 268.775 107.509C268.686 107.374 268.654 107.21 268.686 107.052C268.718 106.893 268.812 106.754 268.947 106.665C269.082 106.576 269.246 106.544 269.405 106.577L306.863 114.176C307.011 114.206 307.142 114.29 307.232 114.412C307.321 114.533 307.363 114.684 307.347 114.834C307.332 114.984 307.262 115.124 307.15 115.225C307.038 115.326 306.892 115.382 306.741 115.382Z" fill="white"/>
<path d="M305.257 123.24C305.216 123.24 305.175 123.236 305.135 123.228L267.677 115.629C267.599 115.613 267.524 115.581 267.458 115.536C267.392 115.492 267.335 115.434 267.291 115.368C267.202 115.233 267.17 115.068 267.202 114.91C267.235 114.752 267.328 114.613 267.463 114.524C267.598 114.435 267.763 114.403 267.921 114.435L305.378 122.035C305.526 122.066 305.656 122.15 305.745 122.271C305.834 122.393 305.875 122.543 305.86 122.692C305.845 122.842 305.775 122.981 305.663 123.082C305.552 123.183 305.407 123.24 305.256 123.24H305.257Z" fill="white"/>
<path d="M283.154 126.066C283.113 126.066 283.072 126.062 283.032 126.054L266.417 122.682C266.337 122.668 266.261 122.638 266.193 122.594C266.125 122.549 266.066 122.492 266.021 122.425C265.975 122.358 265.943 122.282 265.927 122.202C265.911 122.123 265.912 122.041 265.928 121.961C265.944 121.881 265.976 121.806 266.022 121.739C266.068 121.672 266.127 121.615 266.195 121.571C266.263 121.527 266.34 121.497 266.42 121.483C266.5 121.469 266.582 121.471 266.661 121.489L283.276 124.86C283.424 124.89 283.555 124.974 283.645 125.096C283.734 125.217 283.776 125.368 283.76 125.518C283.745 125.668 283.675 125.808 283.563 125.909C283.451 126.01 283.305 126.066 283.154 126.066Z" fill="white"/>
</g>
<path d="M310.843 126.834L308.428 121.238C308.06 120.451 308.005 119.554 308.273 118.729C308.541 117.903 309.113 117.21 309.872 116.789C310.272 116.586 310.709 116.466 311.156 116.437C311.604 116.408 312.052 116.471 312.475 116.621C312.897 116.771 313.285 117.005 313.614 117.31C313.942 117.615 314.206 117.983 314.387 118.393" fill="#E98862"/>
<path d="M529.594 270.633L513.534 257.324C513.189 257.038 512.789 256.825 512.359 256.699C511.929 256.572 511.477 256.535 511.032 256.589C510.587 256.642 510.157 256.786 509.77 257.012C509.382 257.237 509.044 257.539 508.777 257.899C508.284 258.614 508.081 259.49 508.209 260.349C508.337 261.208 508.786 261.987 509.466 262.527L512.898 265.371L529.049 273.736L529.594 270.633Z" fill="#E98862"/>
<path d="M512.898 265.366L497.949 261.363C496.294 260.888 493.961 261.363 493.552 263.256C493.347 263.973 493.391 264.738 493.677 265.427C493.963 266.116 494.474 266.688 495.126 267.05C495.118 267.064 495.111 267.079 495.105 267.095C495.105 267.108 495.105 267.12 495.105 267.133L492.554 266.402C492.084 266.268 491.59 266.239 491.108 266.319C490.626 266.398 490.167 266.584 489.765 266.862C489.363 267.14 489.028 267.504 488.784 267.928C488.539 268.351 488.392 268.823 488.352 269.311C488.305 270.089 488.528 270.859 488.984 271.492C489.44 272.125 490.1 272.58 490.853 272.782L491.939 273.093C491.945 273.128 491.956 273.163 491.973 273.194C491.199 273.155 490.435 273.39 489.816 273.857C489.197 274.325 488.763 274.996 488.589 275.752C488.425 276.604 488.591 277.487 489.053 278.221C489.514 278.956 490.238 279.488 491.076 279.71L493.745 280.475C493.699 280.491 493.658 280.518 493.624 280.553C493.591 280.588 493.566 280.63 493.553 280.677C493.539 280.733 493.542 280.792 493.562 280.846C492.874 281 492.254 281.369 491.791 281.9C491.329 282.432 491.048 283.097 490.991 283.799C490.943 284.577 491.166 285.348 491.622 285.981C492.078 286.613 492.738 287.069 493.491 287.27L516.237 293.789C519.42 294.702 522.802 294.643 525.951 293.62C529.101 292.597 531.873 290.658 533.912 288.05L540.478 279.651L512.898 265.366Z" fill="#E98862"/>
<g opacity="0.2">
<path d="M509.903 271.086C509.881 271.162 509.83 271.227 509.76 271.266C509.691 271.305 509.609 271.315 509.532 271.294L495.321 267.466C495.282 267.456 495.246 267.438 495.214 267.413C495.182 267.389 495.156 267.358 495.136 267.324C495.116 267.289 495.103 267.251 495.098 267.211C495.093 267.172 495.095 267.131 495.106 267.093C495.116 267.054 495.134 267.018 495.158 266.986C495.183 266.954 495.213 266.928 495.248 266.908C495.282 266.888 495.321 266.875 495.36 266.87C495.4 266.865 495.44 266.867 495.479 266.878L509.691 270.703C509.769 270.724 509.835 270.776 509.875 270.846C509.916 270.916 509.926 270.999 509.905 271.077L509.903 271.086Z" fill="#0C0C0C"/>
</g>
<g opacity="0.2">
<path d="M508.389 277.4C508.366 277.477 508.315 277.541 508.246 277.58C508.176 277.618 508.095 277.629 508.018 277.608L492.158 273.338C492.08 273.317 492.013 273.266 491.973 273.196C491.933 273.126 491.922 273.043 491.943 272.965C491.967 272.889 492.018 272.824 492.087 272.784C492.157 272.744 492.239 272.732 492.316 272.75L508.176 277.02C508.215 277.03 508.251 277.048 508.283 277.072C508.315 277.097 508.341 277.127 508.361 277.162C508.381 277.197 508.394 277.235 508.399 277.274C508.404 277.314 508.402 277.354 508.391 277.393L508.389 277.4Z" fill="#0C0C0C"/>
</g>
<g opacity="0.2">
<path d="M506.788 284.249C506.766 284.325 506.714 284.389 506.645 284.428C506.576 284.467 506.494 284.478 506.417 284.457L493.765 281.051C493.725 281.041 493.688 281.024 493.655 281C493.622 280.976 493.594 280.946 493.573 280.911C493.552 280.876 493.538 280.837 493.533 280.796C493.527 280.756 493.53 280.714 493.54 280.675C493.551 280.636 493.569 280.599 493.595 280.566C493.62 280.534 493.651 280.507 493.687 280.488C493.723 280.468 493.762 280.456 493.803 280.451C493.843 280.447 493.884 280.451 493.924 280.463L506.575 283.869C506.613 283.879 506.649 283.897 506.681 283.921C506.713 283.946 506.739 283.976 506.759 284.011C506.779 284.045 506.792 284.084 506.797 284.123C506.803 284.163 506.8 284.203 506.79 284.242L506.788 284.249Z" fill="#0C0C0C"/>
</g>
<path d="M517.977 299.695L621.3 329.522C625.462 330.626 629.852 330.532 633.962 329.249C638.072 327.967 641.737 325.548 644.532 322.272C647.326 318.997 649.138 314.998 649.758 310.737C650.378 306.476 649.781 302.126 648.035 298.19L612.809 214.272C611.593 211.531 609.849 209.056 607.676 206.988C605.503 204.921 602.945 203.302 600.146 202.223C597.348 201.145 594.365 200.628 591.367 200.703C588.369 200.777 585.415 201.441 582.673 202.657C579.932 203.874 577.457 205.618 575.39 207.79C573.322 209.963 571.703 212.521 570.625 215.32C569.546 218.118 569.029 221.101 569.104 224.1C569.178 227.098 569.842 230.052 571.059 232.793L592.24 276.923L527.82 262.028L517.977 299.695Z" fill="#0E4770"/>
<path d="M604.838 325.073C604.809 325.073 604.78 325.069 604.753 325.061L517.892 299.986C517.816 299.964 517.752 299.913 517.713 299.844C517.673 299.775 517.663 299.694 517.683 299.617L527.526 261.949C527.546 261.872 527.595 261.805 527.663 261.764C527.732 261.723 527.814 261.71 527.891 261.729L591.694 276.479L570.787 232.92C570.767 232.884 570.755 232.844 570.751 232.803C570.747 232.762 570.752 232.721 570.764 232.681C570.777 232.642 570.798 232.606 570.825 232.575C570.852 232.543 570.885 232.518 570.922 232.5C570.959 232.482 571 232.472 571.041 232.47C571.082 232.469 571.123 232.475 571.162 232.49C571.201 232.505 571.236 232.527 571.266 232.556C571.295 232.584 571.319 232.619 571.335 232.657L592.516 276.787C592.54 276.838 592.549 276.896 592.543 276.952C592.536 277.009 592.513 277.062 592.478 277.107C592.442 277.151 592.394 277.185 592.341 277.204C592.287 277.222 592.229 277.226 592.173 277.213L528.04 262.391L518.347 299.485L604.922 324.476C604.993 324.496 605.054 324.541 605.094 324.603C605.134 324.664 605.151 324.738 605.141 324.811C605.13 324.884 605.094 324.951 605.038 324.999C604.982 325.047 604.911 325.073 604.838 325.073Z" fill="#0C0C0C"/>
<path d="M602.879 279.539C602.857 279.538 602.835 279.536 602.814 279.532L592.178 277.218C592.1 277.2 592.032 277.152 591.989 277.084C591.946 277.016 591.931 276.934 591.948 276.856C591.965 276.778 592.013 276.709 592.08 276.666C592.147 276.622 592.229 276.607 592.308 276.623L602.944 278.937C603.017 278.953 603.081 278.996 603.125 279.057C603.169 279.118 603.188 279.192 603.18 279.267C603.172 279.341 603.137 279.41 603.081 279.46C603.026 279.51 602.953 279.538 602.879 279.539Z" fill="#0C0C0C"/>
<path d="M470.87 236.698C470.793 236.698 470.719 236.67 470.663 236.617C470.606 236.565 470.572 236.494 470.566 236.417L469.209 218.854C469.206 218.814 469.211 218.774 469.223 218.736C469.236 218.698 469.256 218.663 469.282 218.632C469.308 218.602 469.34 218.577 469.375 218.559C469.411 218.541 469.45 218.53 469.49 218.527C469.53 218.524 469.57 218.529 469.609 218.541C469.647 218.554 469.682 218.573 469.712 218.6C469.743 218.626 469.768 218.658 469.786 218.693C469.804 218.729 469.815 218.768 469.818 218.808L471.175 236.371C471.181 236.451 471.155 236.531 471.102 236.592C471.05 236.653 470.975 236.691 470.895 236.697C470.886 236.698 470.878 236.698 470.87 236.698Z" fill="#0C0C0C"/>
<path d="M512.382 137.302C513.474 137.302 514.36 136.417 514.36 135.324C514.36 134.232 513.474 133.346 512.382 133.346C511.289 133.346 510.404 134.232 510.404 135.324C510.404 136.417 511.289 137.302 512.382 137.302Z" fill="#0C0C0C"/>
<path d="M532.431 140.689C533.523 140.689 534.409 139.804 534.409 138.711C534.409 137.619 533.523 136.733 532.431 136.733C531.338 136.733 530.453 137.619 530.453 138.711C530.453 139.804 531.338 140.689 532.431 140.689Z" fill="#0C0C0C"/>
<path d="M613.844 380.331H19.3961C19.2346 380.331 19.0797 380.267 18.9655 380.153C18.8513 380.039 18.7871 379.884 18.7871 379.722C18.7871 379.561 18.8513 379.406 18.9655 379.292C19.0797 379.177 19.2346 379.113 19.3961 379.113H613.844C614.005 379.113 614.16 379.177 614.275 379.292C614.389 379.406 614.453 379.561 614.453 379.722C614.453 379.884 614.389 380.039 614.275 380.153C614.16 380.267 614.005 380.331 613.844 380.331Z" fill="#292A2E"/>
</g>
<defs>
<clipPath id="clip0_115_1823">
<rect width="650" height="380.331" fill="white"/>
</clipPath>
</defs>
</svg>
