<svg width="804" height="499" viewBox="0 0 804 499" fill="none" xmlns="http://www.w3.org/2000/svg">
<g clip-path="url(#clip0_609_301)">
<path d="M803.189 498.261H0C8.80082 475.815 25.0536 456.778 47.9645 451.13C81.4804 442.878 116.949 465.565 150.39 457.036C169.389 452.194 184.346 438.081 200.063 426.368C259.358 382.159 340.615 369.093 410.778 392.493C447.454 404.717 480.875 426.096 518.446 435.188C567.028 446.946 617.833 437.196 667.791 435.589C716.447 434.02 786.167 453.848 803.189 498.261Z" fill="#F3F5FD"/>
<path d="M477.589 367.219H376.045V482.162H477.589V367.219Z" fill="#DEE8F5"/>
<path d="M673.957 0H179.676C168.852 0 160.078 8.77443 160.078 19.5982V403.842C160.078 414.665 168.852 423.44 179.676 423.44H673.957C684.781 423.44 693.555 414.665 693.555 403.842V19.5982C693.555 8.77443 684.781 0 673.957 0Z" fill="#DEE8F5"/>
<path d="M672.739 13.3652H180.893C176.107 13.3652 172.228 17.2446 172.228 22.03V358.165C172.228 362.95 176.107 366.83 180.893 366.83H672.739C677.524 366.83 681.403 362.95 681.403 358.165V22.03C681.403 17.2446 677.524 13.3652 672.739 13.3652Z" fill="white"/>
<path d="M509.65 471.859H343.983C336.693 471.859 330.783 477.769 330.783 485.06C330.783 492.35 336.693 498.26 343.983 498.26H509.65C516.94 498.26 522.85 492.35 522.85 485.06C522.85 477.769 516.94 471.859 509.65 471.859Z" fill="#DEE8F5"/>
<path d="M472.334 275.443H381.3V298.423H472.334V275.443Z" fill="#DEE8F5"/>
<path d="M462.783 66.4306V76.4307C462.783 78.1315 462.107 79.7627 460.905 80.9654C459.702 82.168 458.071 82.8437 456.37 82.8437H327.67C325.969 82.8437 324.338 83.5194 323.135 84.722C321.932 85.9247 321.257 87.5559 321.257 89.2567V235.524C321.257 237.225 321.932 238.856 323.135 240.058C324.338 241.261 325.969 241.937 327.67 241.937H525.963C527.664 241.937 529.295 241.261 530.498 240.058C531.701 238.856 532.377 237.225 532.377 235.524V66.4306C532.377 64.7298 531.701 63.0986 530.498 61.8959C529.295 60.6932 527.664 60.0176 525.963 60.0176H469.199C468.356 60.0172 467.522 60.1828 466.744 60.5049C465.965 60.827 465.258 61.2994 464.662 61.8949C464.067 62.4905 463.594 63.1975 463.271 63.9758C462.949 64.754 462.783 65.5882 462.783 66.4306V66.4306Z" fill="#DEE8F5"/>
<path d="M429.763 126.426H423.87V198.359H429.763V126.426Z" fill="white"/>
<path d="M462.783 159.447H390.85V165.34H462.783V159.447Z" fill="white"/>
<path d="M203.825 490.552L188.966 488.784C189.635 483.161 190.391 476.404 190.443 475.297C190.443 475.368 190.443 475.426 190.443 475.471H205.406C205.403 475.919 205.403 477.286 203.825 490.552Z" fill="#E98862"/>
<path d="M144.201 492.34L129.238 492.291C129.238 492.291 129.287 476.84 129.287 475.475H144.251C144.251 476.845 144.201 492.34 144.201 492.34Z" fill="#E98862"/>
<path d="M209.346 485.377C208.107 454.018 208.032 421.082 207.645 389.64C202.499 355.727 199.793 318.531 193.44 284.859L193.25 284.915L192.693 281.117L138.484 277.771C138.484 277.771 137.07 304.334 136.577 313.186C133.935 360.634 128.573 436.897 125.381 484.976L151.652 487.196C156.344 439.91 162.57 364.582 166.809 317.977C171.462 341.724 177.275 368.467 181.406 392.496C182.311 423.191 183.066 455.179 182.984 485.825L209.346 485.377Z" fill="#262626"/>
<path d="M162.392 498.128C162.794 498.126 163.192 498.041 163.56 497.879C163.928 497.716 164.259 497.479 164.532 497.183C164.804 496.887 165.013 496.538 165.145 496.158C165.276 495.778 165.328 495.375 165.297 494.973V494.973C165.254 494.417 165.052 493.885 164.717 493.44C164.381 492.994 163.925 492.654 163.402 492.459L145.985 486.625C145.648 486.513 145.291 486.476 144.937 486.515C144.584 486.554 144.244 486.669 143.939 486.852C141.545 488.514 138.68 489.363 135.767 489.275C133.499 489.114 131.321 488.318 129.483 486.979C129.321 486.847 129.125 486.763 128.917 486.737C128.71 486.712 128.5 486.746 128.311 486.836C128.122 486.925 127.963 487.067 127.851 487.244C127.74 487.42 127.681 487.625 127.681 487.834V496.351C127.681 496.602 127.731 496.851 127.827 497.083C127.923 497.315 128.065 497.526 128.243 497.703C128.421 497.88 128.632 498.021 128.864 498.116C129.097 498.212 129.346 498.26 129.597 498.259L162.392 498.128Z" fill="#C1D8ED"/>
<path d="M222.057 498.128C222.459 498.126 222.857 498.041 223.225 497.879C223.593 497.716 223.924 497.479 224.196 497.183C224.469 496.887 224.677 496.538 224.809 496.158C224.941 495.778 224.992 495.375 224.961 494.973V494.973C224.918 494.417 224.717 493.885 224.381 493.44C224.046 492.994 223.59 492.654 223.067 492.459L205.65 486.625C205.313 486.513 204.955 486.476 204.602 486.515C204.249 486.554 203.908 486.669 203.604 486.852C201.209 488.514 198.345 489.363 195.432 489.275C193.163 489.114 190.985 488.318 189.147 486.979C188.985 486.847 188.789 486.763 188.582 486.737C188.374 486.712 188.164 486.746 187.975 486.835C187.786 486.925 187.627 487.067 187.515 487.243C187.404 487.42 187.345 487.625 187.346 487.834V496.351C187.346 496.602 187.395 496.851 187.492 497.083C187.588 497.315 187.729 497.526 187.907 497.703C188.085 497.88 188.297 498.021 188.529 498.116C188.762 498.212 189.011 498.26 189.262 498.259L222.057 498.128Z" fill="#C1D8ED"/>
<path d="M219.262 227.707L219.593 227.85L215.448 228.519L219.517 236.286C219.517 236.286 234.604 239.816 241.663 231.874C241.843 231.672 241.957 231.42 241.991 231.152C242.025 230.883 241.978 230.611 241.855 230.37C241.731 230.129 241.538 229.931 241.301 229.801C241.063 229.672 240.792 229.617 240.523 229.644C236.454 230.057 229.2 230.548 225.933 229.259C227.369 228.554 229.275 227.473 228.976 226.828C228.188 225.131 221.358 227.369 219.262 227.707Z" fill="#E98862"/>
<path d="M205.426 232.053L206.765 232.886H205.426V232.053Z" fill="#FD5D76"/>
<path d="M294.504 232.639H215.448V130.578H277.679L294.504 148.359V232.639Z" fill="#C1D8ED"/>
<path d="M277.679 130.578V148.359H294.504L277.679 130.578Z" fill="#DEE8F5"/>
<path d="M285.536 174.562H224.416V177.961H285.536V174.562Z" fill="#DEE8F5"/>
<path d="M285.536 185.645H224.416V189.043H285.536V185.645Z" fill="#DEE8F5"/>
<path d="M285.536 196.729H224.416V200.127H285.536V196.729Z" fill="#DEE8F5"/>
<path d="M285.536 207.812H224.416V211.211H285.536V207.812Z" fill="#DEE8F5"/>
<path d="M285.536 218.895H224.416V222.293H285.536V218.895Z" fill="#DEE8F5"/>
<path d="M263.976 227.707L264.307 227.85L260.162 228.519L264.231 236.286C264.231 236.286 279.318 239.816 286.377 231.874C286.557 231.672 286.671 231.42 286.706 231.152C286.74 230.883 286.692 230.611 286.569 230.37C286.446 230.129 286.253 229.931 286.015 229.801C285.778 229.672 285.507 229.617 285.237 229.644C281.169 230.057 273.914 230.548 270.647 229.259C272.083 228.554 273.99 227.473 273.69 226.828C272.902 225.131 266.069 227.369 263.976 227.707Z" fill="#E98862"/>
<path d="M154.975 205.361C154.975 205.361 160.485 202.439 159.255 187.435L170.639 185.324C170.639 185.324 169.356 198.776 175.119 203.047L154.975 205.361Z" fill="#E98862"/>
<path d="M152.795 181.617C153.583 186.169 156.067 190.48 160.083 191.949C164.85 193.696 168.378 193.817 173.876 193.817C181.376 193.817 181.128 185.996 181.339 178.114C181.553 170.204 180.921 161.712 177.957 158.955C172.043 153.45 154.676 156.936 152.563 166.142C151.471 170.9 152.045 177.286 152.795 181.617Z" fill="#E98862"/>
<path d="M173.024 191.203C171.884 193.198 161.425 193.1 158.702 191.488C156.023 189.901 150.001 187.15 147.95 174.185C146.111 162.571 153.277 157.778 158.991 156.069C163.918 154.594 175.414 154.291 180.809 157.544C185.459 160.346 180.809 166.865 180.809 166.865C179.936 167.072 179.044 167.184 178.147 167.198C174.932 167.198 174.275 169.292 174.388 170.547C175.08 178.157 174.414 188.768 173.024 191.203Z" fill="#0F1011"/>
<path d="M179.481 179.603C179.537 180.181 179.477 180.763 179.305 181.317C179.133 181.871 178.853 182.386 178.481 182.831C178.109 183.275 177.652 183.642 177.137 183.909C176.622 184.175 176.059 184.337 175.481 184.384C174.902 184.431 174.321 184.363 173.769 184.184C173.218 184.004 172.707 183.717 172.268 183.338C171.828 182.96 171.468 182.497 171.209 181.979C170.95 181.46 170.796 180.895 170.757 180.316C170.7 179.741 170.759 179.161 170.931 178.609C171.103 178.058 171.384 177.547 171.758 177.106C172.132 176.666 172.59 176.305 173.106 176.046C173.622 175.786 174.185 175.633 174.761 175.596C177.881 175.497 179.284 177.194 179.481 179.603Z" fill="#E98862"/>
<path d="M261.819 225.94L224.085 238.158L221.436 232.885H212.753L193.87 208.409C191.728 204.256 187.692 201.561 180.52 201.254C177.659 201.131 163.699 201.111 153.478 201.111C146.612 201.111 140.975 203.218 137.719 206.473C126.496 217.697 140.272 236.822 140.272 251.792C140.272 266.762 133.503 273.467 134.002 281.15C134.785 293.224 193.45 290.371 196.439 283.512C199.186 277.198 194.507 273.038 193.665 255.762L205.992 249.567L209.311 253.868C210.288 255.136 211.634 256.07 213.163 256.544C214.693 257.017 216.331 257.007 217.854 256.514L266.603 240.728L261.819 225.94ZM194.367 238.013C194.484 236.997 194.605 235.978 194.728 234.958L196.326 237.029L194.367 238.013Z" fill="#367CFF"/>
<path d="M100.502 438.52C96.9394 437.353 93.2825 438.662 89.7838 441.323C94.3919 429.687 96.2945 419.177 88.4157 418.703C82.9041 418.372 78.6807 422.6 75.4728 428.613C74.3455 418.042 71.434 410.158 64.9141 412.772C57.7557 415.642 56.6662 425.476 57.7522 435.767C54.5991 430.511 51.203 427.58 48.1205 430.663C38.9192 439.864 61.5038 465.792 61.5038 465.792H67.113L70.3139 469.268C69.6661 470.638 69.3113 471.454 69.3113 471.454L73.3771 479.728C73.3771 479.728 115.288 443.359 100.502 438.52Z" fill="#8DDBE0"/>
<path d="M90.445 498.26H58.7005L53.387 461.201H95.7593L90.445 498.26Z" fill="#C1D8ED"/>
<path d="M714.943 495.71C729.378 492.56 743.51 488.037 757.309 473.166C760.14 470.119 762.896 466.141 761.834 462.112C761.035 459.08 758.153 456.934 755.102 456.187C753.965 455.921 752.801 455.789 751.633 455.793C751.627 455.793 751.621 455.793 751.62 455.793C749.822 455.823 748.03 456.017 746.268 456.374L745.764 456.471C737.36 458.099 729.242 460.958 721.672 464.955C720.986 465.315 720.199 465.431 719.438 465.287C718.678 465.142 717.989 464.743 717.483 464.157C716.978 463.57 716.686 462.829 716.655 462.056C716.625 461.282 716.857 460.521 717.314 459.896C718.148 458.763 719.096 457.719 720.141 456.778C721.682 455.422 723.345 454.212 725.111 453.166C727.462 451.741 729.942 450.507 732.379 449.231C741.429 444.503 750.085 439.058 758.265 432.947C764.108 428.582 769.869 423.675 773.03 417.103C774.483 414.08 775.331 410.525 774.178 407.377C772.274 402.204 765.789 400.247 760.299 400.815C750.68 401.812 742.524 408.103 735.227 414.442C729.17 419.71 722.401 425.537 714.38 425.201C713.008 425.212 711.663 424.819 710.511 424.073C708.35 422.498 708.039 419.25 709.069 416.781C710.099 414.312 712.152 412.444 714.134 410.653C725.648 400.25 737.034 389.371 745.07 376.1C753.107 362.828 757.54 346.724 754.049 331.601C753.023 327.183 751.287 322.814 748.285 319.408C745.284 316.002 740.868 313.648 736.329 313.861C730.144 314.142 725.097 318.908 721.54 323.969C709.321 341.339 708.049 363.796 703.252 384.483C701.909 390.274 700.171 396.182 696.269 400.709C695.907 401.146 695.456 401.499 694.945 401.747C691.928 403.164 689.638 399.587 688.802 396.647C685.509 385.015 685.551 372.039 678.725 362.06C676.12 358.261 672.254 354.94 667.664 354.578C662.055 354.136 656.854 358.405 654.758 363.628C652.661 368.85 653.141 374.757 654.436 380.23C656.841 390.382 661.91 399.75 668.111 408.137C671.381 412.564 675.118 417.075 675.745 422.538C675.921 424.391 675.621 426.259 674.873 427.964C674.124 429.668 672.953 431.154 671.469 432.278C670.777 432.784 669.991 433.145 669.157 433.341C668.322 433.537 667.457 433.563 666.613 433.418C664.787 433.092 663.204 432.011 661.678 430.961C661.037 430.52 660.396 430.073 659.749 429.633C657.201 427.879 654.653 426.121 652.104 424.36C645.626 419.89 637.741 415.213 630.358 417.947C626.587 419.347 623.93 422.508 622.483 426.272C621.185 429.69 620.867 433.401 621.565 436.99C623.053 444.457 634.634 465.876 639.679 471.577C645.56 478.236 665.552 506.491 714.943 495.71Z" fill="#8DDBE0"/>
</g>
<defs>
<clipPath id="clip0_609_301">
<rect width="803.189" height="498.261" fill="white"/>
</clipPath>
</defs>
</svg>
