<svg width="240" height="153" viewBox="0 0 240 153" fill="none" xmlns="http://www.w3.org/2000/svg">
<path opacity="0.1" d="M214.456 151.334C236.875 151.334 243.705 132.843 237.246 110.198C233.594 97.3917 225.147 80.645 211.347 73.0664C173.584 52.3268 178.673 51.3311 169.325 29.2561C154.065 -6.77976 95.3837 -8.17033 71.4065 17.6521C52.7503 37.744 44.7666 66.0682 19.3488 86.9373C-11.332 112.128 -2.96382 151.699 26.507 151.699L214.456 151.334Z" fill="#0E4770"/>
<path d="M239.562 129.495H3.0957L16.7047 100.201H225.953L239.562 129.495Z" fill="#292A2E"/>
<path d="M239.562 129.495H3.0957L16.7047 100.201H225.953L239.562 129.495Z" fill="white"/>
<path d="M239.562 129.753H3.09724C3.05374 129.753 3.01093 129.742 2.9728 129.722C2.93466 129.701 2.90243 129.67 2.87911 129.634C2.85578 129.597 2.84212 129.555 2.83938 129.512C2.83664 129.468 2.84492 129.425 2.86345 129.385L16.4714 100.091C16.4922 100.047 16.5252 100.009 16.5666 99.9829C16.6079 99.9566 16.6559 99.9426 16.7049 99.9426H225.953C226.002 99.9426 226.05 99.9565 226.091 99.9828C226.132 100.009 226.165 100.047 226.186 100.091L239.796 129.385C239.815 129.425 239.823 129.468 239.82 129.511C239.817 129.554 239.804 129.596 239.781 129.633C239.758 129.67 239.726 129.7 239.688 129.721C239.65 129.742 239.607 129.753 239.564 129.753H239.562ZM3.5021 129.237H239.155L225.789 100.459H16.869L3.5021 129.237Z" fill="#292A2E"/>
<path d="M137.681 90.3931H114.781V107.705H137.681V90.3931Z" fill="#292A2E"/>
<path opacity="0.64" d="M137.681 90.3936H114.781V99.6422H137.681V90.3936Z" fill="#0C0C0C"/>
<path d="M174.867 21.7075H77.5931C76.0631 21.7075 74.8228 22.9478 74.8228 24.4778V92.3657C74.8228 93.8957 76.0631 95.136 77.5931 95.136H174.867C176.397 95.136 177.637 93.8957 177.637 92.3657V24.4778C177.637 22.9478 176.397 21.7075 174.867 21.7075Z" fill="#292A2E"/>
<path d="M173.5 24.8547H78.9614C78.3334 24.8547 77.8242 25.3639 77.8242 25.9919V82.2952C77.8242 82.9232 78.3334 83.4323 78.9614 83.4323H173.5C174.128 83.4323 174.637 82.9232 174.637 82.2952V25.9919C174.637 25.3639 174.128 24.8547 173.5 24.8547Z" fill="white"/>
<path d="M142.445 106.283H110.016C109.187 106.283 108.514 106.956 108.514 107.786C108.514 108.616 109.187 109.288 110.016 109.288H142.445C143.275 109.288 143.948 108.616 143.948 107.786C143.948 106.956 143.275 106.283 142.445 106.283Z" fill="#292A2E"/>
<path d="M110.191 34.2116H105.886C105.86 34.2126 105.834 34.2083 105.81 34.1992C105.786 34.19 105.765 34.1761 105.746 34.1582C105.728 34.1404 105.713 34.119 105.703 34.0953C105.693 34.0717 105.688 34.0463 105.688 34.0206C105.688 33.9948 105.693 33.9694 105.703 33.9458C105.713 33.9221 105.728 33.9007 105.746 33.8829C105.765 33.8651 105.786 33.8511 105.81 33.842C105.834 33.8328 105.86 33.8285 105.886 33.8295H110.191C110.241 33.8313 110.287 33.8522 110.322 33.8879C110.356 33.9235 110.375 33.9711 110.375 34.0206C110.375 34.07 110.356 34.1176 110.322 34.1533C110.287 34.1889 110.241 34.2098 110.191 34.2116Z" fill="#292A2E"/>
<path d="M102.78 34.2116H101.151C101.125 34.2126 101.1 34.2083 101.076 34.1992C101.052 34.19 101.03 34.1761 101.011 34.1582C100.993 34.1404 100.978 34.119 100.968 34.0953C100.958 34.0717 100.953 34.0463 100.953 34.0206C100.953 33.9948 100.958 33.9694 100.968 33.9458C100.978 33.9221 100.993 33.9007 101.011 33.8829C101.03 33.8651 101.052 33.8511 101.076 33.842C101.1 33.8328 101.125 33.8285 101.151 33.8295H102.78C102.806 33.8285 102.831 33.8328 102.855 33.842C102.879 33.8511 102.901 33.8651 102.92 33.8829C102.938 33.9007 102.953 33.9221 102.963 33.9458C102.973 33.9694 102.978 33.9948 102.978 34.0206C102.978 34.0463 102.973 34.0717 102.963 34.0953C102.953 34.119 102.938 34.1404 102.92 34.1582C102.901 34.1761 102.879 34.19 102.855 34.1992C102.831 34.2083 102.806 34.2126 102.78 34.2116Z" fill="#0E4770"/>
<path d="M102.78 37.6602H101.151C101.1 37.6602 101.051 37.6401 101.015 37.6042C100.98 37.5684 100.959 37.5197 100.959 37.469C100.959 37.4183 100.98 37.3697 101.015 37.3338C101.051 37.298 101.1 37.2778 101.151 37.2778H102.78C102.83 37.2778 102.879 37.298 102.915 37.3338C102.951 37.3697 102.971 37.4183 102.971 37.469C102.971 37.5197 102.951 37.5684 102.915 37.6042C102.879 37.6401 102.83 37.6602 102.78 37.6602Z" fill="#0E4770"/>
<path d="M102.78 41.1087H101.151C101.1 41.1087 101.051 41.0886 101.015 41.0527C100.98 41.0169 100.959 40.9682 100.959 40.9175C100.959 40.8668 100.98 40.8182 101.015 40.7823C101.051 40.7465 101.1 40.7263 101.151 40.7263H102.78C102.83 40.7263 102.879 40.7465 102.915 40.7823C102.951 40.8182 102.971 40.8668 102.971 40.9175C102.971 40.9682 102.951 41.0169 102.915 41.0527C102.879 41.0886 102.83 41.1087 102.78 41.1087Z" fill="#0E4770"/>
<path d="M102.78 44.558H101.151C101.1 44.558 101.051 44.5378 101.015 44.5019C100.98 44.4661 100.959 44.4175 100.959 44.3667C100.959 44.316 100.98 44.2674 101.015 44.2315C101.051 44.1957 101.1 44.1755 101.151 44.1755H102.78C102.83 44.1755 102.879 44.1957 102.915 44.2315C102.951 44.2674 102.971 44.316 102.971 44.3667C102.971 44.4175 102.951 44.4661 102.915 44.5019C102.879 44.5378 102.83 44.558 102.78 44.558Z" fill="#0E4770"/>
<path d="M102.78 48.0063H101.151C101.125 48.0073 101.1 48.003 101.076 47.9938C101.052 47.9847 101.03 47.9707 101.011 47.9529C100.993 47.9351 100.978 47.9137 100.968 47.89C100.958 47.8664 100.953 47.8409 100.953 47.8152C100.953 47.7895 100.958 47.7641 100.968 47.7404C100.978 47.7168 100.993 47.6954 101.011 47.6776C101.03 47.6597 101.052 47.6458 101.076 47.6366C101.1 47.6275 101.125 47.6232 101.151 47.6242H102.78C102.806 47.6232 102.831 47.6275 102.855 47.6366C102.879 47.6458 102.901 47.6597 102.92 47.6776C102.938 47.6954 102.953 47.7168 102.963 47.7404C102.973 47.7641 102.978 47.7895 102.978 47.8152C102.978 47.8409 102.973 47.8664 102.963 47.89C102.953 47.9137 102.938 47.9351 102.92 47.9529C102.901 47.9707 102.879 47.9847 102.855 47.9938C102.831 48.003 102.806 48.0073 102.78 48.0063Z" fill="#0E4770"/>
<path d="M102.78 51.4537H101.151C101.1 51.4537 101.051 51.4336 101.015 51.3977C100.98 51.3618 100.959 51.3132 100.959 51.2625C100.959 51.2118 100.98 51.1632 101.015 51.1273C101.051 51.0914 101.1 51.0713 101.151 51.0713H102.78C102.83 51.0713 102.879 51.0914 102.915 51.1273C102.951 51.1632 102.971 51.2118 102.971 51.2625C102.971 51.3132 102.951 51.3618 102.915 51.3977C102.879 51.4336 102.83 51.4537 102.78 51.4537Z" fill="#0E4770"/>
<path d="M102.78 54.9034H101.151C101.1 54.9034 101.051 54.8833 101.015 54.8474C100.98 54.8115 100.959 54.7629 100.959 54.7122C100.959 54.6615 100.98 54.6129 101.015 54.577C101.051 54.5411 101.1 54.521 101.151 54.521H102.78C102.83 54.521 102.879 54.5411 102.915 54.577C102.951 54.6129 102.971 54.6615 102.971 54.7122C102.971 54.7629 102.951 54.8115 102.915 54.8474C102.879 54.8833 102.83 54.9034 102.78 54.9034Z" fill="#0E4770"/>
<path d="M102.78 58.3518H101.151C101.125 58.3527 101.1 58.3485 101.076 58.3393C101.052 58.3301 101.03 58.3162 101.011 58.2984C100.993 58.2805 100.978 58.2591 100.968 58.2355C100.958 58.2118 100.953 58.1864 100.953 58.1607C100.953 58.135 100.958 58.1096 100.968 58.0859C100.978 58.0622 100.993 58.0409 101.011 58.023C101.03 58.0052 101.052 57.9913 101.076 57.9821C101.1 57.9729 101.125 57.9687 101.151 57.9696H102.78C102.806 57.9687 102.831 57.9729 102.855 57.9821C102.879 57.9913 102.901 58.0052 102.92 58.023C102.938 58.0409 102.953 58.0622 102.963 58.0859C102.973 58.1096 102.978 58.135 102.978 58.1607C102.978 58.1864 102.973 58.2118 102.963 58.2355C102.953 58.2591 102.938 58.2805 102.92 58.2984C102.901 58.3162 102.879 58.3301 102.855 58.3393C102.831 58.3485 102.806 58.3527 102.78 58.3518Z" fill="#0E4770"/>
<path d="M102.78 61.8011H101.151C101.1 61.8011 101.051 61.781 101.015 61.7451C100.98 61.7092 100.959 61.6606 100.959 61.6099C100.959 61.5592 100.98 61.5106 101.015 61.4747C101.051 61.4388 101.1 61.4187 101.151 61.4187H102.78C102.83 61.4187 102.879 61.4388 102.915 61.4747C102.951 61.5106 102.971 61.5592 102.971 61.6099C102.971 61.6606 102.951 61.7092 102.915 61.7451C102.879 61.781 102.83 61.8011 102.78 61.8011Z" fill="#0E4770"/>
<path d="M102.78 65.2491H101.151C101.1 65.2491 101.051 65.229 101.015 65.1931C100.98 65.1573 100.959 65.1086 100.959 65.0579C100.959 65.0072 100.98 64.9586 101.015 64.9227C101.051 64.8868 101.1 64.8667 101.151 64.8667H102.78C102.83 64.8667 102.879 64.8868 102.915 64.9227C102.951 64.9586 102.971 65.0072 102.971 65.0579C102.971 65.1086 102.951 65.1573 102.915 65.1931C102.879 65.229 102.83 65.2491 102.78 65.2491Z" fill="#0E4770"/>
<path d="M102.78 68.6975H101.151C101.125 68.6984 101.1 68.6942 101.076 68.685C101.052 68.6758 101.03 68.6619 101.011 68.6441C100.993 68.6262 100.978 68.6048 100.968 68.5812C100.958 68.5575 100.953 68.5321 100.953 68.5064C100.953 68.4807 100.958 68.4553 100.968 68.4316C100.978 68.4079 100.993 68.3866 101.011 68.3687C101.03 68.3509 101.052 68.337 101.076 68.3278C101.1 68.3186 101.125 68.3144 101.151 68.3153H102.78C102.806 68.3144 102.831 68.3186 102.855 68.3278C102.879 68.337 102.901 68.3509 102.92 68.3687C102.938 68.3866 102.953 68.4079 102.963 68.4316C102.973 68.4553 102.978 68.4807 102.978 68.5064C102.978 68.5321 102.973 68.5575 102.963 68.5812C102.953 68.6048 102.938 68.6262 102.92 68.6441C102.901 68.6619 102.879 68.6758 102.855 68.685C102.831 68.6942 102.806 68.6984 102.78 68.6975Z" fill="#0E4770"/>
<path d="M102.78 72.1461H101.151C101.1 72.1461 101.051 72.1259 101.015 72.0901C100.98 72.0542 100.959 72.0056 100.959 71.9549C100.959 71.9042 100.98 71.8555 101.015 71.8197C101.051 71.7838 101.1 71.7637 101.151 71.7637H102.78C102.83 71.7637 102.879 71.7838 102.915 71.8197C102.951 71.8555 102.971 71.9042 102.971 71.9549C102.971 72.0056 102.951 72.0542 102.915 72.0901C102.879 72.1259 102.83 72.1461 102.78 72.1461Z" fill="#0E4770"/>
<path d="M102.78 75.5953H101.151C101.1 75.5953 101.051 75.5752 101.015 75.5393C100.98 75.5034 100.959 75.4548 100.959 75.4041C100.959 75.3534 100.98 75.3048 101.015 75.2689C101.051 75.233 101.1 75.2129 101.151 75.2129H102.78C102.83 75.2129 102.879 75.233 102.915 75.2689C102.951 75.3048 102.971 75.3534 102.971 75.4041C102.971 75.4548 102.951 75.5034 102.915 75.5393C102.879 75.5752 102.83 75.5953 102.78 75.5953Z" fill="#0E4770"/>
<path d="M102.78 79.0437H101.151C101.125 79.0446 101.1 79.0404 101.076 79.0312C101.052 79.022 101.03 79.0081 101.011 78.9903C100.993 78.9724 100.978 78.951 100.968 78.9274C100.958 78.9037 100.953 78.8783 100.953 78.8526C100.953 78.8269 100.958 78.8014 100.968 78.7778C100.978 78.7541 100.993 78.7328 101.011 78.7149C101.03 78.6971 101.052 78.6832 101.076 78.674C101.1 78.6648 101.125 78.6606 101.151 78.6615H102.78C102.806 78.6606 102.831 78.6648 102.855 78.674C102.879 78.6832 102.901 78.6971 102.92 78.7149C102.938 78.7328 102.953 78.7541 102.963 78.7778C102.973 78.8014 102.978 78.8269 102.978 78.8526C102.978 78.8783 102.973 78.9037 102.963 78.9274C102.953 78.951 102.938 78.9724 102.92 78.9903C102.901 79.0081 102.879 79.022 102.855 79.0312C102.831 79.0404 102.806 79.0446 102.78 79.0437Z" fill="#0E4770"/>
<path d="M113.632 37.6604H109.71C109.684 37.6613 109.659 37.6571 109.635 37.6479C109.611 37.6387 109.589 37.6248 109.57 37.6069C109.552 37.5891 109.537 37.5677 109.527 37.5441C109.517 37.5204 109.512 37.495 109.512 37.4693C109.512 37.4436 109.517 37.4181 109.527 37.3945C109.537 37.3708 109.552 37.3495 109.57 37.3316C109.589 37.3138 109.611 37.2999 109.635 37.2907C109.659 37.2815 109.684 37.2773 109.71 37.2782H113.632C113.658 37.2773 113.683 37.2815 113.707 37.2907C113.731 37.2999 113.753 37.3138 113.772 37.3316C113.79 37.3495 113.805 37.3708 113.815 37.3945C113.825 37.4181 113.83 37.4436 113.83 37.4693C113.83 37.495 113.825 37.5204 113.815 37.5441C113.805 37.5677 113.79 37.5891 113.772 37.6069C113.753 37.6248 113.731 37.6387 113.707 37.6479C113.683 37.6571 113.658 37.6613 113.632 37.6604Z" fill="#292A2E"/>
<path d="M110.191 58.352H105.886C105.86 58.353 105.834 58.3487 105.81 58.3395C105.786 58.3304 105.765 58.3164 105.746 58.2986C105.728 58.2808 105.713 58.2594 105.703 58.2357C105.693 58.2121 105.688 58.1866 105.688 58.1609C105.688 58.1352 105.693 58.1098 105.703 58.0861C105.713 58.0625 105.728 58.0411 105.746 58.0233C105.765 58.0054 105.786 57.9915 105.81 57.9823C105.834 57.9732 105.86 57.9689 105.886 57.9699H110.191C110.241 57.9717 110.287 57.9926 110.322 58.0282C110.356 58.0639 110.375 58.1114 110.375 58.1609C110.375 58.2104 110.356 58.258 110.322 58.2936C110.287 58.3293 110.241 58.3502 110.191 58.352Z" fill="#292A2E"/>
<path d="M113.632 61.8011H109.71C109.659 61.8011 109.61 61.781 109.575 61.7451C109.539 61.7092 109.519 61.6606 109.519 61.6099C109.519 61.5592 109.539 61.5106 109.575 61.4747C109.61 61.4388 109.659 61.4187 109.71 61.4187H113.632C113.683 61.4187 113.731 61.4388 113.767 61.4747C113.803 61.5106 113.823 61.5592 113.823 61.6099C113.823 61.6606 113.803 61.7092 113.767 61.7451C113.731 61.781 113.683 61.8011 113.632 61.8011Z" fill="#292A2E"/>
<path d="M140.967 41.109H112.385C112.334 41.109 112.285 41.0888 112.249 41.053C112.213 41.0171 112.193 40.9685 112.193 40.9178C112.193 40.8671 112.213 40.8184 112.249 40.7826C112.285 40.7467 112.334 40.7266 112.385 40.7266H140.967C141.018 40.7266 141.066 40.7467 141.102 40.7826C141.138 40.8184 141.158 40.8671 141.158 40.9178C141.158 40.9685 141.138 41.0171 141.102 41.053C141.066 41.0888 141.018 41.109 140.967 41.109Z" fill="#292A2E"/>
<path d="M161.644 41.109H145.104C145.053 41.109 145.004 41.0888 144.969 41.053C144.933 41.0171 144.913 40.9685 144.913 40.9178C144.913 40.8671 144.933 40.8184 144.969 40.7826C145.004 40.7467 145.053 40.7266 145.104 40.7266H161.644C161.695 40.7266 161.743 40.7467 161.779 40.7826C161.815 40.8184 161.835 40.8671 161.835 40.9178C161.835 40.9685 161.815 41.0171 161.779 41.053C161.743 41.0888 161.695 41.109 161.644 41.109Z" fill="#0CBC8B"/>
<path d="M170.521 41.109H165.452C165.401 41.109 165.353 41.0888 165.317 41.053C165.281 41.0171 165.261 40.9685 165.261 40.9178C165.261 40.8671 165.281 40.8184 165.317 40.7826C165.353 40.7467 165.401 40.7266 165.452 40.7266H170.522C170.572 40.7266 170.621 40.7467 170.657 40.7826C170.693 40.8184 170.713 40.8671 170.713 40.9178C170.713 40.9685 170.693 41.0171 170.657 41.053C170.621 41.0888 170.572 41.109 170.522 41.109H170.521Z" fill="#292A2E"/>
<path d="M152.437 48.0058H112.385C112.359 48.0068 112.333 48.0025 112.309 47.9933C112.285 47.9842 112.264 47.9702 112.245 47.9524C112.227 47.9346 112.212 47.9132 112.202 47.8895C112.192 47.8659 112.187 47.8404 112.187 47.8147C112.187 47.789 112.192 47.7636 112.202 47.74C112.212 47.7163 112.227 47.6949 112.245 47.6771C112.264 47.6592 112.285 47.6453 112.309 47.6361C112.333 47.627 112.359 47.6227 112.385 47.6237H152.437C152.462 47.6227 152.488 47.627 152.512 47.6361C152.536 47.6453 152.558 47.6592 152.576 47.6771C152.595 47.6949 152.61 47.7163 152.62 47.74C152.63 47.7636 152.635 47.789 152.635 47.8147C152.635 47.8404 152.63 47.8659 152.62 47.8895C152.61 47.9132 152.595 47.9346 152.576 47.9524C152.558 47.9702 152.536 47.9842 152.512 47.9933C152.488 48.0025 152.462 48.0068 152.437 48.0058Z" fill="#292A2E"/>
<path d="M161.647 48.0058H156.577C156.551 48.0068 156.526 48.0025 156.502 47.9933C156.478 47.9842 156.456 47.9702 156.437 47.9524C156.419 47.9346 156.404 47.9132 156.394 47.8895C156.384 47.8659 156.379 47.8404 156.379 47.8147C156.379 47.789 156.384 47.7636 156.394 47.74C156.404 47.7163 156.419 47.6949 156.437 47.6771C156.456 47.6592 156.478 47.6453 156.502 47.6361C156.526 47.627 156.551 47.6227 156.577 47.6237H161.647C161.673 47.6227 161.698 47.627 161.722 47.6361C161.746 47.6453 161.768 47.6592 161.787 47.6771C161.805 47.6949 161.82 47.7163 161.83 47.74C161.84 47.7636 161.845 47.789 161.845 47.8147C161.845 47.8404 161.84 47.8659 161.83 47.8895C161.82 47.9132 161.805 47.9346 161.787 47.9524C161.768 47.9702 161.746 47.9842 161.722 47.9933C161.698 48.0025 161.673 48.0068 161.647 48.0058H161.647Z" fill="#0E4770"/>
<path d="M116.69 44.5575H112.385C112.334 44.5575 112.285 44.5373 112.249 44.5015C112.213 44.4656 112.193 44.417 112.193 44.3663C112.193 44.3155 112.213 44.2669 112.249 44.2311C112.285 44.1952 112.334 44.175 112.385 44.175H116.69C116.741 44.175 116.789 44.1952 116.825 44.2311C116.861 44.2669 116.881 44.3155 116.881 44.3663C116.881 44.417 116.861 44.4656 116.825 44.5015C116.789 44.5373 116.741 44.5575 116.69 44.5575Z" fill="#0CBC8B"/>
<path d="M150.176 44.5575H120.828C120.778 44.5575 120.729 44.5373 120.693 44.5015C120.657 44.4656 120.637 44.417 120.637 44.3663C120.637 44.3155 120.657 44.2669 120.693 44.2311C120.729 44.1952 120.778 44.175 120.828 44.175H150.176C150.227 44.175 150.276 44.1952 150.312 44.2311C150.348 44.2669 150.368 44.3155 150.368 44.3663C150.368 44.417 150.348 44.4656 150.312 44.5015C150.276 44.5373 150.227 44.5575 150.176 44.5575Z" fill="#0E4770"/>
<path d="M170.556 44.5575H154.781C154.73 44.5575 154.682 44.5373 154.646 44.5015C154.61 44.4656 154.59 44.417 154.59 44.3663C154.59 44.3155 154.61 44.2669 154.646 44.2311C154.682 44.1952 154.73 44.175 154.781 44.175H170.556C170.607 44.175 170.655 44.1952 170.691 44.2311C170.727 44.2669 170.747 44.3155 170.747 44.3663C170.747 44.417 170.727 44.4656 170.691 44.5015C170.655 44.5373 170.607 44.5575 170.556 44.5575Z" fill="#292A2E"/>
<path d="M140.967 51.4535H112.385C112.334 51.4535 112.285 51.4333 112.249 51.3975C112.213 51.3616 112.193 51.313 112.193 51.2623C112.193 51.2115 112.213 51.1629 112.249 51.127C112.285 51.0912 112.334 51.071 112.385 51.071H140.967C141.018 51.071 141.066 51.0912 141.102 51.127C141.138 51.1629 141.158 51.2115 141.158 51.2623C141.158 51.313 141.138 51.3616 141.102 51.3975C141.066 51.4333 141.018 51.4535 140.967 51.4535Z" fill="#292A2E"/>
<path d="M154 51.4535H145.106C145.056 51.4535 145.007 51.4333 144.971 51.3975C144.935 51.3616 144.915 51.313 144.915 51.2623C144.915 51.2115 144.935 51.1629 144.971 51.127C145.007 51.0912 145.056 51.071 145.106 51.071H154C154.05 51.071 154.099 51.0912 154.135 51.127C154.171 51.1629 154.191 51.2115 154.191 51.2623C154.191 51.313 154.171 51.3616 154.135 51.3975C154.099 51.4333 154.05 51.4535 154 51.4535Z" fill="#0CBC8B"/>
<path d="M170.522 51.4535H157.805C157.755 51.4535 157.706 51.4333 157.67 51.3975C157.634 51.3616 157.614 51.313 157.614 51.2623C157.614 51.2115 157.634 51.1629 157.67 51.127C157.706 51.0912 157.755 51.071 157.805 51.071H170.522C170.573 51.071 170.621 51.0912 170.657 51.127C170.693 51.1629 170.713 51.2115 170.713 51.2623C170.713 51.313 170.693 51.3616 170.657 51.3975C170.621 51.4333 170.573 51.4535 170.522 51.4535Z" fill="#292A2E"/>
<path d="M116.69 54.9037H112.385C112.334 54.9037 112.285 54.8835 112.249 54.8477C112.213 54.8118 112.193 54.7632 112.193 54.7124C112.193 54.6617 112.213 54.6131 112.249 54.5772C112.285 54.5414 112.334 54.5212 112.385 54.5212H116.69C116.741 54.5212 116.789 54.5414 116.825 54.5772C116.861 54.6131 116.881 54.6617 116.881 54.7124C116.881 54.7632 116.861 54.8118 116.825 54.8477C116.789 54.8835 116.741 54.9037 116.69 54.9037Z" fill="#0E4770"/>
<path d="M150.176 54.9037H120.828C120.778 54.9037 120.729 54.8835 120.693 54.8477C120.657 54.8118 120.637 54.7632 120.637 54.7124C120.637 54.6617 120.657 54.6131 120.693 54.5772C120.729 54.5414 120.778 54.5212 120.828 54.5212H150.176C150.227 54.5212 150.276 54.5414 150.312 54.5772C150.348 54.6131 150.368 54.6617 150.368 54.7124C150.368 54.7632 150.348 54.8118 150.312 54.8477C150.276 54.8835 150.227 54.9037 150.176 54.9037Z" fill="#0CBC8B"/>
<path d="M140.202 68.6976H111.62C111.569 68.6976 111.521 68.6775 111.485 68.6416C111.449 68.6057 111.429 68.5571 111.429 68.5064C111.429 68.4557 111.449 68.407 111.485 68.3712C111.521 68.3353 111.569 68.3152 111.62 68.3152H140.202C140.253 68.3152 140.301 68.3353 140.337 68.3712C140.373 68.407 140.393 68.4557 140.393 68.5064C140.393 68.5571 140.373 68.6057 140.337 68.6416C140.301 68.6775 140.253 68.6976 140.202 68.6976Z" fill="#292A2E"/>
<path d="M160.882 68.6976H144.342C144.291 68.6976 144.242 68.6775 144.206 68.6416C144.171 68.6057 144.15 68.5571 144.15 68.5064C144.15 68.4557 144.171 68.407 144.206 68.3712C144.242 68.3353 144.291 68.3152 144.342 68.3152H160.882C160.933 68.3152 160.981 68.3353 161.017 68.3712C161.053 68.407 161.073 68.4557 161.073 68.5064C161.073 68.5571 161.053 68.6057 161.017 68.6416C160.981 68.6775 160.933 68.6976 160.882 68.6976Z" fill="#0E4770"/>
<path d="M123.573 65.2491H111.62C111.569 65.2491 111.521 65.229 111.485 65.1931C111.449 65.1573 111.429 65.1086 111.429 65.0579C111.429 65.0072 111.449 64.9586 111.485 64.9227C111.521 64.8868 111.569 64.8667 111.62 64.8667H123.573C123.624 64.8667 123.672 64.8868 123.708 64.9227C123.744 64.9586 123.764 65.0072 123.764 65.0579C123.764 65.1086 123.744 65.1573 123.708 65.1931C123.672 65.229 123.624 65.2491 123.573 65.2491Z" fill="#0CBC8B"/>
<path d="M149.411 65.2491H127.71C127.66 65.2491 127.611 65.229 127.575 65.1931C127.539 65.1573 127.519 65.1086 127.519 65.0579C127.519 65.0072 127.539 64.9586 127.575 64.9227C127.611 64.8868 127.66 64.8667 127.71 64.8667H149.411C149.462 64.8667 149.511 64.8868 149.546 64.9227C149.582 64.9586 149.603 65.0072 149.603 65.0579C149.603 65.1086 149.582 65.1573 149.546 65.1931C149.511 65.229 149.462 65.2491 149.411 65.2491Z" fill="#0E4770"/>
<path d="M169.791 65.2491H154.016C153.966 65.2491 153.917 65.229 153.881 65.1931C153.845 65.1573 153.825 65.1086 153.825 65.0579C153.825 65.0072 153.845 64.9586 153.881 64.9227C153.917 64.8868 153.966 64.8667 154.016 64.8667H169.791C169.842 64.8667 169.891 64.8868 169.927 64.9227C169.962 64.9586 169.983 65.0072 169.983 65.0579C169.983 65.1086 169.962 65.1573 169.927 65.1931C169.891 65.229 169.842 65.2491 169.791 65.2491Z" fill="#292A2E"/>
<path d="M151.672 75.5948H111.62C111.569 75.5948 111.521 75.5747 111.485 75.5388C111.449 75.503 111.429 75.4543 111.429 75.4036C111.429 75.3529 111.449 75.3043 111.485 75.2684C111.521 75.2325 111.569 75.2124 111.62 75.2124H151.672C151.723 75.2124 151.771 75.2325 151.807 75.2684C151.843 75.3043 151.863 75.3529 151.863 75.4036C151.863 75.4543 151.843 75.503 151.807 75.5388C151.771 75.5747 151.723 75.5948 151.672 75.5948Z" fill="#0E4770"/>
<path d="M163.463 75.5948H155.812C155.762 75.5948 155.713 75.5747 155.677 75.5388C155.641 75.503 155.621 75.4543 155.621 75.4036C155.621 75.3529 155.641 75.3043 155.677 75.2684C155.713 75.2325 155.762 75.2124 155.812 75.2124H163.463C163.513 75.2124 163.562 75.2325 163.598 75.2684C163.634 75.3043 163.654 75.3529 163.654 75.4036C163.654 75.4543 163.634 75.503 163.598 75.5388C163.562 75.5747 163.513 75.5948 163.463 75.5948Z" fill="#292A2E"/>
<path d="M115.926 72.1462H111.621C111.595 72.1471 111.569 72.1429 111.545 72.1337C111.521 72.1245 111.499 72.1106 111.481 72.0928C111.462 72.075 111.448 72.0536 111.438 72.0299C111.428 72.0063 111.422 71.9808 111.422 71.9551C111.422 71.9294 111.428 71.904 111.438 71.8803C111.448 71.8567 111.462 71.8353 111.481 71.8175C111.499 71.7996 111.521 71.7857 111.545 71.7765C111.569 71.7673 111.595 71.7631 111.621 71.764H115.926C115.951 71.7631 115.977 71.7673 116.001 71.7765C116.025 71.7857 116.047 71.7996 116.065 71.8175C116.084 71.8353 116.099 71.8567 116.109 71.8803C116.119 71.904 116.124 71.9294 116.124 71.9551C116.124 71.9808 116.119 72.0063 116.109 72.0299C116.099 72.0536 116.084 72.075 116.065 72.0928C116.047 72.1106 116.025 72.1245 116.001 72.1337C115.977 72.1429 115.951 72.1471 115.926 72.1462Z" fill="#0E4770"/>
<path d="M149.412 72.1462H120.065C120.039 72.1471 120.014 72.1429 119.99 72.1337C119.966 72.1245 119.944 72.1106 119.925 72.0928C119.907 72.075 119.892 72.0536 119.882 72.0299C119.872 72.0063 119.867 71.9808 119.867 71.9551C119.867 71.9294 119.872 71.904 119.882 71.8803C119.892 71.8567 119.907 71.8353 119.925 71.8175C119.944 71.7996 119.966 71.7857 119.99 71.7765C120.014 71.7673 120.039 71.7631 120.065 71.764H149.412C149.438 71.7631 149.464 71.7673 149.488 71.7765C149.512 71.7857 149.534 71.7996 149.552 71.8175C149.571 71.8353 149.585 71.8567 149.595 71.8803C149.605 71.904 149.611 71.9294 149.611 71.9551C149.611 71.9808 149.605 72.0063 149.595 72.0299C149.585 72.0536 149.571 72.075 149.552 72.0928C149.534 72.1106 149.512 72.1245 149.488 72.1337C149.464 72.1429 149.438 72.1471 149.412 72.1462Z" fill="#292A2E"/>
<path d="M169.792 72.1462H154.017C153.991 72.1471 153.965 72.1429 153.941 72.1337C153.917 72.1245 153.895 72.1106 153.877 72.0928C153.858 72.075 153.844 72.0536 153.834 72.0299C153.824 72.0063 153.818 71.9808 153.818 71.9551C153.818 71.9294 153.824 71.904 153.834 71.8803C153.844 71.8567 153.858 71.8353 153.877 71.8175C153.895 71.7996 153.917 71.7857 153.941 71.7765C153.965 71.7673 153.991 71.7631 154.017 71.764H169.792C169.817 71.7631 169.843 71.7673 169.867 71.7765C169.891 71.7857 169.913 71.7996 169.931 71.8175C169.95 71.8353 169.964 71.8567 169.975 71.8803C169.985 71.904 169.99 71.9294 169.99 71.9551C169.99 71.9808 169.985 72.0063 169.975 72.0299C169.964 72.0536 169.95 72.075 169.931 72.0928C169.913 72.1106 169.891 72.1245 169.867 72.1337C169.843 72.1429 169.817 72.1471 169.792 72.1462Z" fill="#0CBC8B"/>
<path d="M140.202 79.0438H111.62C111.569 79.0438 111.521 79.0236 111.485 78.9878C111.449 78.9519 111.429 78.9033 111.429 78.8526C111.429 78.8019 111.449 78.7532 111.485 78.7174C111.521 78.6815 111.569 78.6614 111.62 78.6614H140.202C140.253 78.6614 140.301 78.6815 140.337 78.7174C140.373 78.7532 140.393 78.8019 140.393 78.8526C140.393 78.9033 140.373 78.9519 140.337 78.9878C140.301 79.0236 140.253 79.0438 140.202 79.0438Z" fill="#0CBC8B"/>
<path d="M153.235 79.0438H144.342C144.291 79.0438 144.242 79.0236 144.206 78.9878C144.171 78.9519 144.15 78.9033 144.15 78.8526C144.15 78.8019 144.171 78.7532 144.206 78.7174C144.242 78.6815 144.291 78.6614 144.342 78.6614H153.235C153.286 78.6614 153.334 78.6815 153.37 78.7174C153.406 78.7532 153.426 78.8019 153.426 78.8526C153.426 78.9033 153.406 78.9519 153.37 78.9878C153.334 79.0236 153.286 79.0438 153.235 79.0438Z" fill="#292A2E"/>
<path d="M169.757 79.0438H157.041C156.99 79.0438 156.941 79.0236 156.906 78.9878C156.87 78.9519 156.85 78.9033 156.85 78.8526C156.85 78.8019 156.87 78.7532 156.906 78.7174C156.941 78.6815 156.99 78.6614 157.041 78.6614H169.757C169.808 78.6614 169.857 78.6815 169.892 78.7174C169.928 78.7532 169.948 78.8019 169.948 78.8526C169.948 78.9033 169.928 78.9519 169.892 78.9878C169.857 79.0236 169.808 79.0438 169.757 79.0438H169.757Z" fill="#0E4770"/>
<path d="M98.5613 80.927C98.5362 80.9271 98.5114 80.9222 98.4882 80.9126C98.465 80.903 98.4439 80.8889 98.4261 80.8712C98.4084 80.8535 98.3943 80.8324 98.3847 80.8092C98.3751 80.786 98.3701 80.7612 98.3701 80.7361V28.1917C98.3701 28.141 98.3903 28.0923 98.4261 28.0565C98.462 28.0206 98.5106 28.0005 98.5613 28.0005C98.612 28.0005 98.6607 28.0206 98.6965 28.0565C98.7324 28.0923 98.7525 28.141 98.7525 28.1917V80.7361C98.7525 80.7612 98.7476 80.786 98.738 80.8092C98.7284 80.8324 98.7143 80.8535 98.6965 80.8712C98.6787 80.8889 98.6577 80.903 98.6345 80.9126C98.6113 80.9222 98.5864 80.9271 98.5613 80.927Z" fill="#292A2E"/>
<path d="M89.8168 30.5797H81.5374C81.4867 30.5797 81.4381 30.5595 81.4022 30.5237C81.3663 30.4878 81.3462 30.4392 81.3462 30.3885C81.3462 30.3378 81.3663 30.2891 81.4022 30.2533C81.4381 30.2174 81.4867 30.1973 81.5374 30.1973H89.8158C89.8665 30.1973 89.9151 30.2174 89.951 30.2533C89.9869 30.2891 90.007 30.3378 90.007 30.3885C90.007 30.4392 89.9869 30.4878 89.951 30.5237C89.9151 30.5595 89.8665 30.5797 89.8158 30.5797H89.8168Z" fill="#292A2E"/>
<path d="M87.3233 34.3503H81.5376C81.5119 34.3512 81.4863 34.347 81.4623 34.3378C81.4383 34.3286 81.4164 34.3147 81.3979 34.2969C81.3794 34.2791 81.3646 34.2577 81.3546 34.234C81.3445 34.2104 81.3394 34.1849 81.3394 34.1592C81.3394 34.1335 81.3445 34.1081 81.3546 34.0844C81.3646 34.0608 81.3794 34.0394 81.3979 34.0216C81.4164 34.0037 81.4383 33.9898 81.4623 33.9806C81.4863 33.9714 81.5119 33.9672 81.5376 33.9681H87.3223C87.3718 33.97 87.4186 33.9909 87.4529 34.0265C87.4873 34.0622 87.5065 34.1097 87.5065 34.1592C87.5065 34.2087 87.4873 34.2563 87.4529 34.2919C87.4186 34.3276 87.3718 34.3485 87.3223 34.3503H87.3233Z" fill="#292A2E"/>
<path d="M92.4099 38.1207H81.5374C81.4867 38.1207 81.4381 38.1006 81.4022 38.0647C81.3663 38.0288 81.3462 37.9802 81.3462 37.9295C81.3462 37.8788 81.3663 37.8301 81.4022 37.7943C81.4381 37.7584 81.4867 37.7383 81.5374 37.7383H92.4088C92.4595 37.7383 92.5082 37.7584 92.544 37.7943C92.5799 37.8301 92.6 37.8788 92.6 37.9295C92.6 37.9802 92.5799 38.0288 92.544 38.0647C92.5082 38.1006 92.4595 38.1207 92.4088 38.1207H92.4099Z" fill="#292A2E"/>
<path d="M94.4378 41.8913H85.3618C85.3361 41.8923 85.3105 41.888 85.2865 41.8788C85.2625 41.8697 85.2406 41.8557 85.2221 41.8379C85.2036 41.8201 85.1889 41.7987 85.1788 41.775C85.1688 41.7514 85.1636 41.7259 85.1636 41.7002C85.1636 41.6745 85.1688 41.6491 85.1788 41.6255C85.1889 41.6018 85.2036 41.5804 85.2221 41.5626C85.2406 41.5447 85.2625 41.5308 85.2865 41.5216C85.3105 41.5125 85.3361 41.5082 85.3618 41.5092H94.4378C94.4635 41.5082 94.4891 41.5125 94.5131 41.5216C94.5371 41.5308 94.559 41.5447 94.5775 41.5626C94.596 41.5804 94.6107 41.6018 94.6208 41.6255C94.6308 41.6491 94.636 41.6745 94.636 41.7002C94.636 41.7259 94.6308 41.7514 94.6208 41.775C94.6107 41.7987 94.596 41.8201 94.5775 41.8379C94.559 41.8557 94.5371 41.8697 94.5131 41.8788C94.4891 41.888 94.4635 41.8923 94.4378 41.8913Z" fill="#292A2E"/>
<path d="M90.0491 45.6622H85.3616C85.3109 45.6622 85.2623 45.6421 85.2264 45.6062C85.1906 45.5703 85.1704 45.5217 85.1704 45.471C85.1704 45.4203 85.1906 45.3716 85.2264 45.3358C85.2623 45.2999 85.3109 45.2798 85.3616 45.2798H90.0491C90.0999 45.2798 90.1485 45.2999 90.1844 45.3358C90.2202 45.3716 90.2404 45.4203 90.2404 45.471C90.2404 45.5217 90.2202 45.5703 90.1844 45.6062C90.1485 45.6421 90.0999 45.6622 90.0491 45.6622Z" fill="#292A2E"/>
<path d="M93.6392 49.4325H85.3616C85.3109 49.4325 85.2623 49.4123 85.2264 49.3765C85.1906 49.3406 85.1704 49.292 85.1704 49.2413C85.1704 49.1905 85.1906 49.1419 85.2264 49.1061C85.2623 49.0702 85.3109 49.05 85.3616 49.05H93.6392C93.6899 49.05 93.7386 49.0702 93.7744 49.1061C93.8103 49.1419 93.8304 49.1905 93.8304 49.2413C93.8304 49.292 93.8103 49.3406 93.7744 49.3765C93.7386 49.4123 93.6899 49.4325 93.6392 49.4325Z" fill="#292A2E"/>
<path d="M87.9215 53.2032H81.5374C81.4867 53.2032 81.4381 53.1831 81.4022 53.1472C81.3663 53.1114 81.3462 53.0627 81.3462 53.012C81.3462 52.9613 81.3663 52.9127 81.4022 52.8768C81.4381 52.8409 81.4867 52.8208 81.5374 52.8208H87.9205C87.9712 52.8208 88.0198 52.8409 88.0557 52.8768C88.0916 52.9127 88.1117 52.9613 88.1117 53.012C88.1117 53.0627 88.0916 53.1114 88.0557 53.1472C88.0198 53.1831 87.9712 53.2032 87.9205 53.2032H87.9215Z" fill="#292A2E"/>
<path d="M85.7272 56.9742H81.5374C81.4867 56.9742 81.4381 56.9541 81.4022 56.9182C81.3663 56.8823 81.3462 56.8337 81.3462 56.783C81.3462 56.7323 81.3663 56.6837 81.4022 56.6478C81.4381 56.6119 81.4867 56.5918 81.5374 56.5918H85.7261C85.7768 56.5918 85.8255 56.6119 85.8613 56.6478C85.8972 56.6837 85.9173 56.7323 85.9173 56.783C85.9173 56.8337 85.8972 56.8823 85.8613 56.9182C85.8255 56.9541 85.7768 56.9742 85.7261 56.9742H85.7272Z" fill="#292A2E"/>
<path d="M102.52 29.7711V29.84L104.91 30.7269C104.944 30.7408 104.973 30.7647 104.994 30.7954C105.014 30.826 105.025 30.8622 105.024 30.899V30.964C105.025 30.9928 105.018 31.0213 105.005 31.0467C104.991 31.0721 104.971 31.0937 104.947 31.1093C104.923 31.1264 104.895 31.1371 104.865 31.1404C104.836 31.1437 104.806 31.1396 104.779 31.1284L102.08 30.073C102.046 30.0596 102.017 30.0364 101.997 30.0065C101.976 29.9765 101.965 29.9411 101.965 29.9048V29.71C101.965 29.6736 101.975 29.638 101.996 29.6079C102.016 29.5778 102.046 29.5547 102.08 29.5417L104.779 28.4838C104.801 28.4762 104.824 28.4723 104.847 28.4722C104.883 28.4729 104.917 28.4836 104.947 28.5029C104.971 28.5193 104.991 28.5415 105.005 28.5676C105.018 28.5936 105.025 28.6227 105.024 28.652V28.7168C105.025 28.7533 105.015 28.7891 104.994 28.8193C104.974 28.8494 104.944 28.8724 104.91 28.885L102.52 29.7711Z" fill="#0E4770"/>
<path d="M107.257 27.7027L105.827 32.0803C105.815 32.1169 105.793 32.1489 105.762 32.1715C105.731 32.1942 105.693 32.2065 105.655 32.2065C105.627 32.2069 105.6 32.2005 105.575 32.1878C105.55 32.1752 105.529 32.1566 105.513 32.1337C105.496 32.1111 105.485 32.0849 105.479 32.057C105.474 32.0292 105.475 32.0005 105.483 31.9732L106.913 27.5995C106.925 27.5624 106.949 27.5301 106.98 27.507C107.012 27.4839 107.05 27.4711 107.089 27.4705C107.116 27.4704 107.144 27.477 107.168 27.4897C107.193 27.5023 107.214 27.5207 107.23 27.5432C107.247 27.5657 107.258 27.5919 107.263 27.6197C107.268 27.6474 107.265 27.6759 107.257 27.7027Z" fill="#0E4770"/>
<path d="M110.768 29.7098V29.9046C110.768 29.9405 110.758 29.9758 110.738 30.0058C110.718 30.0358 110.69 30.0592 110.657 30.0729L107.954 31.1282C107.927 31.1393 107.898 31.1434 107.869 31.14C107.84 31.1367 107.813 31.1261 107.789 31.1091C107.765 31.0935 107.745 31.0721 107.731 31.0467C107.717 31.0213 107.709 30.9929 107.709 30.9639V30.8988C107.709 30.8614 107.72 30.8247 107.741 30.7939C107.762 30.763 107.793 30.7396 107.828 30.7267L110.217 29.8399V29.771L107.828 28.8838C107.793 28.8722 107.762 28.8495 107.741 28.8193C107.719 28.789 107.708 28.7526 107.709 28.7156V28.6508C107.709 28.6213 107.717 28.5923 107.731 28.5663C107.745 28.5402 107.765 28.5181 107.789 28.5017C107.819 28.4824 107.853 28.4718 107.889 28.471C107.911 28.4707 107.933 28.4746 107.954 28.4826L110.657 29.5405C110.691 29.5539 110.719 29.5773 110.739 29.6076C110.759 29.6379 110.769 29.6736 110.768 29.7098Z" fill="#0E4770"/>
<path d="M12.5773 151.771C11.0184 151.771 9.48268 151.394 8.10079 150.673C6.71889 149.951 5.53174 148.907 4.64037 147.628C3.749 146.349 3.17979 144.874 2.98119 143.328C2.7826 141.781 2.96049 140.21 3.49973 138.747C4.04703 137.262 18.0854 101.024 20.5303 94.7261L37.4241 104.557C36.0503 108.099 31.0717 121.522 27.0721 132.335L33.7168 131.613L35.8069 149.304L13.6241 151.715C13.2765 151.752 12.927 151.771 12.5773 151.771Z" fill="#0E4770"/>
<path d="M67.8348 87.191C67.7755 87.1833 66.1498 93.3014 53.4621 92.3492C44.6784 91.6912 42.5367 85.7125 42.3354 85.7125C43.2825 85.5112 44.8204 85.3022 45.241 85.0777C46.6241 84.3345 47.6314 83.4298 48.1387 81.4884C48.5353 79.9701 48.7374 74.125 48.7374 71.1926L62.2535 74.2297C62.0651 77.5378 60.7465 85.2067 65.368 86.564C66.1369 86.7872 66.9652 86.9936 67.8348 87.191Z" fill="#E98862"/>
<path d="M61.787 80.7325C56.4587 81.1531 49.614 78.9033 48.3137 71.7943L47.1407 65.38C45.8404 58.271 48.5204 51.8252 55.2139 50.6011C61.9072 49.3769 67.9644 54.2247 69.2644 61.3337L69.7838 64.1736C70.2826 66.9011 71.2939 79.9826 61.787 80.7325Z" fill="#E98862"/>
<path d="M36.5645 86.6957C31.7763 87.051 26.894 87.5694 23.3707 90.8313C19.1275 94.7597 18.3586 99.5899 21.0657 112.883C23.3947 124.32 22.4707 129.318 24.029 150.424C24.0749 151.045 24.1732 152.331 24.1732 152.331L75.3939 152.246C75.3939 152.246 80.1934 124.245 82.8432 111.33C84.8582 101.511 90.1511 89.5914 67.8346 87.1893C67.7768 87.1829 49.8793 85.7079 36.5645 86.6957Z" fill="#0E4770"/>
<path d="M24.1729 152.46C24.1395 152.46 24.1074 152.447 24.0833 152.424C24.0593 152.401 24.0451 152.369 24.0438 152.336L22.4386 110.669C22.4379 110.652 22.4406 110.635 22.4465 110.619C22.4524 110.604 22.4613 110.589 22.4729 110.577C22.4844 110.564 22.4983 110.554 22.5137 110.547C22.5291 110.54 22.5457 110.536 22.5627 110.535C22.5798 110.534 22.597 110.536 22.6132 110.542C22.6294 110.547 22.6443 110.556 22.6569 110.568C22.6694 110.58 22.6795 110.594 22.6863 110.61C22.6932 110.625 22.6967 110.642 22.6966 110.659L24.3019 152.326C24.3031 152.36 24.2908 152.394 24.2675 152.419C24.2442 152.444 24.2119 152.459 24.1778 152.46L24.1729 152.46Z" fill="#0C0C0C"/>
<path d="M106.363 101.572L109.962 93.5002C110.041 93.3228 110.156 93.1639 110.3 93.0334C110.444 92.903 110.613 92.804 110.797 92.7426C110.982 92.6813 111.177 92.659 111.37 92.6772C111.563 92.6953 111.751 92.7535 111.92 92.8481C112.228 93.0324 112.457 93.3246 112.561 93.6679C112.666 94.0112 112.64 94.3812 112.487 94.706L111.715 96.4369L116.64 92.1075C117.179 91.6172 118.155 91.3592 118.666 92.0002C118.878 92.2341 119.006 92.5331 119.026 92.8486C119.047 93.164 118.961 93.4772 118.781 93.737C118.787 93.7408 118.792 93.7453 118.797 93.7505C118.8 93.7549 118.803 93.7595 118.805 93.7644L119.636 93.0076C119.791 92.8674 119.974 92.7635 120.173 92.7032C120.373 92.6429 120.583 92.6279 120.789 92.6592C120.995 92.6905 121.191 92.7673 121.363 92.8841C121.536 93.0009 121.68 93.1547 121.785 93.3342C121.946 93.6203 122.003 93.9529 121.948 94.2762C121.892 94.5995 121.728 94.894 121.481 95.1103L121.127 95.4326C121.132 95.4471 121.134 95.4623 121.133 95.4775C121.422 95.3154 121.76 95.2616 122.086 95.3256C122.411 95.3897 122.704 95.5674 122.91 95.8272C123.128 96.118 123.228 96.4802 123.19 96.8415C123.153 97.2028 122.98 97.5366 122.707 97.7764L121.829 98.5763C121.849 98.5737 121.87 98.5761 121.889 98.5831C121.908 98.5902 121.926 98.6017 121.939 98.6168C121.955 98.6355 121.965 98.6584 121.968 98.6826C122.266 98.6098 122.579 98.6369 122.861 98.7597C123.142 98.8825 123.375 99.0942 123.524 99.3623C123.674 99.6471 123.725 99.9746 123.666 100.292C123.608 100.609 123.444 100.896 123.201 101.109L115.787 107.859C114.749 108.804 113.453 109.417 112.065 109.62C110.677 109.823 109.26 109.607 107.996 109C106.905 108.476 106.062 107.548 105.645 106.412C105.229 105.277 105.271 104.023 105.764 102.919L106.363 101.572Z" fill="#E98862"/>
<g opacity="0.2">
<path d="M113.925 98.045C113.948 98.07 113.98 98.0849 114.013 98.0866C114.047 98.0884 114.08 98.0768 114.106 98.0543L118.784 93.9311C118.81 93.9085 118.825 93.8766 118.827 93.8424C118.83 93.8082 118.818 93.7745 118.795 93.7488C118.773 93.7231 118.741 93.7075 118.707 93.7053C118.673 93.7032 118.639 93.7147 118.613 93.7373L113.935 97.8605C113.922 97.8717 113.912 97.8853 113.904 97.9005C113.897 97.9158 113.892 97.9323 113.891 97.9492C113.89 97.9661 113.893 97.9831 113.898 97.9992C113.904 98.0152 113.912 98.03 113.923 98.0427L113.925 98.045Z" fill="#0C0C0C"/>
</g>
<g opacity="0.2">
<path d="M115.69 100.159C115.713 100.184 115.744 100.198 115.778 100.2C115.812 100.202 115.845 100.19 115.87 100.168L121.091 95.5666C121.104 95.5554 121.115 95.5418 121.122 95.5265C121.129 95.5113 121.134 95.4948 121.135 95.4778C121.136 95.4609 121.134 95.444 121.128 95.4279C121.123 95.4119 121.114 95.3971 121.103 95.3844C121.08 95.3597 121.048 95.3447 121.014 95.3426C120.98 95.3404 120.947 95.3512 120.921 95.3728L115.699 99.9744C115.687 99.9856 115.676 99.9992 115.669 100.014C115.661 100.03 115.657 100.046 115.656 100.063C115.655 100.08 115.657 100.097 115.663 100.113C115.668 100.129 115.677 100.144 115.688 100.157L115.69 100.159Z" fill="#0C0C0C"/>
</g>
<g opacity="0.2">
<path d="M117.582 102.459C117.605 102.484 117.637 102.499 117.671 102.5C117.704 102.502 117.738 102.49 117.763 102.468L121.928 98.7974C121.953 98.7747 121.969 98.7428 121.971 98.7086C121.973 98.6745 121.962 98.6409 121.939 98.6152C121.916 98.5895 121.884 98.5739 121.85 98.5718C121.816 98.5697 121.782 98.5812 121.757 98.6038L117.592 102.274C117.579 102.286 117.569 102.299 117.561 102.314C117.554 102.33 117.55 102.346 117.549 102.363C117.548 102.38 117.55 102.397 117.555 102.413C117.561 102.429 117.569 102.444 117.581 102.457L117.582 102.459Z" fill="#0C0C0C"/>
</g>
<path d="M66.7249 73.4463C65.8073 68.8356 65.3865 65.7595 65.4347 62.5145C66.727 60.2473 66.3874 57.6455 66.0935 56.521C66.4638 56.732 66.8513 56.9114 67.2518 57.0572C67.4381 57.122 67.6389 57.1322 67.8308 57.0868C68.0227 57.0413 68.1976 56.942 68.335 56.8006C68.4724 56.6592 68.5665 56.4815 68.6064 56.2884C68.6463 56.0953 68.6302 55.8948 68.5601 55.7105C67.5599 53.1208 64.9891 48.0885 59.682 46.4023C58.3461 45.8823 54.9341 45.2256 50.4063 45.8467C46.5543 46.3752 37.8331 50.0295 36.4766 60.7193V60.7252C36.4317 61.0798 34.7459 70.155 32.9283 74.8807C30.4849 81.2333 27.0543 83.2073 27.1413 90.5367C27.2533 99.9649 44.5847 101.219 55.0404 100.515C65.4961 99.8096 71.3306 96.3717 71.4062 89.5773C71.4886 81.9636 68.5601 82.6706 66.7249 73.4463Z" fill="#0A0A0A"/>
<path d="M66.728 70.1771C64.6939 70.5492 62.6469 68.6745 62.2751 66.6404C61.9032 64.6063 62.8301 62.5146 65.4345 62.5146L66.728 70.1771Z" fill="#E98862"/>
<path d="M88.6085 150.307C86.5625 150.307 84.5691 149.658 82.9146 148.455C81.26 147.251 80.0293 145.554 79.3991 143.608L65.9551 102.028L84.3692 96.0742L91.4395 117.944L103.658 98.5124L120.043 108.815L96.7979 145.781C95.9268 147.166 94.7187 148.308 93.2866 149.1C91.8544 149.891 90.2449 150.307 88.6085 150.307Z" fill="#0E4770"/>
<path d="M77.76 138.826C77.752 138.826 77.7441 138.825 77.7363 138.824C77.7026 138.818 77.6729 138.798 77.6535 138.77C77.6341 138.742 77.6268 138.707 77.633 138.674L82.2032 113.865C82.2062 113.849 82.2125 113.833 82.2218 113.819C82.231 113.804 82.2429 113.792 82.2569 113.783C82.2708 113.773 82.2865 113.766 82.3031 113.763C82.3197 113.759 82.3368 113.759 82.3535 113.762C82.3701 113.765 82.386 113.771 82.4003 113.78C82.4145 113.79 82.4268 113.802 82.4364 113.816C82.446 113.83 82.4528 113.845 82.4563 113.862C82.4599 113.878 82.4601 113.896 82.4571 113.912L77.8867 138.721C77.881 138.751 77.8653 138.777 77.8422 138.797C77.8191 138.816 77.79 138.826 77.76 138.826Z" fill="#0C0C0C"/>
<path d="M93.0831 123.799C93.0545 123.799 93.0268 123.79 93.0042 123.772C92.9816 123.755 92.9654 123.73 92.9582 123.703L91.4358 117.838C91.4272 117.805 91.4321 117.77 91.4495 117.741C91.4668 117.711 91.4952 117.69 91.5283 117.681C91.5614 117.673 91.5966 117.677 91.6261 117.695C91.6556 117.712 91.677 117.741 91.6856 117.774L93.208 123.638C93.2129 123.657 93.2134 123.677 93.2094 123.696C93.2054 123.715 93.1971 123.734 93.185 123.749C93.1729 123.765 93.1574 123.777 93.1397 123.786C93.122 123.795 93.1025 123.799 93.0828 123.799H93.0831Z" fill="#0C0C0C"/>
<path d="M196.657 122.816H146.209C145.894 122.816 145.581 122.749 145.294 122.62C145.006 122.491 144.748 122.302 144.539 122.065C144.329 121.829 144.172 121.551 144.078 121.25C143.984 120.949 143.954 120.631 143.992 120.318L145.342 109.054C145.407 108.511 145.668 108.012 146.077 107.649C146.485 107.287 147.013 107.086 147.559 107.086H196.657C197.25 107.086 197.818 107.322 198.236 107.741C198.655 108.159 198.89 108.727 198.89 109.319V120.584C198.89 121.176 198.655 121.744 198.236 122.162C197.817 122.581 197.25 122.816 196.657 122.816Z" fill="#292A2E"/>
<path d="M159.857 122.922L162.014 114.643C162.062 114.461 162.071 114.271 162.041 114.085C162.011 113.9 161.943 113.722 161.84 113.564C161.738 113.407 161.604 113.272 161.447 113.169C161.29 113.066 161.113 112.996 160.927 112.965C159.392 112.675 159.205 114.79 158.914 115.804L157.807 109.553C157.638 107.867 155.371 107.812 155.203 109.492C155.191 109.49 155.179 109.492 155.168 109.498C155.222 106.427 151.822 106.665 152.404 109.356C152.392 109.364 152.381 109.374 152.372 109.386C151.805 107.898 149.478 108.594 149.792 110.173L149.973 111.309C149.962 111.297 149.949 111.288 149.934 111.282C149.92 111.275 149.904 111.272 149.889 111.271C149.873 111.271 149.857 111.274 149.842 111.279C149.828 111.285 149.814 111.294 149.803 111.305C149.022 110.199 147.109 111.01 147.403 112.394L148.93 121.98C149.804 128.18 158.928 130.261 159.857 122.922Z" fill="#E98862"/>
<g opacity="0.2">
<path d="M156.271 115.683C155.935 115.652 155.218 109.818 155.084 109.636C155.078 109.603 155.086 109.57 155.105 109.542C155.124 109.515 155.153 109.497 155.185 109.491C155.218 109.485 155.252 109.493 155.279 109.512C155.306 109.531 155.324 109.56 155.33 109.593L156.374 115.538C156.377 115.554 156.377 115.571 156.373 115.587C156.369 115.603 156.362 115.619 156.353 115.632C156.343 115.646 156.331 115.657 156.317 115.666C156.303 115.675 156.287 115.681 156.271 115.683Z" fill="#0C0C0C"/>
</g>
<g opacity="0.2">
<path d="M153.661 116.217C153.629 116.222 153.596 116.214 153.569 116.194C153.543 116.175 153.525 116.146 153.52 116.114L152.352 109.479C152.347 109.446 152.354 109.412 152.373 109.385C152.392 109.358 152.421 109.34 152.454 109.334C152.796 109.303 153.629 115.931 153.766 116.071C153.769 116.087 153.768 116.104 153.765 116.121C153.761 116.137 153.754 116.152 153.744 116.166C153.735 116.18 153.722 116.191 153.708 116.2C153.694 116.209 153.678 116.215 153.661 116.217Z" fill="#0C0C0C"/>
</g>
<g opacity="0.2">
<path d="M150.838 116.811C150.805 116.816 150.772 116.808 150.746 116.789C150.719 116.769 150.701 116.74 150.696 116.708L149.765 111.415C149.76 111.383 149.768 111.35 149.787 111.324C149.807 111.298 149.835 111.28 149.867 111.274C149.899 111.269 149.932 111.276 149.959 111.294C149.986 111.312 150.004 111.34 150.011 111.372L150.942 116.665C150.945 116.681 150.945 116.698 150.941 116.714C150.938 116.731 150.931 116.746 150.921 116.76C150.911 116.774 150.899 116.785 150.884 116.794C150.87 116.803 150.854 116.809 150.838 116.811Z" fill="#0C0C0C"/>
</g>
<path d="M83.1657 152.46H23.1957L19.3845 123.178C19.308 122.59 19.3577 121.993 19.5303 121.426C19.7029 120.86 19.9945 120.336 20.3855 119.891C20.7764 119.446 21.2579 119.089 21.7977 118.845C22.3374 118.6 22.9231 118.474 23.5157 118.474H75.0795C76.0916 118.474 77.0692 118.842 77.8299 119.509C78.5905 120.177 79.0823 121.099 79.2133 122.102L83.1657 152.46Z" fill="white"/>
<path d="M79.5251 122.063C79.3826 120.984 78.8534 119.994 78.0357 119.275C77.2181 118.557 76.1675 118.159 75.0791 118.157H23.5152C22.9488 118.157 22.3876 118.265 21.8612 118.474C21.6385 118.562 21.4236 118.668 21.2187 118.792C20.4674 119.239 19.8636 119.897 19.4817 120.684C19.0997 121.471 18.9564 122.352 19.0692 123.219L22.8778 152.46H23.5152L19.6988 123.14C19.628 122.597 19.6739 122.045 19.8332 121.521C19.9926 120.997 20.2619 120.514 20.6231 120.102C20.9842 119.691 21.429 119.361 21.9278 119.135C22.4265 118.909 22.9677 118.792 23.5152 118.792H75.0791C76.0133 118.794 76.9151 119.135 77.6172 119.751C78.3194 120.368 78.7744 121.217 78.898 122.143L82.846 152.46H83.486L79.5251 122.063Z" fill="#292A2E"/>
<path d="M79.667 152.46H19.6963L15.8851 123.178C15.8084 122.59 15.8581 121.993 16.0307 121.426C16.2032 120.859 16.4947 120.336 16.8857 119.891C17.2768 119.445 17.7583 119.089 18.2981 118.844C18.8379 118.6 19.4237 118.474 20.0163 118.474H71.5793C72.5911 118.474 73.5682 118.842 74.3284 119.51C75.0886 120.177 75.5799 121.099 75.7105 122.102L79.667 152.46Z" fill="#292A2E"/>
<path d="M76.0259 122.063C75.9378 121.391 75.6983 120.747 75.3256 120.18C74.9529 119.614 74.4565 119.139 73.8738 118.792C73.6687 118.668 73.4538 118.562 73.2313 118.474C72.7059 118.265 72.1455 118.157 71.5799 118.157H20.016C19.3782 118.156 18.7478 118.292 18.1667 118.555C17.5856 118.818 17.0673 119.202 16.6465 119.681C16.2256 120.16 15.9119 120.724 15.7263 121.334C15.5406 121.944 15.4874 122.587 15.57 123.219L19.3761 152.46H20.016L16.1996 123.14C16.1289 122.597 16.1747 122.045 16.3341 121.521C16.4934 120.997 16.7627 120.514 17.1239 120.102C17.4851 119.691 17.9299 119.361 18.4286 119.135C18.9273 118.909 19.4685 118.792 20.016 118.792H71.5791C72.5134 118.794 73.4151 119.135 74.1173 119.751C74.8194 120.368 75.2745 121.217 75.3981 122.143L79.3461 152.46H79.986L76.0259 122.063Z" fill="#292A2E"/>
<path d="M181.462 88.4696C181.521 88.4619 182.178 99.3565 194.834 98.4067C203.596 97.7502 206.72 88.4544 206.921 88.4544C205.976 88.2536 204.385 87.9615 203.965 87.7376C202.586 86.9965 200.621 86.2249 200.176 83.5457C199.92 82.0014 200.354 74.1015 200.221 72.5388L187.029 75.5406C187.217 78.8406 188.533 86.4904 183.923 87.8441C183.157 88.0689 182.329 88.2753 181.462 88.4696Z" fill="#E98862"/>
<path d="M187.402 80.6875C192.713 81.0975 199.532 78.8436 200.816 71.756L201.974 65.3608C203.258 58.273 200.576 51.8532 193.902 50.6446C187.229 49.4357 181.2 54.278 179.916 61.3656L179.403 64.1968C179.244 65.172 179.152 66.1569 179.127 67.1446C179.041 69.7547 178.92 73.7246 180.211 76.6404C181.431 79.3945 184.01 80.4256 187.402 80.6875Z" fill="#E98862"/>
<path d="M199.313 50.2813C197.204 49.6239 195.017 49.2518 192.81 49.1751C192.596 48.3326 192.12 47.6785 191.419 47.4039C190.252 46.948 188.826 47.6824 187.878 49.0972C187.351 48.289 186.636 47.5608 185.689 47.2651C183.077 46.4515 182.947 50.2044 182.947 50.2044C182.947 50.2044 178.805 46.1168 178.675 51.3303C178.519 57.638 179.678 59.4879 180.524 59.9549C182.194 60.8772 183.437 60.7213 184.098 62.0781C186.099 66.1868 184.138 77.7601 186.454 79.2093C190.002 81.4284 197.269 81.5058 199.629 81.337C200.537 81.272 201.386 80.22 201.769 79.394C203.003 76.728 205.757 70.6837 206.523 68.184C207.937 63.5719 207.83 53.0625 199.313 50.2813Z" fill="#0C0C0C"/>
<path d="M184.869 75.0759C186.918 74.8535 188.341 72.4811 188.119 70.4312C187.896 68.3814 186.113 67.4328 184.063 67.655L183.157 69.1426L183.107 75.2663L184.869 75.0759Z" fill="#E98862"/>
<path d="M219.097 150.752L219.16 150.755C219.16 150.755 219.114 149.532 219.097 150.752Z" fill="#333333"/>
<path d="M163.27 112.575C163.67 117.275 165.616 146.594 166 152.383H219.006C219.306 147.162 220.65 124.334 221.786 114.124C222.869 104.381 224.996 99.5037 223.437 96.6235C220.89 91.9164 213.93 89.1961 209.184 88.5536C206.285 88.1614 205.688 87.8801 204.507 87.8801H184.099C182.158 87.8801 169.765 89.7499 167.225 91.6178C160.194 96.7879 162.421 102.616 163.27 112.575Z" fill="#0E4770"/>
<path d="M230.321 152.076C231.881 152.076 233.417 151.7 234.799 150.978C236.181 150.257 237.368 149.212 238.26 147.933C239.151 146.654 239.721 145.178 239.919 143.632C240.118 142.086 239.94 140.514 239.4 139.051C238.852 137.566 226.015 103.571 223.571 97.2712L205.474 104.604C206.848 108.146 211.827 121.57 215.827 132.384L209.181 131.662L207.09 150.903L229.274 152.019C229.622 152.057 229.972 152.076 230.321 152.076Z" fill="#0E4770"/>
<path d="M219.994 114.321L218.691 152.378L219.044 152.39L220.346 114.333L219.994 114.321Z" fill="#0C0C0C"/>
<path d="M155.599 152.076C154.04 152.076 152.504 151.7 151.122 150.978C149.74 150.257 148.552 149.212 147.661 147.933C146.769 146.654 146.2 145.178 146.002 143.632C145.803 142.086 145.981 140.514 146.521 139.051C147.068 137.566 160.444 103.421 162.888 97.1216L180.447 104.605C179.073 108.146 174.094 121.571 170.094 132.385L176.739 131.663L178.831 150.904L156.646 152.02C156.298 152.058 155.949 152.077 155.599 152.076Z" fill="#0E4770"/>
<path d="M170.052 130.129C170.021 130.129 169.991 130.122 169.964 130.109C169.937 130.095 169.914 130.075 169.896 130.05C169.878 130.026 169.866 129.997 169.861 129.967C169.856 129.937 169.858 129.906 169.868 129.877L174.566 115.086C174.573 115.061 174.585 115.038 174.601 115.018C174.617 114.997 174.637 114.981 174.66 114.969C174.683 114.956 174.708 114.949 174.734 114.946C174.76 114.944 174.786 114.947 174.81 114.955C174.835 114.962 174.858 114.975 174.878 114.992C174.897 115.009 174.913 115.029 174.925 115.053C174.936 115.076 174.943 115.101 174.945 115.127C174.947 115.153 174.943 115.179 174.934 115.203L170.236 129.993C170.224 130.032 170.2 130.067 170.166 130.091C170.133 130.116 170.093 130.129 170.052 130.129Z" fill="#0C0C0C"/>
<path d="M230.258 123.179L226.444 152.461H166.476L170.429 122.103C170.56 121.1 171.051 120.178 171.811 119.511C172.571 118.843 173.549 118.475 174.56 118.475H226.124C226.717 118.474 227.303 118.6 227.843 118.845C228.383 119.089 228.865 119.445 229.256 119.891C229.647 120.336 229.939 120.86 230.112 121.427C230.284 121.994 230.334 122.591 230.258 123.179Z" fill="white"/>
<path d="M229.493 119.682C229.185 119.331 228.824 119.031 228.423 118.792C228.217 118.668 228.001 118.562 227.778 118.474C227.251 118.265 226.69 118.157 226.124 118.157H174.56C173.472 118.16 172.421 118.557 171.604 119.276C170.786 119.994 170.257 120.985 170.114 122.063L166.155 152.46H166.795L170.743 122.143C170.866 121.217 171.32 120.367 172.022 119.751C172.724 119.135 173.626 118.794 174.56 118.792H226.124C226.671 118.792 227.212 118.909 227.711 119.135C228.21 119.361 228.655 119.691 229.016 120.102C229.377 120.514 229.647 120.997 229.807 121.521C229.967 122.045 230.013 122.597 229.943 123.14L226.124 152.46H226.764L230.57 123.219C230.652 122.587 230.599 121.945 230.413 121.334C230.228 120.724 229.914 120.161 229.493 119.682Z" fill="#292A2E"/>
<path d="M233.758 123.179L229.944 152.461H169.976L173.929 122.103C174.024 121.377 174.308 120.688 174.753 120.107C175.198 119.526 175.789 119.072 176.466 118.792C176.971 118.581 177.513 118.473 178.06 118.475H229.626C230.219 118.475 230.804 118.601 231.344 118.846C231.884 119.09 232.365 119.447 232.756 119.892C233.147 120.337 233.439 120.861 233.611 121.427C233.784 121.994 233.834 122.591 233.758 123.179Z" fill="#292A2E"/>
<path d="M232.993 119.682C232.572 119.203 232.054 118.82 231.474 118.557C230.893 118.294 230.263 118.157 229.626 118.157H178.06C177.252 118.158 176.461 118.377 175.768 118.792C175.185 119.139 174.688 119.613 174.315 120.18C173.942 120.747 173.702 121.391 173.614 122.063L169.655 152.46H170.295L174.243 122.143C174.366 121.217 174.82 120.367 175.522 119.751C176.224 119.134 177.125 118.794 178.059 118.792H229.626C230.173 118.792 230.715 118.909 231.213 119.135C231.712 119.361 232.157 119.69 232.518 120.102C232.879 120.513 233.148 120.997 233.308 121.521C233.467 122.045 233.513 122.597 233.442 123.14L229.626 152.46H230.263L234.072 123.219C234.154 122.587 234.1 121.944 233.914 121.334C233.728 120.724 233.414 120.161 232.993 119.682Z" fill="#292A2E"/>
<path d="M3.08297 152.642H238.78C238.828 152.642 238.874 152.623 238.908 152.589C238.942 152.555 238.961 152.509 238.961 152.461C238.961 152.413 238.942 152.367 238.908 152.333C238.874 152.3 238.828 152.281 238.78 152.281H3.08297C3.03507 152.281 2.98912 152.3 2.95525 152.333C2.92137 152.367 2.90234 152.413 2.90234 152.461C2.90234 152.509 2.92137 152.555 2.95525 152.589C2.98912 152.623 3.03507 152.642 3.08297 152.642Z" fill="#292A2E"/>
<g opacity="0.65">
<path d="M3.08346 152.642H238.781C238.829 152.642 238.875 152.623 238.909 152.589C238.942 152.555 238.961 152.509 238.961 152.461C238.961 152.413 238.942 152.367 238.909 152.333C238.875 152.3 238.829 152.281 238.781 152.281H3.08346C3.03555 152.281 2.98961 152.3 2.95574 152.333C2.92186 152.367 2.90283 152.413 2.90283 152.461C2.90283 152.509 2.92186 152.555 2.95574 152.589C2.98961 152.623 3.03555 152.642 3.08346 152.642Z" fill="#292A2E"/>
</g>
<path d="M145.923 142.556L146.753 120.738L158.217 120.132L159.26 142.556H145.923Z" fill="#0E4770"/>
</svg>
